<?xml version="1.0" encoding="UTF-8" standalone="no"?>
<svg
   xmlns:dc="http://purl.org/dc/elements/1.1/"
   xmlns:cc="http://creativecommons.org/ns#"
   xmlns:rdf="http://www.w3.org/1999/02/22-rdf-syntax-ns#"
   xmlns:svg="http://www.w3.org/2000/svg"
   xmlns="http://www.w3.org/2000/svg"
   xmlns:sodipodi="http://sodipodi.sourceforge.net/DTD/sodipodi-0.dtd"
   xmlns:inkscape="http://www.inkscape.org/namespaces/inkscape"
   sodipodi:docname="react-playground-logo.svg"
   inkscape:version="1.0.1 (3bc2e813f5, 2020-09-07)"
   version="1.1"
   id="svg2"
   height="100mm"
   width="140mm"
   viewBox="0 0 3.1748031 2.2677165">
  <metadata
     id="metadata12">
    <rdf:RDF>
      <cc:Work
         rdf:about="">
        <dc:format>image/svg+xml</dc:format>
        <dc:type
           rdf:resource="http://purl.org/dc/dcmitype/StillImage" />
        <dc:title></dc:title>
      </cc:Work>
    </rdf:RDF>
  </metadata>
  <defs
     id="defs10" />
  <sodipodi:namedview
     inkscape:document-rotation="0"
     inkscape:current-layer="text341"
     inkscape:window-maximized="0"
     inkscape:window-y="207"
     inkscape:window-x="168"
     inkscape:cy="209.39807"
     inkscape:cx="206.61325"
     inkscape:zoom="0.97470286"
     showgrid="false"
     id="namedview8"
     inkscape:window-height="752"
     inkscape:window-width="1458"
     inkscape:pageshadow="2"
     inkscape:pageopacity="0"
     guidetolerance="10"
     gridtolerance="10"
     objecttolerance="10"
     borderopacity="1"
     bordercolor="#666666"
     pagecolor="#ffffff"
     showguides="false"
     inkscape:lockguides="false"
     units="mm"
     fit-margin-top="0"
     fit-margin-left="0"
     fit-margin-right="0"
     fit-margin-bottom="0" />
  <g
     transform="matrix(0.00340993,0,0,0.00340993,0.05796567,-0.04160616)"
     id="g3351">
    <path
       inkscape:connector-curvature="0"
       d="m 718.42597,352.18909 c -7.0438,-11.40325 -21.9093,-18.58516 -44.5234,-13.5989 -24.9171,5.49386 -40.2513,25.23942 -55.5607,22.85253 -12.8375,-2.00088 -33.6892,-27.48702 -65.72215,-36.04891 -10.62414,-2.839 -27.59916,-4.41137 -39.42502,-3.86719 0.61856,-3.23446 1.29851,-7.76742 1.56766,-10.3727 2.58639,1.1663 5.75592,2.64424 8.90775,3.91795 67.02656,-49.61356 47.36956,-98.36421 39.81226,-166.2761 -2.747,0.5619 -27.41388,4.79267 -39.84177,6.88917 -5.49623,-13.75 20.03359,-40.72116 -4.51408,-69.108886 -30.05452,0.18297 -40.82859,5.282564 -48.94543,26.255806 -0.43323,1.12144 -1.23358,3.88254 -1.77306,5.70753 -0.65515,2.21691 1.0577,3.4257 3.93566,3.96871 -1.70458,2.56515 -4.79975,7.25511 -6.34143,9.95599 -1.16983,2.05873 -2.52501,4.72657 1.35399,5.25069 -0.48281,1.3906 -1.60424,4.92961 -1.5771,5.58712 0.0153,0.42969 0.0803,0.52295 2.11066,0.50524 0.27505,0.18652 0.35414,1.00575 0.42379,2.19684 0.0874,1.44488 -0.42142,3.5402 -0.52059,4.22132 -0.0991,0.641 -0.16879,2.04929 0.11097,2.61 -8.34822,0.80981 -13.97665,3.15184 -13.97665,3.15184 0,0 -11.78572,-8.91484 -31.5419,-16.03538 -1.30322,-3.4375 -3.4375,-6.15138 -3.4375,-6.15138 0,0 2.72451,-7.36134 3.73851,-13.68862 1.11201,-0.19242 2.71507,-0.40607 3.9333,-0.64099 -2.13072,-16.04127 5.22827,-27.405572 8.68583,-31.978676 0.97152,-0.59614 4.22959,-3.069203 5.23062,-4.542417 l 4.36298,22.872623 11.40797,0.0567 -0.0189,-21.550502 c 19.8577,-0.681124 171.32843,-4.941406 173.28333,-5.308529 4.396,-0.823962 24.9289,-8.731866 24.9289,-8.731866 0,0 -19.8978,-8.118025 -25.2571,-8.87352 -3.5862,-0.505237 -155.22934,-3.517772 -172.97403,-3.981693 l -0.0189,-22.098218 -10.67137,-0.132212 c 0,0 -2.4884,12.190615 -3.66414,17.558168 -0.28331,-0.71772 -2.23461,-3.707826 -5.1657,-3.700742 -5.00042,0.0118 -5.57413,2.725681 -5.6119,2.895668 -0.36595,-0.245536 -1.31032,-2.15316 -5.34159,-0.925481 -3.70901,1.129701 -3.72435,2.687908 -3.72435,2.687908 0,0 -1.89227,-1.449605 -5.31444,1.146227 -2.37508,1.801383 -2.50611,3.149469 -2.50611,3.149469 0,0 -2.45182,-0.547734 -5.22472,1.319754 -1.11199,0.749593 -2.54625,2.365643 -2.88976,4.312222 l -11.17543,-0.05548 c -0.16762,-0.257341 -1.08484,-1.691601 -1.26898,-1.935955 -2.46599,-3.275778 -6.27652,-5.387621 -10.55922,-5.387621 -7.43101,0 -13.47614,6.329628 -13.47614,14.111223 0,7.779234 6.04513,14.108862 13.47614,14.108862 4.38187,0 8.27384,-2.208642 10.73509,-5.611908 0.18534,-0.25616 0.76849,-1.244206 0.9373,-1.51335 l 9.51451,-0.02951 c 0.006,1.889916 0.10505,4.965015 2.33495,7.087484 -3.47292,4.639206 -11.3702,16.747212 -19.01604,29.327372 0.66106,0.59141 1.52869,1.23594 2.53327,1.74708 -1.5712,2.453 -5.92473,11.86599 -5.92473,23.02133 -0.89243,3.23448 -1.34218,4.92371 -1.96547,7.4735 -4.92841,-2.61235 -10.17439,-5.36282 -15.5384,-6.96235 0.85465,-2.69735 1.44488,-6.88916 1.13443,-13.46314 -0.16054,-3.41036 -0.54774,-3.4139 -1.82382,-2.31253 -1.48856,1.28671 -4.79149,3.31591 -6.86556,5.29318 0.0567,-0.96325 -0.30219,-4.15521 -0.67994,-5.0618 -4.96737,1.32211 -10.87912,3.49416 -14.95879,11.8046 -9.82852,-0.18062 -19.86951,2.79533 -25.08243,7.17719 -0.2963,2.80595 0.39073,6.96354 0.3022,9.97253 -11.48352,9.44369 -48.30089,53.79122 -52.2153,80.60655 -0.33407,2.28891 3.99586,10.96176 9.50506,14.18324 3.27342,1.91353 7.85715,1.86276 10.27473,-4.73483 2.01741,-5.50449 5.12911,-9.61013 9.36812,-11.91203 l 1.78841,2.59347 c -3.8424,3.11642 -6.38156,5.4195 -7.68125,9.31856 -0.6044,1.81319 -0.64099,6.28122 4.02891,7.40385 5.23889,1.25836 11.80224,0.27976 14.65659,-1.13324 3.81525,-1.88874 3.99233,-5.95661 3.8908,-7.06388 -0.0874,-0.95853 -0.4344,-2.05872 -0.77437,-2.75755 0.42732,-0.43677 1.51334,-1.2265 2.97121,-2.20864 0.40962,6.9234 0.11569,13.18692 -0.33171,19.32649 -7.66473,10.00204 -12.78792,20.27441 -15.6777,34.12946 -11.63461,8.46154 -17.59948,21.181 -19.94506,31.78155 -21.7299,-5.53046 -28.85398,-9.6727 -34.52609,-12.13277 -3.56027,-1.54523 -8.8511,-0.51468 -12.07021,1.27017 -8.36474,4.63802 -14.23871,8.93963 -15.56319,14.9281 -9.57353,43.29574 -26.01499,46.54083 -26.88853,57.0186 -2.04692,24.57128 -5.82203,33.89101 -5.50921,39.85824 0.27151,5.135 4.74427,20.94372 18.42227,27.63339 5.47143,-4.3193 8.74249,-7.4794 10.35618,-9.81198 0.19713,0.87236 0.44739,1.74235 0.58669,2.65132 2.88858,18.80473 21.39584,23.90313 32.93602,25.76591 15.04025,-27.0231 -3.37966,-48.33751 -8.6268,-49.03752 -1.41774,0.27859 -3.56972,1.22061 -3.81289,0.4415 -0.2054,-0.65633 0.37184,-0.59849 2.18975,-1.54168 4.43263,-2.29836 -1.72937,-12.01945 -0.49461,-14.7416 2.33731,-5.14798 20.79145,-26.71144 25.688,-26.76929 4.72302,-0.0567 23.62692,20.27795 40.37882,27.99344 5.3109,2.44827 12.13868,1.50036 34.74214,14.2092 4.6274,2.60409 8.60909,-0.59259 10.14251,-4.19182 0.39427,-0.92902 0.76139,-1.79312 1.11199,-2.62298 1.5169,0.0744 4.12925,0.69883 8.20184,3.05622 l -3.90378,5.27075 c -0.47455,-0.0661 -0.95499,-0.11332 -1.44606,-0.11332 -5.60247,0 -10.1437,4.53886 -10.1437,10.13306 0,0.71182 0.0933,1.39767 0.23255,2.06699 -2.23579,0.30455 -6.01327,1.15331 -10.47187,2.46834 -3.33126,0.98214 -9.07302,3.80226 -13.72167,7.0143 -5.27548,3.93683 -10.01148,9.45312 -12.66751,17.17924 -0.43678,1.27135 -0.70474,2.38807 -1.02228,3.78101 0.91367,-0.18297 1.84034,-0.37775 2.8933,-0.64099 7.70959,-1.93005 17.80488,-2.73867 22.78525,-3.0385 -0.33525,0.85347 -0.59141,1.61251 -0.76139,2.17913 0.98922,0.20422 21.63429,4.86231 25.97484,6.02389 0.18179,-0.94673 0.51114,-2.4648 0.89125,-4.82573 3.92149,1.50274 12.59551,4.63095 22.67192,5.74176 0.35886,-3.00545 -0.39309,-14.72152 -0.12866,-20.85991 l 2.87913,-1.0754 c 3.637,30.04862 22.37327,122.42082 84.32383,131.08303 -1.86395,-19.33829 -22.90566,-39.19482 -34.56742,-91.84689 -0.0295,-0.0567 2.5734,0.072 2.5734,0.072 0,0 12.5778,87.9502 71.80623,96.33619 2.3314,-10.94878 -26.6914,-58.68658 -34.61818,-96.662 1.48738,-0.0283 3.29466,0.0555 3.29466,0.0555 0,0 12.95083,56.23831 36.85397,88.50384 25.71987,-31.60919 6.01917,-80.21465 -6.55156,-113.44224 0.53593,-0.65398 1.24186,-1.39058 1.8368,-1.8368 0.32699,-0.0142 2.92872,0.27505 3.34188,0.25853 0.26443,4.53297 3.31001,16.47095 13.45371,23.75439 10.26293,16.05663 21.23885,24.20889 34.53555,31.76384 3.29586,2.55923 15.03666,16.80738 16.36356,22.42166 1.2749,5.38998 -9.0187,20.24726 -18.33021,33.51445 -3.92031,5.58593 -8.7236,11.17423 -13.32976,13.62488 -6.98005,3.71372 -33.32085,-2.73986 -37.91993,33.08829 3.71255,3.51659 15.10635,8.50286 26.34316,6.5492 -0.13221,1.17101 -0.38365,3.26869 -0.59377,4.49992 3.56499,3.25452 13.57294,5.43247 23.44748,5.52927 12.96973,0.12985 30.34843,-7.78986 27.07863,-23.50415 2.9027,-1.69632 2.944,-3.06802 13.057,-0.24553 9.8545,2.75048 12.0891,-0.57961 12.4055,-5.65322 0.5926,-9.47556 1.7612,-16.69526 4.7254,-26.27705 8.4615,-27.34891 23.0508,-48.29264 29.1928,-59.37716 2.5545,-4.61088 0.8133,-8.55716 -1.995,-10.50609 -8.386,-5.81731 -28.7844,-20.47391 -35.3572,-26.21567 -2.0398,-1.78249 -2.2665,-2.49313 -0.3022,-4.78559 2.8933,-3.37612 7.8064,-9.06593 10.4672,-12.39011 0.7649,6.04396 3.1967,12.30985 5.6851,16.10502 9.2831,14.16552 31.3896,16.83337 51.6876,-9.77775 -2.4483,0.87354 -4.422,1.64792 -7.6163,2.6761 -14.8349,4.78086 -18.5639,-3.11287 -13.0016,-12.14811 8.6232,-3.32537 21.1538,-7.19255 33.3138,-15.1878 11.0302,-7.25275 28.3464,-22.26703 36.8681,-37.92583 8.1853,-15.04143 9.5192,-41.70331 0,-57.1154 z M 383.13277,80.64778 c -5.28729,0 -9.57,-4.597893 -9.57,-10.270005 0,-5.673293 4.28271,-10.272366 9.57,-10.272366 5.28255,0 9.56762,4.599073 9.56762,10.272366 0,5.672112 -4.28507,10.270005 -9.56762,10.270005 z m 195.4004,260.18292 c 3.4493,2.07761 6.2175,3.94982 8.0803,5.27075 -0.8736,8.63507 -3.2144,23.44158 -7.3885,40.42605 -1.5689,6.38747 -3.4659,12.83515 -5.6568,19.30525 -1.3929,-1.80611 -3.5662,-3.00428 -5.9495,-3.00428 -0.399,0 -0.7909,0.0425 -1.1758,0.10743 -0.2384,-0.11214 -0.4745,-0.22075 -0.7153,-0.33525 2.0776,-6.18326 3.8766,-12.33935 5.364,-18.4329 4.7289,-19.37371 6.849,-35.40672 7.3094,-41.17917 0.028,-0.36595 0.098,-1.58772 0.1322,-2.15788 z m 49.2111,41.38339 c 9.3645,5.38527 17.1402,5.71461 25.5345,1.01756 0.4757,-0.2656 1.3056,-0.59141 1.7801,-0.93847 3.7928,2.08588 7.0108,5.65442 8.5076,8.35059 -11.4741,6.79 -22.5775,16.06606 -29.6012,23.0898 0.2986,-8.45918 -3.1778,-21.73818 -6.221,-31.51948 z m -271.34303,57.28539 c 2.58993,-1.83798 4.28389,-4.84698 4.28389,-8.26323 0,-0.46038 -0.0413,-0.90659 -0.0992,-1.34926 l 29.99668,-52.93184 c 3.98641,-0.79681 12.83515,-0.76612 17.10724,0.58433 -2.82958,15.82289 -11.8058,27.88719 -22.87969,39.34119 -7.06388,7.30942 -13.75001,16.58429 -16.4143,26.74924 l -11.99349,1.95838 c 0.10979,-2.3503 0.11924,-4.44679 -0.001,-6.08881 z m 29.71101,-21.35808 c 11.09279,-11.46699 20.31099,-23.78037 23.29992,-39.9692 3.37494,1.38822 5.72995,3.16836 7.33657,5.06535 0.6941,12.91306 -0.9727,30.26937 -19.57794,35.26743 -1.88048,0.955 -22.48305,23.8335 -22.60582,24.11682 l -4.20598,0.68703 c 2.66784,-9.40709 9.00337,-18.19208 15.75325,-25.16743 z m 2.43646,-43.16353 c 0,0 -3.41034,-8.8806 -1.80728,-14.18086 4.75135,-5.0394 13.9672,-5.87634 13.9672,-5.87634 0,0 7.51128,12.52941 26.71028,12.21186 -3.00309,3.44105 -8.13218,9.90997 -10.14251,13.47968 -8.58313,-9.15093 -28.72769,-5.63434 -28.72769,-5.63434 z M 318.01385,235.74258 c -0.004,-0.0531 -0.0295,-0.5796 -0.0602,-1.20879 1.62549,-1.03644 3.39736,-2.14018 5.13618,-3.20968 0.098,0.97034 0.23963,2.37037 0.26324,2.65485 1.16276,13.83737 0.17235,28.72888 0.10034,30.47241 -0.11922,0.098 -5.02994,-0.16645 -5.8421,-0.20185 0.5619,-8.10269 1.19816,-17.99848 0.40254,-28.50694 z m 27.57555,-80.85091 c 0.0271,0.79444 0.37658,1.89228 0.60912,1.57237 2.05164,-2.82602 5.89994,-4.64275 9.7872,-7.06151 0.24317,0.0732 0.4828,0.16172 0.7248,0.23727 -0.4415,3.38202 -2.50021,8.44029 -5.53282,14.28829 -4.27917,-5.04411 -8.93254,-9.19224 -12.64391,-12.16582 0.74369,0.0165 1.71639,-0.11097 3.56145,-0.78029 1.37052,-0.63627 2.58757,-1.75652 3.33716,-3.20967 0.085,0.008 0.44386,0.0189 0.52766,0.0295 -0.62327,2.40578 -0.46509,4.39722 -0.37066,7.08985 z m 77.65659,109.5172 c -34.24988,0.93139 -83.08317,2.33614 -97.26049,0.2479 -0.0342,-1.49682 0.29039,-8.51821 0.19123,-16.40367 0.0897,-0.085 0.17353,-0.17471 0.26442,-0.25971 19.9061,-22.45472 46.99885,-43.75022 42.19084,-64.2796 -0.28331,-1.15213 -1.26545,-1.60543 -0.95617,0.0496 0.70237,4.00531 1.07422,9.80137 -5.77599,19.8766 0.16644,-1.59481 0.25497,-3.44931 0.26088,-5.52692 -0.0189,-6.8325 -0.99985,-15.65644 -3.7397,-22.74392 0.14283,-0.54774 0.22782,-1.13797 0.22782,-1.77896 -0.002,-0.40018 -0.0437,-0.77557 -0.1027,-1.13915 4.23904,-7.57029 7.22796,-14.29183 7.81229,-19.0727 18.5108,8.56778 34.91802,24.39068 44.92714,43.40317 8.04956,15.25745 11.91912,37.26359 11.90849,56.15096 0,1.68334 -0.0307,3.34424 -0.0897,4.97564 -0.0213,0.55245 -0.0413,1.27726 -0.039,2.13073 0.007,1.20643 0.0567,2.70916 0.18062,4.37006 z m -97.62998,-42.73856 c 0.83341,0.31518 2.53327,1.06359 3.96399,1.64792 -1.24775,0.78973 -2.73395,1.72466 -3.69838,2.32787 0.0531,-0.41434 0.0909,-0.83813 0.0909,-1.28788 -10e-4,-0.91249 -0.14402,-1.92061 -0.35651,-2.68791 z m 26.49662,-41.4495 c 1.79311,-0.17471 3.51305,-0.87001 4.73954,-2.09296 2.05164,6.3249 2.9063,14.00616 2.88977,19.98519 0.0118,3.36077 -0.0909,6.89507 -0.31755,8.93608 -1.28197,1.66563 -2.75047,3.43869 -4.41964,5.32034 0.23019,-2.35266 0.36949,-5.17395 0.37185,-8.28565 -0.0189,-7.59862 -0.81452,-16.69643 -3.26397,-23.863 z m -6.31192,-6.63065 c 0.013,-6.2163 10.79176,-6.2163 10.79058,0 -0.013,6.21394 -10.7776,6.21394 -10.79058,0 z m 5.17395,11.37727 c 1.43426,6.03806 1.99734,13.09485 1.98317,19.11638 0.004,3.96635 -0.23726,7.51363 -0.58314,10.00322 -1.2383,3.13766 -5.61781,6.47836 -7.59154,7.21969 -1.68688,0.6351 -7.57974,1.20879 -13.00041,0.59732 -0.002,0.002 -0.0153,0.0106 -0.0201,0.0142 -1.53343,-0.52766 -4.0006,-1.39294 -6.06758,-2.38452 6.8089,-8.17115 16.50756,-21.0547 24.62677,-33.54515 0.21956,-0.34116 0.43441,-0.67994 0.65279,-1.0211 z m -7.70486,40.09198 c -2.68437,2.73867 -11.26868,11.66767 -15.78984,16.37534 -0.0271,-0.48044 -0.48398,-8.53709 -0.93728,-12.22012 3.46465,-2.10358 6.15374,-3.69721 6.15374,-3.69721 2.03983,0.1511 8.3069,0.22194 10.57338,-0.45801 z m 14.06637,-55.43559 c -0.86765,-1.10964 -2.18504,-1.9702 -3.55201,-2.39752 -0.33997,-0.45448 -0.59141,-0.8157 -0.93965,-1.25838 3.2321,-6.07819 5.50212,-11.47407 6.16082,-15.57498 1.68452,0.58431 3.36078,1.21115 5.01814,1.91706 -0.12631,3.69129 -2.72214,9.97607 -6.6873,17.31382 z m -20.87644,-19.48587 c -0.84994,-0.64571 -1.61723,-1.2076 -2.27947,-1.68098 2.93343,-0.68348 5.85271,-0.99984 9.16155,-0.83694 -1.27608,1.8061 -3.78928,2.82602 -6.88208,2.51792 z m 2.05517,4.72185 c 3.70665,3.0869 8.09442,7.22914 11.9923,12.07493 -1.83798,0.13693 -3.61811,0.82396 -4.89065,2.05871 -7.35545,-9.16509 -16.75073,-15.44396 -19.82347,-17.37402 2.32551,-1.44842 4.16231,-2.1319 5.19285,-2.44119 1.27607,0.85348 4.08676,2.81069 7.52897,5.68157 z m 7.16186,23.37783 c 1.03763,0.9786 2.39633,1.6007 3.84711,1.87103 0.20658,0.55953 0.40491,1.13207 0.59141,1.72584 -0.59966,0.94436 -1.20288,1.88873 -1.82262,2.83781 -8.22191,12.65337 -17.9489,25.62544 -24.69878,33.6691 -1.35989,-1.34218 -3.16953,-2.16143 -5.08188,-2.453 6.81481,-8.1676 16.39305,-20.96379 24.55712,-33.52625 0.89479,-1.38586 1.75299,-2.75637 2.60764,-4.12453 z m 91.33457,87.68932 c 0.0578,0.0248 0.0897,0.0378 0.11097,0.0448 0.004,-10e-4 0.0177,-0.005 0.0177,-0.005 0,0 0.0354,0.0224 -0.0177,0.005 -0.76376,0.18298 -81.2204,19.40205 -120.80477,13.33448 0,-1.47085 0.83458,-10.81891 1.0565,-12.43615 30.15486,1.8675 75.17055,1.34928 119.6373,-0.94318 z m 14.26823,-2.71743 c 0.52294,2.56043 1.33864,5.05827 2.45535,7.42039 0.13694,0.29038 0.35179,0.84048 0.62092,1.44488 -0.80271,-0.0673 -1.60306,-0.1511 -2.39869,-0.25734 -1.06831,-0.14285 -1.84977,-0.14756 -2.56278,-0.99159 -0.55954,-0.66106 -1.04942,-1.37878 -1.46023,-2.14136 -0.80271,-1.48738 -1.2985,-3.11641 -1.64438,-4.76434 -0.90187,-4.28743 -0.9904,-8.71888 -0.77083,-13.08067 0.14991,-2.97831 0.24081,-6.55392 1.41183,-9.42599 1.00811,2.77173 2.23106,5.90349 3.69484,9.23003 -0.27623,4.20125 -0.19006,8.43675 0.65397,12.56599 z m 0.16645,42.22271 -3.49299,-19.06089 25.19575,-3.12822 1.63848,1.583 1.99144,15.95038 z m 25.63369,-2.25232 0.95972,7.68598 -24.76489,4.55068 -1.39293,-7.60689 z m -22.41222,-21.30259 1.22296,-1.39412 c 0.87354,-1.655 1.47675,-3.66886 1.85214,-5.60129 2.50494,0.29985 5.15153,0.33172 7.64939,0.0838 0.10741,0.12514 0.20894,0.25616 0.31872,0.38129 1.02817,1.26899 2.03629,2.5014 3.14828,3.75032 l 0.91841,0.88771 -15.1099,1.89227 z m 7.60689,-9.23945 c -1.2265,0.0142 -2.45418,-0.007 -3.67714,-0.10035 -1.29024,-0.098 -1.40711,-0.49697 -2.00206,-1.60779 -0.87472,-1.62785 -1.59598,-3.33715 -2.14962,-5.09958 -0.98214,-3.12114 -1.49092,-6.96708 -1.61723,-10.44117 2.8036,5.73113 6.30012,11.73259 10.60762,17.1993 -0.38719,0.0201 -0.77438,0.046 -1.16157,0.0496 z m -22.31188,-5.47026 c 0.45093,-0.32934 3.009,-0.76376 4.44679,-0.89125 0.0708,0.23846 0.11923,0.48399 0.19713,0.7189 0.4899,1.49564 1.15922,2.93227 2.05283,4.23077 0.0283,0.0413 0.0614,0.0921 0.0921,0.13694 -1.05298,0.0106 -1.75062,-0.0165 -2.66667,-0.0165 -2.36092,0 -3.08336,-0.0531 -3.63109,-0.28686 -0.81333,-0.34823 -1.28671,-1.09309 -1.37524,-2.17912 -0.0531,-0.64571 0.35178,-1.3233 0.88417,-1.71285 z m -3.48709,-2.96886 c -0.53001,-0.17234 -1.82617,-0.74014 -1.82617,-2.36446 0,-1.18637 0.79563,-2.09532 2.03276,-2.29954 2.4105,-0.25026 5.25423,-0.40726 6.49252,-0.45093 0.1216,1.67626 0.33526,3.35368 0.67759,5.00043 -1.01165,0.0744 -2.3078,0.25616 -3.33007,0.27387 -1.11436,0.0189 -3.18016,0.12276 -4.04663,-0.15937 z m 3.72554,-23.64698 c -1.31149,-15.49354 -4.94967,-29.24944 -9.39175,-39.68825 -3.15064,-7.40385 -7.70723,-16.19356 -12.19061,-21.64846 4.20716,2.93226 12.47983,6.09707 15.84768,7.30704 3.0267,16.81212 6.36505,36.37234 11.52838,52.26725 0.0791,0.22665 0.16762,0.47218 0.24908,0.70591 -1.67744,0.20894 -3.90733,0.55481 -6.04278,1.05651 z m 3.76684,1.88992 c -0.21602,1.08011 -0.29628,2.35147 -0.37656,2.90984 -0.13812,0.97269 -0.24907,1.95129 -0.33525,2.93343 -1.56765,0.0649 -4.74427,0.36005 -5.31089,0.40963 -1.23359,0.10861 -2.32433,-0.40609 -2.56986,-1.36815 -0.21131,-0.82987 0.19713,-2.03984 0.55246,-2.54508 0.35649,-0.50523 1.34218,-1.01047 3.44104,-1.47085 1.9029,-0.41671 3.23327,-0.67405 4.59906,-0.86882 z m -7.55257,8.80505 c 0.94082,-0.1688 4.57191,-0.46628 6.68258,-0.54301 -0.0968,1.97845 -0.10742,3.96162 -0.0472,5.93299 -1.82498,0.11097 -4.81627,0.43206 -7.00248,0.51469 -0.99513,0.0637 -2.41758,-0.67287 -2.44237,-2.75402 -0.026,-2.20746 2.32668,-3.06329 2.8095,-3.15065 z m 0.15464,16.72713 c -0.0425,0.26914 -0.0614,0.54655 -0.0378,0.82985 0.14992,1.84034 1.14977,3.31238 2.57931,4.26619 0.0578,0.039 0.12748,0.072 0.19359,0.10624 -0.013,0.0366 -0.0307,0.0732 -0.0401,0.1086 -0.80626,2.46717 -2.42703,6.17028 -5.20702,10.15433 -0.19596,0.28095 -0.40371,0.55954 -0.60557,0.8393 -3.8731,-3.63346 -5.91411,-8.92073 -6.94938,-13.92352 4.69942,-1.06715 8.19004,-1.91589 10.06698,-2.38099 z m 0.98096,14.45119 c 1.6609,-2.71624 3.13411,-5.56586 4.08085,-8.71298 0.005,-0.0189 0.006,-0.0342 0.009,-0.0531 0.55954,0.0366 1.19227,0.0531 1.92416,0.0531 1.4555,0 3.20731,0.0106 5.3817,-0.008 0.0543,0.0201 0.10743,0.0496 0.16173,0.0626 1.64202,0.38129 3.32063,0.43088 4.98036,0.57608 -0.18297,1.44133 -0.75549,3.22973 -1.16393,4.1977 l -3.49063,3.99114 -1.93122,0.24199 -3.80935,0.47692 0.69175,3.7751 0.19478,1.05769 -1.13914,1.30324 c -7.03556,7.57147 -17.24889,15.60805 -25.43539,25.16268 -0.35413,-3.82587 3.56382,-10.83189 7.21026,-15.80636 4.15757,-5.67092 8.7897,-10.52144 12.33463,-16.3175 z m 6.5787,11.45637 1.25129,-1.426 5.83029,31.81814 c -10.87558,9.59832 -31.07089,33.79657 -35.28041,38.87727 -4.49992,-1.5405 -9.19343,-4.21661 -12.81154,-8.78262 7.86659,-35.69948 26.76575,-45.4973 41.01037,-60.48679 z m -26.32781,69.85256 c 2.25468,-2.71506 7.29288,-8.73423 13.12436,-15.41327 6.93638,-7.94214 14.99893,-16.80149 20.66632,-21.96129 l 3.5827,19.54843 -0.99395,0.68585 c -10.44354,7.25629 -20.4503,14.19031 -25.07061,18.4258 -2.32551,0.17116 -6.60822,0.0271 -11.30882,-1.28552 z m 37.1479,-13.12318 0.96327,-0.67286 1.56174,8.52056 c -4.14578,0.15464 -8.49341,-0.006 -12.90597,-0.69647 2.77526,-1.84979 7.20436,-5.06181 10.38096,-7.15123 z m -1.23829,-32.81562 24.62794,-4.5247 16.42965,131.56939 c 0,0 2.66902,21.58826 -3.27224,32.7023 -9.41653,-10.54624 -13.82082,-28.95197 -13.82082,-28.95197 z m 30.43226,12.45033 c 7.045,-5.04294 12.75961,-9.52515 16.57248,-14.51023 2.0245,-2.64659 3.84831,-6.7664 4.56721,-9.4307 1.2265,0.65515 5.58357,3.07392 6.13721,3.32536 -0.12631,2.91101 -0.9361,7.9622 -1.69632,11.29111 -2.65013,11.60864 -9.5995,24.62794 -22.86551,31.25858 l -2.74103,-21.96246 c 0.007,0.007 0.026,0.0283 0.026,0.0283 z m -0.48753,-3.96989 -0.0283,0.0201 -3.15773,-25.29608 c 0.46393,0.18179 0.89479,0.35414 1.03172,0.42024 1.9997,0.96561 3.82352,2.3255 5.17396,4.1021 3.91559,5.15507 2.78352,12.49399 0.50996,18.16256 -1.24184,0.95145 -2.44119,1.825 -3.52958,2.59112 z m 15.77332,-15.10754 c -2.02803,3.47999 -5.47498,6.93284 -8.99512,9.90642 1.426,-4.72065 1.87457,-9.82143 -0.24317,-14.36502 -1.92297,-4.1257 -5.75592,-7.06269 -10.05633,-8.39425 l -1.18047,-9.46257 0.0519,0.0496 c 6.24581,5.28138 14.49487,10.96293 22.9328,15.76623 -0.49107,1.86984 -1.47321,4.72184 -2.50965,6.49961 z m -12.25437,43.55073 c 2.28656,-0.86057 4.4291,-2.05873 6.42525,-3.48591 -1.73291,7.90909 -3.03378,16.18766 -3.86011,24.03654 z m 7.29998,4.85641 c 3.04204,2.33731 10.63241,8.12865 15.34244,11.54136 4.15522,3.0149 8.81449,6.29776 13.75118,9.64081 -2.60174,1.20525 -4.47395,3.86129 -4.47395,6.84431 0,0.12395 0.0142,0.24436 0.0201,0.36712 -10.72213,-7.25037 -20.05603,-14.18794 -26.20387,-18.89562 0.47219,-3.25335 0.99985,-6.46302 1.56412,-9.49798 z m 26.11414,32.43904 c 1.14976,1.54759 2.86379,2.66313 4.80211,3.00428 0.82515,0.53357 1.65736,1.06478 2.49313,1.59717 -1.58064,4.06432 -3.31,8.23489 -5.23416,12.52467 -1.65265,3.68422 -5.1173,6.61177 -8.37772,8.1558 -0.85348,-4.92134 -0.61502,-8.78734 0.71772,-11.76211 2.08232,-4.64864 3.93329,-9.15446 5.59892,-13.51981 z m 6.03924,0.70357 c -2.75756,0 -5.11613,-2.35739 -5.11613,-5.11613 0,-2.75873 2.35857,-5.11493 5.11613,-5.11493 2.75873,0 5.11611,2.3562 5.11611,5.11493 0,2.75874 -2.35738,5.11613 -5.11611,5.11613 z m 7.52897,-5.00634 c 5.69218,3.61693 11.56143,7.14769 17.37047,10.32431 4.09502,2.24406 8.04718,4.28152 11.88138,6.13367 -1.9856,1.37641 -3.3242,3.66886 -3.3242,6.1927 0,0.5796 0.078,1.14504 0.2101,1.69278 -4.15994,-1.99735 -8.4273,-4.19064 -12.82924,-6.59524 -6.12659,-3.35368 -12.27443,-7.05679 -18.2027,-10.83308 2.78824,-1.08721 4.84579,-3.81643 4.89419,-6.91514 z m 26.97475,27.41147 c 0.4214,0.19714 0.844,0.39781 1.2619,0.59141 1.2796,1.25011 2.9818,2.05755 4.8328,2.16024 0.5512,0.23609 1.0943,0.45212 1.6432,0.68113 -1.4225,3.58034 -2.9158,7.15949 -4.5177,10.73157 -1.6514,3.68303 -5.1161,6.61058 -8.37768,8.1558 -0.8523,-4.92253 -0.61384,-8.78736 0.7189,-11.76211 1.57592,-3.51659 3.04318,-7.03909 4.43858,-10.55804 z m 6.4866,0.35414 c -2.7587,0 -5.1161,-2.3562 -5.1161,-5.11493 0,-2.75874 2.3574,-5.11613 5.1161,-5.11613 2.7575,0 5.1161,2.35739 5.1161,5.11613 0,2.75873 -2.3586,5.11493 -5.1161,5.11493 z m 7.5337,-5.11493 c 0,-0.3506 -0.035,-0.6953 -0.085,-1.03527 12.3618,4.95322 23.307,7.52425 33.0812,7.50536 8.0165,-0.007 15.294,-1.67624 22.2965,-5.14208 0.028,3.28995 -0.3258,6.633 -0.8109,9.61485 -6.7983,2.66902 -13.9448,3.98996 -21.4219,3.98996 h -0.064 c -11.4504,-0.0177 -23.5997,-2.95823 -36.913,-8.37064 2.3078,-1.30914 3.9168,-3.79519 3.9168,-6.56218 z m -21.57884,-80.99611 c 8.58434,2.65603 16.45794,6.54211 22.61644,10.08467 -0.029,0.8275 -0.087,1.94185 -0.1995,3.3466 -0.5406,6.77113 -2.8355,22.72032 -7.248,40.79789 -1.3528,5.54699 -3.0739,11.55789 -5.2106,17.94654 -3.5036,-1.71284 -7.11107,-3.57797 -10.84487,-5.62607 -6.04041,-3.30293 -12.16582,-6.99896 -18.08818,-10.7835 8.844,-26.63591 10.65364,-47.04843 10.84843,-57.79298 2.75283,0.54418 5.48677,1.20996 8.12628,2.02685 z m -10.53915,-2.47189 c -0.1452,9.70929 -1.69749,29.77357 -10.35028,56.31741 -1.33864,-1.81673 -3.45521,-3.04323 -5.79724,-3.12941 -0.57842,-0.38718 -1.15685,-0.77437 -1.72818,-1.16157 7.85006,-24.70939 9.38347,-44.11735 9.5204,-53.14668 2.72451,0.26914 5.53636,0.6339 8.3553,1.12025 z m -10.86731,-1.34336 c -0.0307,8.57958 -1.22532,27.02309 -9.08246,51.96033 -4.23314,-2.89568 -8.22781,-5.72524 -11.85066,-8.35176 -4.81273,-3.48944 -13.1456,-9.86275 -16.2443,-12.252 0.61856,-3.09517 1.26781,-5.92592 1.92061,-8.36121 7.8654,-7.18428 12.84577,-17.6219 14.20801,-23.17715 1.91826,-0.17117 10.60645,-0.65516 21.0488,0.18179 z m 28.1705,-172.41095 c 2.4129,20.226 5.8338,38.75923 7.3743,56.14977 3.303,37.312 -2.0516,69.36621 -44.5824,101.60813 -51.9627,-21.87157 -68.51039,-51.63924 -77.10414,-84.8149 -4.29451,-16.58193 -6.60231,-34.01379 -10.35145,-51.73721 3.00898,-0.51115 34.2782,-5.90349 64.77185,-11.07272 29.10307,-4.93197 57.49787,-9.66207 59.89184,-10.13307 z m -87.95728,-35.99696 c 6.29067,-20.164634 15.62812,-27.162402 45.08414,-27.072692 21.04052,26.329002 -2.28655,51.060822 2.45536,66.068022 -3.8908,0.6764 -8.23017,1.41182 -12.27679,2.11538 -1.90408,-0.38601 -3.97697,-1.24539 -5.49859,-2.01033 -5.49032,-2.76464 -9.27369,-6.66606 -9.7199,-7.77451 -1.06596,-9.92058 14.32606,-29.86447 -12.26735,-28.88233 -7.93034,0.29276 -8.38953,-0.31045 -7.77687,-2.44354 z m -3.58388,15.49118 c 1.76478,-3.14475 4.64512,-7.66236 6.17263,-10.03156 0.14637,-0.008 0.28095,-0.0153 0.42142,-0.026 0.31047,0.23609 0.74251,0.50879 1.33274,0.77084 -0.40371,1.02936 -0.61383,3.05975 0.80862,3.73969 1.44251,0.68821 2.83901,-10e-4 3.72081,-0.91484 1.5039,0.23019 2.95115,0.56778 2.8756,0.29393 -0.10388,-0.38365 -2.20982,-2.45536 -3.29585,-3.12468 -0.55481,-0.34234 -1.43071,-0.99986 -1.78485,-1.23831 17.22527,-0.49107 15.60096,4.87295 13.1456,14.6566 -1.24656,4.96737 -3.42452,10.51907 -1.39766,13.71223 -6.36622,2.52972 -11.78336,3.84357 -15.41327,4.15876 -4.47631,0.38955 -6.90924,-2.1933 -4.56957,-6.93994 0.58669,-1.19108 -0.0248,-2.10711 -0.27032,-2.92399 -0.28803,-0.95972 0.0767,-1.09901 0.48281,-1.08838 3.45521,0.0932 4.60851,0.42968 7.89491,2.28182 1.4992,0.84639 2.47189,0.76849 3.09282,0.22429 0.3022,-0.26442 0.44267,-1.45786 -0.36358,-2.839 -1.07659,-1.84507 -2.53682,-3.72908 -4.68998,-6.30484 -0.80035,-0.95735 -1.80138,-1.3174 -2.25586,-1.36816 -0.6339,-0.0696 -4.79739,0.0425 -5.78897,-0.20658 -0.798,-0.1995 -0.91958,-1.40121 -0.11805,-2.83192 z m 10.04926,-7.42745 c 0,-0.52649 0.34233,-0.95145 0.76612,-0.95145 0.42496,0 0.76494,0.42496 0.76494,0.95145 0,0.52766 -0.33998,0.95381 -0.76494,0.95381 -0.42379,0 -0.76612,-0.42615 -0.76612,-0.95381 z m -9.88871,15.12877 c 0.42496,-2.07643 0.70945,-2.23697 1.02817,-2.4707 0.31872,-0.23373 4.67581,-0.0189 5.41831,0.0519 0.41435,0.033 0.8039,0.46038 1.18637,0.85465 1.73174,1.79666 3.43632,3.9876 4.06905,5.31916 0.50288,1.0565 0.0236,1.20052 -0.60794,0.9361 -1.09074,-0.45684 -3.72672,-2.13546 -5.14091,-2.55098 -0.57488,-0.16644 -2.42585,-0.34823 -4.24729,-0.38719 -1.82381,-0.0389 -2.03394,-0.13575 -1.70576,-1.75298 z m 1.34335,15.73318 c 1.42364,0.76847 3.47292,1.18872 6.12659,0.84875 5.36166,-0.68586 13.45253,-3.31001 16.1251,-4.57547 3.1353,3.1353 8.14045,6.02508 10.20626,6.84313 -3.44577,0.59849 -15.47112,2.66312 -28.69817,4.93196 -1.22533,-1.69986 -3.78456,-5.08778 -6.68023,-7.87012 1.03526,-0.1027 2.03275,-0.16763 2.92045,-0.17825 z m -7.69188,0.89597 c 0.52885,-0.10743 1.07305,-0.20659 1.62432,-0.29748 1.85333,1.54168 3.77393,3.65116 5.30617,5.52927 0.71536,0.87473 1.34455,1.69042 1.85923,2.37745 -4.51527,0.7732 -9.10844,1.56175 -13.50093,2.3137 0.36595,-1.11671 0.93728,-2.64186 1.6314,-4.14577 0.90659,-2.03629 2.03039,-4.1812 3.07981,-5.77717 z m -8.19593,2.57222 c 1.15449,-0.47101 3.04913,-1.15922 4.86232,-1.71639 -0.6953,1.26309 -1.35871,2.61471 -1.95248,3.93329 -0.9786,2.23933 -1.74472,4.16821 -2.08352,5.58949 -1.87811,0.32226 -3.70428,0.63508 -5.45963,0.9361 0.52295,-1.76598 1.61133,-3.93448 2.7068,-5.74649 0.7071,-1.18636 1.40002,-2.23225 1.92651,-2.996 z M 420.6112,143.3326 c 11.88723,3.20023 25.54989,11.46581 31.39552,15.44633 -1.61251,2.37862 -4.12925,6.47246 -4.80919,9.94183 -8.95851,1.5346 -15.46285,2.64895 -15.85713,2.71387 0.61856,2.98421 1.49565,7.21144 2.1992,10.67137 -3.83059,-1.73528 -11.17542,-3.99586 -18.82244,-9.04468 -1.41301,-0.96091 -7.48648,-7.15242 -10.72802,-10.20626 0.65161,-4.07967 4.71594,-9.1474 8.95733,-13.11256 2.31606,-2.19802 4.64511,-4.09857 6.39219,-5.44665 0.47337,-0.36593 0.89834,-0.68584 1.27254,-0.96325 z m 34.23925,-82.317056 c 0,0 170.49032,3.397365 173.91372,3.967527 3.9876,0.664599 17.7399,5.186943 17.7399,5.186943 0,0 -13.9412,4.791488 -17.3386,5.190484 -3.2321,0.378928 -174.31502,5.367553 -174.31502,5.367553 z m -11.16716,0.453297 4.85052,-22.610538 4.0903,0.05902 0.0295,63.306917 -4.7608,-0.0295 -4.43262,-23.47701 c 7.97284,-9.387021 4.893,-11.651144 -0.26088,-13.69216 0.0732,-0.900691 0.44031,-2.748111 0.48398,-3.556726 z m -9.20759,-9.042327 c 0.88063,-0.324627 2.453,-0.297476 3.16482,0 2.39279,1.002212 2.58285,8.501675 2.44001,11.363112 -2.20746,-1.332741 -5.64496,-4.543593 -6.36268,-4.619143 -0.38483,-2.074068 -1.79548,-5.800782 0.75785,-6.743969 z m -0.16644,9.325637 c 1.32212,0.0118 2.65604,3.293484 9.95718,6.336711 2.18385,0.908954 1.65147,4.129251 -3.1955,9.879273 -0.92666,1.097828 -4.51999,7.909085 -11.92383,7.682436 -10.85198,-0.33289 -7.30469,-7.878393 -4.51526,-9.342163 6.07346,-3.189604 8.39426,-0.787367 9.35632,-0.08736 0.64454,0.422606 1.25365,0.584329 1.75772,0.756676 1.28434,0.437951 2.43765,0.212482 1.15566,-0.454478 -1.42835,-0.747231 -1.7459,-2.031572 0.18533,-2.578125 1.1356,-0.319904 2.16379,-0.649254 2.71978,-0.956173 0.71654,-0.397815 1.22532,-1.12734 0.72127,-1.529877 -0.50406,-0.402536 -2.63834,0.158183 -3.30175,-0.351776 -6.92458,-5.315613 -4.57311,-9.371675 -2.91692,-9.355149 z m -10.01503,-6.313103 c 0.53122,-2.277108 5.34985,-2.520281 6.06167,-0.0083 0.68348,1.699863 1.25011,4.034813 1.40002,4.988626 -1.32919,1.709306 -1.74825,5.758285 1.24894,9.299666 1.36578,2.010324 -0.0874,2.529727 -1.59244,2.581666 -0.92903,0.03187 -2.18858,-1.034082 -3.3053,-2.722141 -2.42348,-3.664149 -4.86113,-9.649083 -3.81289,-14.139555 z m -2.49667,1.328018 c 1.48621,10.835447 4.01003,12.990967 5.53636,15.0249 1.69161,1.702224 -3.14593,2.480148 -5.06181,1.090746 -2.60882,-1.894639 -5.51512,-8.253779 -5.51512,-12.012364 0,-4.307501 3.98996,-5.240064 5.04057,-4.103282 z m -7.48766,4.256741 c 1.94894,8.921919 5.74294,12.408999 5.74294,12.408999 0,0 2.57695,2.222807 -1.53814,2.66548 -1.30322,0.140475 -5.15389,-0.938466 -8.61381,-8.1015 -2.55098,-5.280199 2.15316,-7.998799 4.40901,-6.972979 z m -19.26394,12.689948 c 0.19479,-0.9243 0.45567,-2.346755 0.45567,-3.3348 0,-1.082482 -0.13576,-2.12837 -0.36949,-3.135303 l 0.69765,0.0024 11.25687,0.04604 c 0.33172,1.544042 2.1331,4.646292 3.24863,6.346155 l -15.28933,0.07555 z m 15.49119,11.583858 c 0,0 2.32196,-0.200678 3.83649,-0.369484 3.82706,-0.428507 -2.12955,-0.602035 -3.43395,-1.241845 -1.71403,-0.842848 -3.38675,-2.705615 -3.06801,-6.365042 l 6.37684,-0.02007 c 1.4437,0.781464 3.153,1.214694 4.29687,1.499184 -0.70473,4.331109 2.12011,9.202868 10.89566,9.126138 0.34351,-0.004 1.18517,-0.007 1.51099,-0.0295 -2.5557,3.286404 -8.95144,13.999096 -8.15934,28.348766 -2.97595,0.2904 -6.04042,0.44267 -9.05886,0.44267 -2.91338,0 -5.77482,-0.12866 -8.44738,-0.36829 -4.50464,-0.37539 -10.75399,-2.42704 -12.82806,-3.56618 12.49281,-20.547102 18.07875,-27.456339 18.07875,-27.456339 z m -17.10369,31.473447 0.39546,-0.77911 c 3.07863,1.18283 7.46758,2.37746 11.2427,2.73514 2.75047,0.24671 5.67919,0.37774 8.66222,0.37774 1.79194,0 3.60159,-0.0519 5.40296,-0.14992 l -0.0413,0.21839 c -0.66343,5.23653 -3.11996,12.10444 -4.03246,14.53265 -8.02358,4.52824 -14.72033,5.67329 -19.47287,5.67565 -2.52618,0 -4.50346,-0.32227 -5.83856,-0.63863 -0.66932,-0.15937 -1.17456,-0.31637 -1.50509,-0.42969 -0.085,-0.0295 -0.15581,-0.0543 -0.21484,-0.0755 0.11451,-11.42331 2.79769,-15.97988 5.40179,-21.46667 z m -6.02507,23.80989 c 1.1722,0.40962 4.01474,1.21823 8.18177,1.21823 h 0.0283 c 5.09367,0 12.14221,-1.24184 20.40661,-5.85981 1.41656,1.73646 2.45772,4.00885 3.05149,5.51984 -1.82264,1.35753 -4.80093,3.69012 -7.79458,6.5303 -3.9994,3.84477 -8.12983,8.5064 -9.40473,13.30851 -5.1527,-4.55657 -10.10827,-8.1499 -16.09558,-12.63918 -0.14047,-1.23831 0.91368,-5.43485 1.62668,-8.07789 z m -12.27915,5.81141 c 22.28709,11.93681 46.38383,32.05539 57.19094,69.5055 1.74237,6.03569 3.32654,15.04614 4.31576,25.70689 -1.24419,0.4887 -1.86511,0.97506 -2.47424,1.67507 -0.92311,1.06123 -1.52397,3.22147 -1.04352,4.99806 0.31754,1.17338 0.96798,1.70813 0.96798,1.70813 0,0 -2.82367,1.04235 -2.84255,4.30396 -0.0118,2.11539 0.73543,3.30883 2.40931,4.26855 -0.8275,0.471 -1.53105,1.98081 -1.42599,3.20141 0.0708,0.88534 0.37657,1.79783 0.8641,2.38688 -2.37272,0.0614 -4.8576,0.12749 -7.44045,0.19714 -0.12749,-1.62431 -0.17588,-3.10461 -0.16762,-4.30514 0,-0.81924 0.0165,-1.50981 0.0366,-2.03983 0.0602,-1.66092 0.0921,-3.35133 0.0921,-5.06654 -0.007,-19.21553 -3.86954,-41.46249 -12.18825,-57.27712 -11.82468,-22.43229 -32.2372,-40.50631 -54.88196,-47.95738 2.0658,-1.49564 4.03244,-3.27105 5.61662,-5.58594 3.51778,0.88063 6.98243,2.14372 10.9712,4.28036 z m -10.69969,-17.9312 c 0.87826,17.25125 -11.43747,18.69023 -16.49812,23.44631 0.80626,-10.6277 10.27237,-18.8555 16.49812,-23.44631 z m -8.79207,-0.20067 c 0.14993,1.19698 0.0956,3.00427 -0.25498,4.78204 -0.84285,0.81923 -2.03157,1.99379 -2.84255,2.91927 -1.69868,-0.21366 -3.36903,-0.36122 -5.00987,-0.45211 1.91234,-4.00058 6.18207,-6.6342 8.1074,-7.2492 z m -33.16621,15.94093 c 5.59066,-4.23077 15.86067,-5.9932 27.42445,-4.91071 -1.04117,1.57237 -2.47897,4.37714 -3.21794,6.21158 -9.1096,-1.09076 -17.61719,0.65042 -24.44969,5.14799 -0.10034,-1.10847 -0.0885,-6.08765 0.24318,-6.44886 z m -24.10028,36.43962 c 7.66827,-10.1732 17.00335,-20.56125 23.45102,-26.09053 0.61621,-0.52766 1.21233,-1.00103 1.79312,-1.43544 0.23019,0.13458 1.11554,0.66578 2.47897,1.57828 4.01474,2.6702 11.97459,8.55598 18.11416,16.41429 -0.29039,0.73308 -0.46155,1.55704 -0.46509,2.48252 0.004,0.92312 0.1747,1.74354 0.46273,2.47543 -1.02464,1.65146 -2.07525,3.31236 -3.16481,4.97918 -8.22899,12.66633 -17.9666,25.64904 -24.71648,33.69269 -6.72863,-3.4434 -13.05353,-7.64465 -18.02563,-11.30054 -5.39235,-3.96517 -9.17572,-7.24567 -10.26646,-8.20775 3.1353,-4.73364 6.59522,-9.62074 10.33847,-14.58813 z m -11.67594,16.6327 c 2.69972,2.35974 13.93888,11.90848 27.20018,18.93576 -2.40106,0.72126 -4.47631,2.33614 -5.45373,4.84342 -4.20126,-2.40695 -8.19949,-5.05236 -11.709,-7.59508 -4.07258,-2.94878 -7.51244,-5.73821 -9.93238,-7.78867 -1.74236,-1.47676 -2.93345,-2.55216 -3.47056,-3.04441 1.06713,-1.75417 2.19212,-3.54138 3.36549,-5.35102 z m 21.45134,29.76884 c -1.86867,0.68232 -5.20466,2.46363 -7.62224,4.2107 l -1.71639,-2.4341 c 3.25217,-1.28553 7.26927,-1.96665 9.27133,-2.04219 z m -25.79189,15.44869 c -3.57562,7.70605 -12.37358,-7.00132 -12.12805,-9.17454 0.81098,-7.20081 5.11258,-17.19576 11.83884,-28.57776 2.77172,2.50021 13.30732,11.75266 25.81549,18.79646 -0.0213,0.26915 -0.0413,0.53947 -0.0413,0.82279 0,0.10624 0.0118,0.20304 0.0153,0.30692 -2.23461,0.1027 -6.51378,0.87353 -8.47569,1.40592 -12.44088,3.37494 -15.22913,12.55065 -17.02461,16.42021 z m 26.69494,-6.09472 c -1.50982,-0.60794 -3.68659,-1.24303 -4.81629,-1.08484 -1.53105,0.21602 8.15109,5.43484 3.15537,9.91468 -1.99852,1.79194 -14.16434,3.14357 -14.25524,-0.5194 -0.11686,-4.74899 8.61855,-11.75149 15.80992,-15.98461 1.14976,2.00324 3.08453,3.29348 5.25068,3.87309 -1.92179,1.59716 -4.56248,3.53548 -5.14444,3.80108 z m 1.2076,-12.03833 c 0.0165,-8.34113 13.29671,-8.34232 13.29789,0 -0.0189,8.34467 -13.28136,8.34586 -13.29789,0 z m -8.41314,67.89771 c 1.40711,-8.46626 5.84919,-20.37592 13.65556,-31.53835 -0.65042,7.02137 -1.44369,13.78069 -1.75887,20.63798 31.30934,5.56824 85.03917,-4.81391 110.38366,-10.46596 1.10727,5.39471 3.35368,11.22737 7.88665,15.33536 -2.97593,3.90496 -6.31192,7.74146 -9.05885,11.53075 -1.48265,2.04337 -3.81879,5.45844 -5.47025,9.24064 -12.06194,3.86365 -45.76291,13.56702 -80.38109,15.2598 -3.70311,0.17825 -7.44398,0.27859 -11.20374,0.27505 -14.16081,0.004 -28.59785,-1.41891 -42.2959,-4.99807 4.05016,-12.84931 11.10104,-20.08316 18.24283,-25.2772 z m -18.92395,27.59681 c 13.9731,3.65825 28.6356,5.0984 42.97702,5.0984 3.80344,0 7.58209,-0.10034 11.32061,-0.28094 36.18819,-1.77423 68.35692,-11.36312 79.22542,-14.91512 -0.80272,2.54507 -1.16393,5.14563 -0.63037,7.53016 -0.86882,1.12379 -2.14726,3.07745 -3.43515,5.13145 -13.08658,4.07142 -42.58627,12.14222 -75.27795,13.73938 -3.7031,0.17825 -7.4428,0.27859 -11.20375,0.27859 -15.10753,0 -30.54324,-1.58535 -45.04754,-5.72169 0.47809,-3.9935 1.18164,-7.59744 2.07171,-10.86023 z m -91.60019,80.75056 c 1.32094,-8.9467 1.8002,-17.61246 2.11657,-18.53322 3.13058,-9.12968 16.29035,-13.8645 26.29357,-53.53388 0.53357,-2.11538 0.88771,-3.53901 1.82853,-4.94258 1.95131,-2.91219 5.16806,-4.94495 8.89241,-7.359 5.72287,-3.709 9.49563,-4.24021 12.92722,-2.77289 2.54626,1.08838 5.57886,2.70442 10.33375,4.58845 5.35103,2.1201 14.78173,5.04529 24.14985,7.46287 -0.79681,5.46434 -1.27253,13.34156 -1.39648,18.16964 -2.49077,-1.3953 -7.57619,-4.57192 -9.11905,-5.0925 -4.18119,-1.41183 -9.57708,-0.28332 -10.98773,0.22074 -3.60748,1.28906 -7.64229,4.05135 -10.58872,7.77215 -0.81452,-0.3022 -3.13531,-1.07304 -4.80094,-2.33259 -0.9361,-0.70945 3.78338,-4.0962 4.40312,-4.75371 0.21012,-0.2231 -1.98317,0.13575 -4.43145,1.0813 -1.87929,0.72481 -3.94628,2.72096 -5.27902,4.25792 -6.13249,7.06742 -14.86907,25.11901 -16.35055,31.33886 -1.02228,3.49062 -1.05651,6.8514 -1.12262,8.55126 -2.9181,3.41625 -6.20096,7.9563 -9.77067,11.18132 -0.82868,0.10151 -3.14239,0.23255 -4.0537,-0.0272 -0.90778,-0.25734 -1.78958,-0.89243 -2.12955,-0.83577 -0.89007,0.31047 1.35989,1.58654 2.22871,1.88874 0.40135,0.1393 2.27829,0.30928 2.7847,0.38718 -0.13339,0.11333 -0.58196,0.42969 -0.71654,0.54656 -1.16629,0.99512 -1.61959,3.85302 -1.71403,7.25983 -1.46849,-0.0153 -2.31724,0.33053 -3.27695,0.73424 -0.76376,0.32227 -2.60882,1.17811 0.13457,1.07305 0.90541,-0.0354 1.95366,-0.14756 3.01844,0.0437 -0.26561,4.09974 0.26442,7.30705 0.65161,10.07877 -7.87603,5.79843 -15.37904,7.17839 -17.23472,7.40621 -1.38704,-3.93919 1.61133,-13.02048 3.20967,-23.85947 z m 52.02643,-50.86249 c -5.61545,8.49224 -13.13498,20.17997 -21.43126,31.15708 0.34824,-2.20747 1.2631,-4.44208 1.68452,-6.04987 1.2926,-4.93551 7.46759,-16.94433 11.39734,-22.61644 0.93493,-1.34572 3.60159,-5.11021 4.27917,-4.5731 0.72363,0.48163 2.12365,1.25365 4.07023,2.08233 z m -41.22522,96.46959 c -4.76551,-1.96666 -11.63461,-10.7658 -13.5989,-19.32768 1.28906,-0.26442 4.51998,-1.11199 6.98006,-2.08469 3.16364,-1.25011 6.92812,-3.16718 10.3491,-5.95543 0.50051,2.2476 5.56587,15.14294 5.9023,16.99863 -2.11538,3.53194 -4.91071,6.74279 -9.63256,10.36917 z m 33.56285,-21.85977 c 0.27977,-0.0307 1.47322,-0.314 1.90763,-0.42732 3.94746,2.11538 17.7919,18.54739 6.79945,41.19334 -9.29259,-1.58654 -18.34554,-5.19402 -23.37666,-12.1977 4.33701,-2.07407 8.48397,-5.58476 10.56394,-8.84519 4.58609,-7.19136 4.6038,-15.84886 4.10564,-19.72313 z m 113.91089,-15.73082 c 4.32638,-10.35146 4.24848,-10.53088 8.26322,-13.81138 2.1083,-1.72347 0.18296,-2.59466 -5.45018,1.36933 -3.56145,2.50612 -8.5489,21.41709 -12.51761,20.82805 -3.23328,-0.47928 -13.82673,-8.94672 -34.01969,-13.77598 -11.02078,-2.63478 -33.42237,-23.95744 -40.60901,-28.39007 -0.95972,-0.59141 -4.03482,-1.97491 -8.50522,0.47927 -3.80817,2.09059 -16.82864,15.64936 -22.93162,24.93368 -0.99631,1.51571 -2.51084,3.29585 -1.94776,6.10535 0.58314,2.91337 1.85686,6.51141 2.01268,7.79103 0.17353,1.43072 0,4.61088 -7.31413,5.0748 -5.03821,0.31872 -5.46317,0.91603 -0.95381,1.7034 2.32787,0.40609 4.66754,-0.40489 4.8269,2.50612 0.10034,1.82381 -5.98257,9.13323 -3.18842,7.08158 0.91131,-0.66932 2.89685,-4.03127 6.14429,-5.54462 0.6162,4.93904 0.27269,19.64404 -13.93061,25.5369 -1.72111,-2.55806 -2.57104,-9.22884 -3.24981,-11.78926 -2.02449,-7.6364 -4.45623,-13.27781 -7.17129,-21.75352 -1.41538,-4.42083 -0.62801,-16.40486 0.47218,-17.5322 33.44362,-34.24869 34.0551,-50.72674 47.14287,-56.8132 3.36431,-1.5641 8.33641,-1.23003 10.37624,-0.3022 1.85923,0.8464 6.30956,3.97343 9.33154,5.5222 23.51713,12.0466 46.14184,10.43291 50.79049,13.68508 5.24714,3.66769 7.73319,8.53237 9.27016,10.0469 4.27563,4.21896 -4.34055,-11.58858 -7.69543,-13.10547 -7.20081,-3.25453 -26.944,-2.95233 -48.60192,-12.92486 -0.0685,-4.49519 0.0968,-8.60674 0.45094,-12.39602 14.66486,4.12807 30.16903,5.70752 45.30607,5.70752 3.80344,0 7.5821,-0.10034 11.3218,-0.28094 30.96701,-1.51926 58.98406,-8.75784 73.2393,-13.04055 -1.57001,2.58521 -2.81185,4.71004 -2.81185,4.71004 -3.07392,5.9991 -5.34041,13.25539 -7.52308,21.2589 -3.8542,0.46865 -12.24019,2.6041 -16.58074,7.48294 -1.80611,7.41448 0.68466,14.68258 1.68097,17.42007 l -26.52376,35.81161 c -1.9218,-0.73778 -6.82779,-3.11523 -9.10371,-3.5945 z m 32.63854,-24.08848 -23.28222,40.8947 c -0.13929,-0.157 -1.11907,-1.22532 -1.26782,-1.3717 -0.86645,-0.8582 -1.88401,-1.56056 -3.01017,-2.0658 z m -48.85689,54.15599 c 2.94761,-0.81807 6.58579,-1.184 7.21734,-1.25128 -0.78619,0.93964 -3.48826,4.83633 -5.82675,8.98447 -0.33526,0.5926 -0.66342,1.18991 -0.98333,1.78132 -0.9007,-1.53696 -1.54287,-3.2203 -1.8852,-4.96974 -0.0496,-0.25379 -0.3742,-2.92636 -0.34351,-3.99586 0.59495,-0.19242 1.20289,-0.37775 1.82145,-0.54891 z m -25.28192,20.15282 c 1.53577,-3.55555 3.59096,-6.54447 5.94362,-9.06122 0.19477,2.71507 0.98568,5.37701 2.31724,7.74619 -2.73985,0.34469 -5.56587,0.77556 -8.26086,1.31503 z m 10.90038,-1.62314 c -1.11909,-1.70222 -1.89228,-3.61811 -2.28302,-5.61544 -0.26443,-1.35281 -0.38719,-2.77526 -0.26324,-4.15522 1.63021,-1.42836 3.35605,-2.66784 5.1173,-3.74915 0,0.0626 -0.004,0.12749 -0.004,0.19006 0,4.49755 1.2926,8.97032 3.70547,12.75842 -1.88874,0.14047 -4.02183,0.32699 -6.27296,0.57133 z m 10.72919,-0.92075 -1.66208,0.15817 c -0.36123,-0.49107 -0.71418,-0.98921 -1.03055,-1.51099 -1.28315,-2.11655 -2.16732,-4.46449 -2.64186,-6.89269 -0.34824,-1.78723 -0.50878,-3.64881 -0.36005,-5.4679 0.0106,-0.12749 0.009,-0.21602 10e-4,-0.28803 0.1511,-0.0791 0.3022,-0.16291 0.4533,-0.23963 0.5619,-0.28686 2.35974,-1.12263 4.68642,-1.99026 0,0.005 0,0.009 0,0.0142 0.004,3.76095 1.15687,7.49947 3.32064,10.57693 -1.61959,3.14593 -2.767,5.64024 -2.767,5.64024 z m 20.98387,7.4794 c 0,0 -11.91793,-2.78472 -18.21333,-4.18356 2.43648,-7.67535 8.69292,-17.04467 11.47881,-20.64035 1.77068,1.50627 4.06077,2.41758 6.56926,2.41758 0.54418,0 1.43071,-0.10741 2.28065,-0.23963 0.29865,10.53561 -2.11539,22.64596 -2.11539,22.64596 z m -0.15936,-25.78245 c -3.73616,0 -6.76287,-3.02669 -6.76287,-6.75695 0,-3.72907 3.02671,-6.75695 6.76287,-6.75695 3.7338,0 6.76049,3.02788 6.76049,6.75695 0,3.73026 -3.02669,6.75695 -6.76049,6.75695 z m 22.96939,26.91569 c -4.96619,-0.40608 -14.38509,-3.17072 -18.46947,-5.17278 0.1747,-1.3717 0.5253,-4.1198 0.6764,-5.57649 l 17.67975,-4.97093 c -0.14165,5.31326 0.36712,13.20345 0.11332,15.7202 z M 356.00579,451.2663 c 0.0803,-0.89951 0.15464,-1.79548 0.2172,-2.67846 l 38.12651,-7.189 z m 157.49112,51.54953 c 6.08173,21.88928 8.49931,46.2162 -3.79518,65.7658 -22.83365,-34.65595 -34.2428,-85.76752 -34.2428,-85.76752 0,0 -9.71282,-0.046 -10.26765,-0.0791 8.08144,39.59028 31.03431,78.44395 34.88969,95.78727 -37.30137,-7.47586 -56.77424,-55.95972 -62.57502,-82.85887 -1.1061,-5.13028 -1.87222,-9.23239 -2.01269,-12.35824 0,-0.0885 -8.41432,0.0826 -9.89698,0.13811 9.32565,49.22874 29.61539,73.33375 34.45056,90.86122 -53.68969,-9.67033 -73.28298,-97.4588 -76.47613,-128.02683 l 27.75026,-7.75563 c 0.40844,1.43781 3.00427,9.70575 10.48486,16.62207 2.27356,-7.7757 1.22295,-13.45253 1.22295,-13.45253 0,0 9.00691,-3.14592 15.47583,-10.0469 -8.74248,-3.05857 -18.21686,-2.06817 -18.21686,-2.06817 0,0 -3.2923,-6.60939 -8.01297,-11.23916 -2.68672,8.54182 -1.53341,17.20403 -1.36106,18.35144 l -27.88956,4.59199 c -0.13221,-0.5855 -0.18887,-1.75652 -0.24672,-2.34793 6.10416,-6.99424 15.20551,-16.68935 16.07433,-17.12494 20.60021,-6.4099 22.208,-25.29963 21.27426,-38.62585 2.73749,-5.16333 7.34955,-10.49665 10.94641,-14.86554 1.46614,-1.78131 6.01799,-5.28019 10.71976,-8.52528 4.98862,0.89716 11.0975,1.31622 16.131,1.11789 l 16.18528,88.33504 0.0177,0.0944 0.0224,0.0956 c 0.18887,0.78736 4.73128,19.42211 14.64243,30.52316 l 3.45638,3.87073 2.4471,-4.57664 c 2.78942,-5.21881 3.86837,-12.32165 4.18709,-18.75752 2.41995,6.23992 11.18369,29.14557 14.61529,42.32187 z m -92.94592,-52.65208 c -3.65942,-3.57443 -6.13249,-11.35011 -6.45948,-12.41843 l 5.848,-1.64675 -0.23373,-0.84403 -5.98375,0.97742 c -0.0814,-0.43913 -1.32684,-7.20435 -0.31046,-12.18824 1.39649,0.78618 5.47733,8.3364 5.47733,8.3364 0,0 9.10136,-1.48148 14.74986,0.42969 -4.89774,4.45388 -13.58238,7.12526 -13.58238,7.12526 0,0 0.84521,4.46331 0.49461,10.22868 z m 87.39421,4.92371 c -1.20171,0.0448 -3.26397,-0.0874 -4.73364,0.10033 -0.81452,0.57253 -2.16025,1.54876 -2.16025,1.54876 0,0 -1.17456,-1.63965 -2.09296,-3.57443 -0.0283,-1.12616 -0.0732,-2.17795 -0.12512,-3.13766 3.10224,0.17235 6.36504,-0.0732 9.33861,-0.95618 -0.0567,2.7611 -0.19949,4.93551 -0.22664,6.01918 z m 23.42033,135.30909 c 12.80209,-1.50863 17.22528,-4.91072 27.91904,-20.63092 14.4028,-21.17037 19.0054,-28.2366 16.2833,-35.43859 -1.308,-3.46347 -6.0676,-9.11198 -10.0174,-13.89166 16.4285,7.48058 32.4367,14.06636 32.0472,21.78539 -0.054,1.04471 -0.5549,2.82485 -0.8807,4.20126 -8.7944,11.70073 -23.3566,27.88602 -32.7648,47.62686 -4.0136,0.73424 -7.16306,0.81215 -10.32434,1.77777 -2.91574,-0.76967 -4.30514,-2.21455 -4.30514,-2.21455 0,0 -1.51453,-1.16866 -0.69882,0.93257 0.38364,0.97861 1.19579,1.74708 1.95601,2.29718 -6.28241,2.29363 -10.39986,4.96266 -13.52335,9.29376 -5.64024,-0.55363 -15.46167,-2.61944 -20.70055,-9.56999 3.78455,-3.19433 8.18295,-5.3652 15.00955,-6.16908 z m 63.51464,-35.4209 c -3.7467,10.89801 -10.813,26.64771 -18.5603,34.82122 -2.6419,2.62652 -4.9072,3.12113 -7.8324,3.48944 7.4912,-15.49354 21.1137,-31.56669 26.3927,-38.31066 z m -87.38827,61.38394 c -0.5371,-2.39869 1.31032,-11.33124 6.85021,-17.82849 6.84903,7.80756 17.31499,8.96795 21.78068,9.18397 -2.38335,3.42689 -4.41139,7.81466 -5.7642,12.87647 -6.69911,2.31724 -22.26584,-1.55939 -22.86669,-4.23195 z m 47.4486,14.45709 c -2.88622,0.38365 -22.86079,-0.96443 -22.61762,-4.28271 0.4533,-6.19505 2.61827,-13.29552 8.10858,-19.23796 11.53901,8.41315 27.22971,11.81641 35.30401,9.82615 -1.1757,4.85406 -4.8505,11.57678 -20.79497,13.69452 z m 42.75747,-154.42427 c -1.4956,1.76714 -3.3124,5.52337 1.2843,9.29258 6.3485,5.20819 33.9217,25.19338 35.9592,26.71145 1.1014,0.81688 1.7979,3.24627 0.9314,4.86823 -4.2709,8.00824 -12.3996,20.07372 -19.768,35.36776 -6.2021,12.8682 -12.0242,28.01941 -14.404,44.96256 -0.4296,3.06093 0.1393,7.8418 -0.798,9.35279 -2.1271,3.42687 -16.5004,-1.2265 -22.4263,-6.23756 -1.1958,-1.00929 -1.2844,-0.43794 -0.8559,0.0933 1.171,1.45433 2.7163,3.57916 2.5026,5.19403 -0.1358,1.02936 -0.9503,1.77187 -2.911,1.69514 -1.6432,-0.0661 -4.1281,-1.35162 -4.9934,-1.71403 -3.8719,-1.62431 -4.1788,-0.86764 -2.3609,-0.16998 2.3609,0.90659 6.3662,4.64038 6.031,9.5452 -13.3321,2.07996 -30.00496,-6.95882 -33.29136,-10.17557 1.47794,-1.57592 3.36432,-2.56514 4.67227,-3.20142 9.97488,-4.85994 17.12139,-3.03614 28.26379,-6.86319 5.0063,-1.71993 22.9446,-30.36734 24.7176,-51.65695 1.6314,-19.56377 -52.92237,-22.75808 -76.14793,-62.80521 -23.61511,-17.67857 -3.27342,-42.45526 -19.68182,-57.58521 -2.00323,-1.84861 -3.00191,-1.19817 -1.84978,0.20422 4.6947,5.71461 5.59185,15.80636 5.62254,23.24916 -2.00089,0.65752 -4.12336,0.95736 -6.21749,1.05179 -1.10018,0.0496 -2.20392,0.0248 -3.30647,-0.0319 -0.14047,-1.79548 -0.27741,-2.94761 -0.3022,-3.14475 l -7.2976,-58.47291 c 0.29393,-4.40312 0.80389,-9.24774 1.4555,-14.1006 6.32491,4.81981 15.54902,11.63225 26.05158,18.70203 -1.71284,4.51526 -3.62873,9.18989 -5.7937,14.02268 -2.17087,4.84815 -1.51453,10.85198 -0.31636,15.98934 4.77024,-1.25836 10.12717,-5.3652 12.38775,-10.40576 1.87222,-4.17293 3.55791,-8.23135 5.10667,-12.19179 5.34512,3.35841 10.85079,6.63536 16.34348,9.64317 4.32639,2.36093 8.53709,4.53651 12.64513,6.51615 -1.36465,3.44577 -2.84141,6.97416 -4.46336,10.59581 -2.17087,4.84697 -1.51453,10.85197 -0.31637,15.98816 4.77023,-1.25837 10.12713,-5.3652 12.38773,-10.40459 1.6503,-3.68067 3.1566,-7.27163 4.5566,-10.78822 13.2046,5.29201 25.3823,8.19712 37.0311,8.22308 h 0.097 c 7.2338,10e-4 14.2221,-1.19225 20.8823,-3.61338 -0.824,4.11508 -1.7494,7.07332 -1.8545,7.3885 -7.0721,21.10545 -20.9142,34.66776 -29.5729,44.9059 z m 17.0966,-15.05324 c 10.2346,-13.35927 16.9986,-26.80353 19.016,-42.66655 7.2327,-7.72967 18.7941,-17.20167 30.5681,-24.42964 1.0954,8.96207 -7.529,19.4717 -17.9997,30.4488 -9.302,9.75297 -20.0301,19.91554 -24.3293,31.94562 -2.9665,8.30218 -2.8874,20.07019 2.8685,28.05482 -5.4454,-4.17765 -9.7588,-12.41371 -10.1236,-23.35305 z m 44.6273,16.94198 c -3.1731,2.03983 -6.1089,4.24021 -7.8548,5.34984 -5.462,3.47409 -10.486,5.14562 -15.3944,5.02875 -4.7383,-5.59301 -5.4442,-10.62295 -4.0301,-14.11122 1.4131,-3.48826 5.6001,-6.90097 11.068,-9.32091 -3.2887,7.90201 2.3858,16.98211 16.2113,13.05354 z m 55.5702,-70.4735 c -11.6677,20.83396 -36.4585,39.97512 -55.1322,46.50188 -14.4253,5.04293 -25.1486,8.77555 -29.482,15.35071 -3.0079,4.56366 -3.6677,12.94611 2.7445,18.69022 -2.0634,-0.3742 -4.0159,-1.08601 -5.8326,-2.10003 -12.7691,-23.05794 1.6444,-41.18508 20.3381,-59.44445 17.3197,-16.91718 30.064,-35.07029 10.2405,-46.38618 6.9376,-4.55895 16.5654,-8.69173 22.7959,-6.97299 12.8186,3.53903 13.2152,21.47966 4.9686,31.66231 -6.4336,7.94215 -16.9692,16.68581 -33.4106,24.19354 0,0 19.6653,-2.4707 38.3543,-16.17821 11.3525,-8.32697 18.9547,-20.53175 12.6711,-36.79376 -0.5548,-1.28788 -1.6125,-3.28995 -1.4921,-2.72805 1.2395,6.82896 6.5456,22.36264 -10.5274,35.85295 -12.239,9.67033 -22.2953,13.07122 -22.2953,13.07122 0,0 0.7826,-0.36003 1.8521,-0.86055 4.6026,-2.5734 13.7465,-10.09058 18.0717,-16.08613 12.2638,-17.01043 4.8163,-36.38179 -12.3937,-35.63101 -6.6578,0.28921 -12.0206,2.0658 -22.1348,8.77907 -13.5351,8.98331 -22.3331,2.87325 -33.296,-4.78558 3.1211,5.15035 7.2503,20.07491 9.1013,33.26065 0.085,0.60676 0.1499,1.22414 0.1995,1.84742 -6.9753,3.63582 -14.136,5.35221 -22.1867,5.36401 -9.413,0.0283 -20.1446,-2.47188 -32.4155,-7.40975 2.407,-7.07804 4.3276,-13.73819 5.8421,-19.90138 4.0738,-16.58074 6.3403,-30.74745 7.2941,-39.35419 0.2762,0.20895 0.4202,0.32228 0.4202,0.32228 12.5153,8.71651 21.7819,16.6433 29.8019,17.10722 18.6466,1.0813 31.5797,-18.94285 58.1046,-23.50296 18.1036,-3.10934 30.9399,1.812 37.1007,10.96529 10.7233,15.93386 8.0756,41.99252 0.6977,55.16645 z M 276.99049,224.32163 c -0.40017,0.25497 -1.27962,1.1415 -1.17102,1.62431 1.32802,-1.17574 3.10816,-1.43427 3.92976,-1.41183 0.51468,0.0142 1.16866,0.53356 1.09311,1.52516 -0.34706,-0.20069 -0.95264,-0.23256 -1.4744,-0.1275 -2.1083,0.42378 -5.06063,2.22517 -6.21158,4.01121 -0.8216,1.27726 -1.09665,3.55554 0.30337,4.56366 1.16276,0.83813 4.25675,0.99394 7.06506,-2.87325 2.38571,-3.28876 3.17543,-6.63536 1.55349,-8.00116 -1.14741,-0.96443 -2.92991,-0.68349 -5.08779,0.6894 z m 1.03054,7.4546 c -1.11789,1.04234 -2.368,1.27962 -2.87088,0.71181 -0.93964,-1.06005 0.20304,-2.9476 1.91943,-4.03481 1.42836,-0.90541 3.11051,-1.38704 3.3407,-0.97152 0.5501,0.99395 -1.32683,3.3053 -2.38925,4.29452 z m 130.58135,60.62372 c -20.87055,-10.59699 -52.69812,-3.60985 -69.95172,4.89065 27.39731,-7.68362 51.53063,-9.54757 69.95172,-4.89065 z m 161.09509,184.78809 c 25.0942,-0.43559 26.2735,-16.20182 36.8126,-24.81092 -8.4273,-0.25144 -11.7184,19.83173 -36.8126,24.81092 z M 320.69704,395.59343 c -8.64216,-1.68215 -12.91306,-1.00929 -28.68992,-12.33344 -3.15418,-2.26531 -7.6057,-4.61206 -8.24314,-4.70178 -3.82471,-0.52766 3.30646,3.22148 16.17938,12.96028 4.906,3.71255 17.60421,6.05458 18.88736,6.28948 1.28317,0.23256 3.9758,-1.80373 1.86632,-2.21454 z m 295.71943,121.46229 c 8.0768,1.60189 7.7864,4.68761 9.2997,5.85391 0.5808,-0.46511 0.089,-5.88342 -7.052,-7.97874 -3.8177,-6.49371 -10.3763,-11.70662 -16.2054,-15.08864 0,1.51689 12.5022,11.09869 13.9577,17.21347 z M 310.89332,182.44833 c 0.21248,-0.63509 0.45329,-2.13426 0.857,-2.18031 0.27151,-0.0307 1.76243,1.65736 4.77379,1.65736 3.01135,0 4.47513,-1.16156 5.12555,-1.76241 0.82396,-0.76022 1.583,-2.05401 1.73174,-3.17545 0.86292,0.13576 2.55452,0.026 3.38084,-0.11332 2.29127,-0.38601 3.28995,-1.65618 2.64541,-1.55939 -0.10506,0.0154 -0.37067,0.006 -0.93492,-0.004 -1.16866,-0.0189 -3.16836,-0.098 -4.45387,-0.41552 -1.23713,-0.30455 -2.3869,-1.24656 -3.62638,-1.65972 -1.46023,-0.48517 -3.3171,-0.66932 -4.52589,-0.46983 0.53593,-1.08956 1.86985,-2.94406 2.12838,-3.42569 0.26442,-0.49107 1.10963,-2.06934 -0.46747,-0.80625 -0.94909,0.75785 -2.29482,1.98317 -3.89906,3.57089 -1.60542,1.58889 -2.53917,2.61118 -3.21321,4.17883 -0.1511,0.63863 -0.0944,1.61605 -0.16054,3.14238 -0.0791,1.75653 -0.26797,4.04308 -0.21957,4.08203 0.15936,0.12986 0.72244,-0.65161 0.8582,-1.06005 z m 6.27414,-7.36371 c 1.92769,-0.12277 3.52839,0.74487 3.62401,2.00088 0.0933,1.25483 -1.35635,2.59938 -3.2864,2.72214 -1.92769,0.12277 -3.56381,-0.9727 -3.65943,-2.22871 -0.0944,-1.25483 1.39177,-2.37272 3.32182,-2.49431 z"
       id="path14"
       style="fill:#ff5555" />
    <g
       id="g219"
       transform="matrix(0.20693452,0,0,0.20296457,421.05836,163.73431)">
      <path
         fill="#61dafb"
         d="m 666.3,296.5 c 0,-32.5 -40.7,-63.3 -103.1,-82.4 14.4,-63.6 8,-114.2 -20.2,-130.4 -6.5,-3.8 -14.1,-5.6 -22.4,-5.6 v 22.3 c 4.6,0 8.3,0.9 11.4,2.6 13.6,7.8 19.5,37.5 14.9,75.7 -1.1,9.4 -2.9,19.3 -5.1,29.4 -19.6,-4.8 -41,-8.5 -63.5,-10.9 -13.5,-18.5 -27.5,-35.3 -41.6,-50 32.6,-30.3 63.2,-46.9 84,-46.9 V 78 c 0,0 0,0 0,0 -27.5,0 -63.5,19.6 -99.9,53.6 C 384.4,97.8 348.4,78.4 320.9,78.4 v 22.3 c 20.7,0 51.4,16.5 84,46.6 -14,14.7 -28,31.4 -41.3,49.9 -22.6,2.4 -44,6.1 -63.6,11 -2.3,-10 -4,-19.7 -5.2,-29 -4.7,-38.2 1.1,-67.9 14.6,-75.8 3,-1.8 6.9,-2.6 11.5,-2.6 V 78.5 c 0,0 0,0 0,0 -8.4,0 -16,1.8 -22.6,5.6 -28.1,16.2 -34.4,66.7 -19.9,130.1 -62.2,19.2 -102.7,49.9 -102.7,82.3 0,32.5 40.7,63.3 103.1,82.4 -14.4,63.6 -8,114.2 20.2,130.4 6.5,3.8 14.1,5.6 22.5,5.6 27.5,0 63.5,-19.6 99.9,-53.6 36.4,33.8 72.4,53.2 99.9,53.2 8.4,0 16,-1.8 22.6,-5.6 28.1,-16.2 34.4,-66.7 19.9,-130.1 62,-19.1 102.5,-49.9 102.5,-82.3 z M 536.1,229.8 c -3.7,12.9 -8.3,26.2 -13.5,39.5 -4.1,-8 -8.4,-16 -13.1,-24 -4.6,-8 -9.5,-15.8 -14.4,-23.4 14.2,2.1 27.9,4.7 41,7.9 z m -45.8,106.5 c -7.8,13.5 -15.8,26.3 -24.1,38.2 -14.9,1.3 -30,2 -45.2,2 -15.1,0 -30.2,-0.7 -45,-1.9 -8.3,-11.9 -16.4,-24.6 -24.2,-38 -7.6,-13.1 -14.5,-26.4 -20.8,-39.8 6.2,-13.4 13.2,-26.8 20.7,-39.9 7.8,-13.5 15.8,-26.3 24.1,-38.2 14.9,-1.3 30,-2 45.2,-2 15.1,0 30.2,0.7 45,1.9 8.3,11.9 16.4,24.6 24.2,38 7.6,13.1 14.5,26.4 20.8,39.8 -6.3,13.4 -13.2,26.8 -20.7,39.9 z m 32.3,-13 c 5.4,13.4 10,26.8 13.8,39.8 -13.1,3.2 -26.9,5.9 -41.2,8 4.9,-7.7 9.8,-15.6 14.4,-23.7 4.6,-8 8.9,-16.1 13,-24.1 z M 421.2,430 c -9.3,-9.6 -18.6,-20.3 -27.8,-32 9,0.4 18.2,0.7 27.5,0.7 9.4,0 18.7,-0.2 27.8,-0.7 -9,11.7 -18.3,22.4 -27.5,32 z m -74.4,-58.9 c -14.2,-2.1 -27.9,-4.7 -41,-7.9 3.7,-12.9 8.3,-26.2 13.5,-39.5 4.1,8 8.4,16 13.1,24 4.7,8 9.5,15.8 14.4,23.4 z M 420.7,163 c 9.3,9.6 18.6,20.3 27.8,32 -9,-0.4 -18.2,-0.7 -27.5,-0.7 -9.4,0 -18.7,0.2 -27.8,0.7 9,-11.7 18.3,-22.4 27.5,-32 z m -74,58.9 c -4.9,7.7 -9.8,15.6 -14.4,23.7 -4.6,8 -8.9,16 -13,24 -5.4,-13.4 -10,-26.8 -13.8,-39.8 13.1,-3.1 26.9,-5.8 41.2,-7.9 z m -90.5,125.2 c -35.4,-15.1 -58.3,-34.9 -58.3,-50.6 0,-15.7 22.9,-35.6 58.3,-50.6 8.6,-3.7 18,-7 27.7,-10.1 5.7,19.6 13.2,40 22.5,60.9 -9.2,20.8 -16.6,41.1 -22.2,60.6 -9.9,-3.1 -19.3,-6.5 -28,-10.2 z M 310,490 c -13.6,-7.8 -19.5,-37.5 -14.9,-75.7 1.1,-9.4 2.9,-19.3 5.1,-29.4 19.6,4.8 41,8.5 63.5,10.9 13.5,18.5 27.5,35.3 41.6,50 -32.6,30.3 -63.2,46.9 -84,46.9 -4.5,-0.1 -8.3,-1 -11.3,-2.7 z m 237.2,-76.2 c 4.7,38.2 -1.1,67.9 -14.6,75.8 -3,1.8 -6.9,2.6 -11.5,2.6 -20.7,0 -51.4,-16.5 -84,-46.6 14,-14.7 28,-31.4 41.3,-49.9 22.6,-2.4 44,-6.1 63.6,-11 2.3,10.1 4.1,19.8 5.2,29.1 z m 38.5,-66.7 c -8.6,3.7 -18,7 -27.7,10.1 -5.7,-19.6 -13.2,-40 -22.5,-60.9 9.2,-20.8 16.6,-41.1 22.2,-60.6 9.9,3.1 19.3,6.5 28.1,10.2 35.4,15.1 58.3,34.9 58.3,50.6 -0.1,15.7 -23,35.6 -58.4,50.6 z"
         id="path211" />
      <polygon
         fill="#61dafb"
         points=""
         id="polygon213" />
      <circle
         fill="#61dafb"
         cx="420.89999"
         cy="296.5"
         r="45.700001"
         id="circle215" />
      <polygon
         fill="#61dafb"
         points=""
         id="polygon217" />
    </g>
    <g
       aria-label="{     }"
       id="text341"
       style="font-style:normal;font-variant:normal;font-weight:normal;font-stretch:normal;font-size:328.452px;line-height:1.25;font-family:sans-serif;-inkscape-font-specification:sans-serif;fill:#ff8080;fill-opacity:1;stroke:none;stroke-width:1.75957">
      <path
         d="m 141.08418,523.29056 v 23.09428 h -9.94337 q -39.933864,0 -53.565905,-11.86789 -13.471664,-11.8679 -13.471664,-47.3112 v -38.3301 q 0,-24.21692 -8.660355,-33.51878 -8.660356,-9.30186 -31.433883,-9.30186 H 14.226009 V 383.1211 h 9.782994 q 22.933904,0 31.433883,-9.14148 8.660355,-9.30186 8.660355,-33.19803 v -38.49047 q 0,-35.4433 13.471664,-47.15082 13.632041,-11.8679 53.565905,-11.8679 h 9.94337 v 22.93391 h -10.90563 q -22.61316,0 -29.50936,7.05658 -6.896213,7.05659 -6.896213,29.66974 v 39.77348 q 0,25.17918 -7.37734,36.56595 -7.216962,11.38676 -24.858427,15.39619 17.801842,4.33017 25.018804,15.71694 7.216963,11.38676 7.216963,36.40556 v 39.77349 q 0,22.61315 6.896213,29.66973 6.8962,7.05659 29.50936,7.05659 z"
         style="font-style:normal;font-variant:normal;font-weight:normal;font-stretch:normal;font-size:328.452px;font-family:sans-serif;-inkscape-font-specification:sans-serif;fill:#ff8080;stroke-width:1.75957"
         id="path361" />
      <path
         d="m 745.22418,523.29056 h 11.22638 q 22.45278,0 29.18861,-6.89621 6.89621,-6.89621 6.89621,-29.83011 v -39.77349 q 0,-25.0188 7.21696,-36.40556 7.21696,-11.38677 25.01881,-15.71694 -17.80185,-4.00943 -25.01881,-15.39619 -7.21696,-11.38677 -7.21696,-36.56595 v -39.77348 q 0,-22.77353 -6.89621,-29.66974 -6.73583,-7.05658 -29.18861,-7.05658 H 745.22418 V 243.2724 h 10.10375 q 39.93386,0 53.24514,11.8679 13.47167,11.70752 13.47167,47.15082 v 38.49047 q 0,23.89617 8.66035,33.19803 8.66036,9.14148 31.43389,9.14148 h 9.94337 v 22.93391 h -9.94337 q -22.77353,0 -31.43389,9.30186 -8.66035,9.30186 -8.66035,33.51878 v 38.3301 q 0,35.4433 -13.47167,47.3112 -13.31128,11.86789 -53.24514,11.86789 h -10.10375 z"
         style="font-style:normal;font-variant:normal;font-weight:normal;font-stretch:normal;font-size:328.452px;font-family:sans-serif;-inkscape-font-specification:sans-serif;fill:#ff8080;stroke-width:1.75957"
         id="path363" />
    </g>
  </g>
  <g
     inkscape:groupmode="layer"
     id="layer1"
     inkscape:label="react"
     transform="translate(-2.0037655,-0.39668257)" />
</svg>
