<?xml version="1.0" encoding="UTF-8" standalone="no"?>
<svg
   xmlns:dc="http://purl.org/dc/elements/1.1/"
   xmlns:cc="http://creativecommons.org/ns#"
   xmlns:rdf="http://www.w3.org/1999/02/22-rdf-syntax-ns#"
   xmlns:svg="http://www.w3.org/2000/svg"
   xmlns="http://www.w3.org/2000/svg"
   xmlns:sodipodi="http://sodipodi.sourceforge.net/DTD/sodipodi-0.dtd"
   xmlns:inkscape="http://www.inkscape.org/namespaces/inkscape"
   sodipodi:docname="logo.svg"
   inkscape:version="1.0.1 (3bc2e813f5, 2020-09-07)"
   version="1.1"
   id="svg2"
   height="52.916664mm"
   width="103.3529mm"
   viewBox="0 0 2.3437509 1.1999999">
  <metadata
     id="metadata12">
    <rdf:RDF>
      <cc:Work
         rdf:about="">
        <dc:format>image/svg+xml</dc:format>
        <dc:type
           rdf:resource="http://purl.org/dc/dcmitype/StillImage" />
        <dc:title />
      </cc:Work>
    </rdf:RDF>
  </metadata>
  <defs
     id="defs10" />
  <sodipodi:namedview
     inkscape:document-rotation="0"
     inkscape:current-layer="g219"
     inkscape:window-maximized="0"
     inkscape:window-y="152"
     inkscape:window-x="149"
     inkscape:cy="100.31517"
     inkscape:cx="106.42012"
     inkscape:zoom="0.97470286"
     showgrid="false"
     id="namedview8"
     inkscape:window-height="752"
     inkscape:window-width="1458"
     inkscape:pageshadow="2"
     inkscape:pageopacity="0"
     guidetolerance="10"
     gridtolerance="10"
     objecttolerance="10"
     borderopacity="1"
     bordercolor="#666666"
     pagecolor="#ffffff"
     showguides="false"
     inkscape:lockguides="false"
     units="mm"
     fit-margin-top="0"
     fit-margin-left="0"
     fit-margin-right="0"
     fit-margin-bottom="0" />
  <g
     transform="matrix(0.00340993,0,0,0.00340993,-0.25695208,-0.69610363)"
     id="g3351">
    <g
       id="g219"
       transform="matrix(0.76798776,0,0,0.80547809,95.171979,141.31286)"
       style="fill:#ff8080">
      <path
         fill="#61dafb"
         d="m 666.3,296.5 c 0,-32.5 -40.7,-63.3 -103.1,-82.4 14.4,-63.6 8,-114.2 -20.2,-130.4 -6.5,-3.8 -14.1,-5.6 -22.4,-5.6 v 22.3 c 4.6,0 8.3,0.9 11.4,2.6 13.6,7.8 19.5,37.5 14.9,75.7 -1.1,9.4 -2.9,19.3 -5.1,29.4 -19.6,-4.8 -41,-8.5 -63.5,-10.9 -13.5,-18.5 -27.5,-35.3 -41.6,-50 32.6,-30.3 63.2,-46.9 84,-46.9 V 78 c 0,0 0,0 0,0 -27.5,0 -63.5,19.6 -99.9,53.6 C 384.4,97.8 348.4,78.4 320.9,78.4 v 22.3 c 20.7,0 51.4,16.5 84,46.6 -14,14.7 -28,31.4 -41.3,49.9 -22.6,2.4 -44,6.1 -63.6,11 -2.3,-10 -4,-19.7 -5.2,-29 -4.7,-38.2 1.1,-67.9 14.6,-75.8 3,-1.8 6.9,-2.6 11.5,-2.6 V 78.5 c 0,0 0,0 0,0 -8.4,0 -16,1.8 -22.6,5.6 -28.1,16.2 -34.4,66.7 -19.9,130.1 -62.2,19.2 -102.7,49.9 -102.7,82.3 0,32.5 40.7,63.3 103.1,82.4 -14.4,63.6 -8,114.2 20.2,130.4 6.5,3.8 14.1,5.6 22.5,5.6 27.5,0 63.5,-19.6 99.9,-53.6 36.4,33.8 72.4,53.2 99.9,53.2 8.4,0 16,-1.8 22.6,-5.6 28.1,-16.2 34.4,-66.7 19.9,-130.1 62,-19.1 102.5,-49.9 102.5,-82.3 z M 536.1,229.8 c -3.7,12.9 -8.3,26.2 -13.5,39.5 -4.1,-8 -8.4,-16 -13.1,-24 -4.6,-8 -9.5,-15.8 -14.4,-23.4 14.2,2.1 27.9,4.7 41,7.9 z m -45.8,106.5 c -7.8,13.5 -15.8,26.3 -24.1,38.2 -14.9,1.3 -30,2 -45.2,2 -15.1,0 -30.2,-0.7 -45,-1.9 -8.3,-11.9 -16.4,-24.6 -24.2,-38 -7.6,-13.1 -14.5,-26.4 -20.8,-39.8 6.2,-13.4 13.2,-26.8 20.7,-39.9 7.8,-13.5 15.8,-26.3 24.1,-38.2 14.9,-1.3 30,-2 45.2,-2 15.1,0 30.2,0.7 45,1.9 8.3,11.9 16.4,24.6 24.2,38 7.6,13.1 14.5,26.4 20.8,39.8 -6.3,13.4 -13.2,26.8 -20.7,39.9 z m 32.3,-13 c 5.4,13.4 10,26.8 13.8,39.8 -13.1,3.2 -26.9,5.9 -41.2,8 4.9,-7.7 9.8,-15.6 14.4,-23.7 4.6,-8 8.9,-16.1 13,-24.1 z M 421.2,430 c -9.3,-9.6 -18.6,-20.3 -27.8,-32 9,0.4 18.2,0.7 27.5,0.7 9.4,0 18.7,-0.2 27.8,-0.7 -9,11.7 -18.3,22.4 -27.5,32 z m -74.4,-58.9 c -14.2,-2.1 -27.9,-4.7 -41,-7.9 3.7,-12.9 8.3,-26.2 13.5,-39.5 4.1,8 8.4,16 13.1,24 4.7,8 9.5,15.8 14.4,23.4 z M 420.7,163 c 9.3,9.6 18.6,20.3 27.8,32 -9,-0.4 -18.2,-0.7 -27.5,-0.7 -9.4,0 -18.7,0.2 -27.8,0.7 9,-11.7 18.3,-22.4 27.5,-32 z m -74,58.9 c -4.9,7.7 -9.8,15.6 -14.4,23.7 -4.6,8 -8.9,16 -13,24 -5.4,-13.4 -10,-26.8 -13.8,-39.8 13.1,-3.1 26.9,-5.8 41.2,-7.9 z m -90.5,125.2 c -35.4,-15.1 -58.3,-34.9 -58.3,-50.6 0,-15.7 22.9,-35.6 58.3,-50.6 8.6,-3.7 18,-7 27.7,-10.1 5.7,19.6 13.2,40 22.5,60.9 -9.2,20.8 -16.6,41.1 -22.2,60.6 -9.9,-3.1 -19.3,-6.5 -28,-10.2 z M 310,490 c -13.6,-7.8 -19.5,-37.5 -14.9,-75.7 1.1,-9.4 2.9,-19.3 5.1,-29.4 19.6,4.8 41,8.5 63.5,10.9 13.5,18.5 27.5,35.3 41.6,50 -32.6,30.3 -63.2,46.9 -84,46.9 -4.5,-0.1 -8.3,-1 -11.3,-2.7 z m 237.2,-76.2 c 4.7,38.2 -1.1,67.9 -14.6,75.8 -3,1.8 -6.9,2.6 -11.5,2.6 -20.7,0 -51.4,-16.5 -84,-46.6 14,-14.7 28,-31.4 41.3,-49.9 22.6,-2.4 44,-6.1 63.6,-11 2.3,10.1 4.1,19.8 5.2,29.1 z m 38.5,-66.7 c -8.6,3.7 -18,7 -27.7,10.1 -5.7,-19.6 -13.2,-40 -22.5,-60.9 9.2,-20.8 16.6,-41.1 22.2,-60.6 9.9,3.1 19.3,6.5 28.1,10.2 35.4,15.1 58.3,34.9 58.3,50.6 -0.1,15.7 -23,35.6 -58.4,50.6 z"
         id="path211"
         style="fill:#ff8080" />
      <polygon
         fill="#61dafb"
         points=""
         id="polygon213"
         style="fill:#ff8080" />
      <circle
         fill="#61dafb"
         cx="420.89999"
         cy="296.5"
         r="45.700001"
         id="circle215"
         style="fill:#61dafb;fill-opacity:1" />
      <polygon
         fill="#61dafb"
         points=""
         id="polygon217"
         style="fill:#ff8080" />
    </g>
    <g
       aria-label="&lt;    &gt;"
       id="text198"
       style="font-style:normal;font-weight:normal;font-size:70.3827px;line-height:1.25;font-family:sans-serif;fill:#000000;fill-opacity:1;stroke:none;stroke-width:1.75957">
      <g
         aria-label="{      }"
         id="text86"
         style="font-style:normal;font-weight:normal;font-size:70.3827px;line-height:1.25;font-family:sans-serif;fill:#000000;fill-opacity:1;stroke:none;stroke-width:3.09608"
         transform="translate(3.5191339)">
        <path
           d="m 162.44807,477.2758 v 16.49594 h -7.10242 q -28.52424,0 -38.26143,-8.47708 -9.62263,-8.47708 -9.62263,-33.79378 V 424.1222 q 0,-17.29783 -6.18598,-23.94203 -6.185981,-6.6442 -22.452816,-6.6442 h -6.987865 v -16.38139 h 6.987865 q 16.38139,0 22.452816,-6.52965 6.18598,-6.6442 6.18598,-23.71292 v -27.49324 q 0,-25.31669 9.62263,-33.67922 9.73719,-8.47708 38.26143,-8.47708 h 7.10242 v 16.38139 h -7.78975 q -16.15228,0 -21.07815,5.04042 -4.92588,5.04043 -4.92588,21.19271 v 28.40968 q 0,17.98517 -5.26953,26.11858 -5.15499,8.13342 -17.75606,10.9973 12.71563,3.09299 17.87061,11.22641 5.15498,8.13341 5.15498,26.00402 v 28.40968 q 0,16.15228 4.92588,21.19271 4.92587,5.04043 21.07815,5.04043 z"
           style="font-size:234.609px;fill:#ff8080;stroke-width:3.09608"
           id="path88" />
        <path
           d="m 668.55282,477.2758 h 8.01887 q 16.03772,0 20.84904,-4.92587 4.92587,-4.92588 4.92587,-21.30727 v -28.40968 q 0,-17.87061 5.15498,-26.00402 5.15499,-8.13342 17.87061,-11.22641 -12.71562,-2.86388 -17.87061,-10.9973 -5.15498,-8.13341 -5.15498,-26.11858 v -28.40968 q 0,-16.26683 -4.92587,-21.19271 -4.81132,-5.04042 -20.84904,-5.04042 h -8.01887 v -16.38139 h 7.21698 q 28.52424,0 38.03232,8.47708 9.62263,8.36253 9.62263,33.67922 v 27.49324 q 0,17.06872 6.18598,23.71292 6.18598,6.52965 22.45281,6.52965 h 7.10243 v 16.38139 h -7.10243 q -16.26683,0 -22.45281,6.6442 -6.18598,6.6442 -6.18598,23.94203 v 27.37868 q 0,25.3167 -9.62263,33.79378 -9.50808,8.47708 -38.03232,8.47708 h -7.21698 z"
           style="font-size:234.609px;fill:#ff8080;stroke-width:3.09608"
           id="path90" />
      </g>
    </g>
  </g>
  <g
     inkscape:groupmode="layer"
     id="layer1"
     inkscape:label="react"
     transform="translate(-2.3186833,-1.0511799)" />
</svg>
