<?xml version="1.0" encoding="UTF-8" standalone="no"?>
<!DOCTYPE svg PUBLIC "-//W3C//DTD SVG 1.1//EN"
 "http://www.w3.org/Graphics/SVG/1.1/DTD/svg11.dtd">
<!-- Generated by graphviz version 2.43.0 (0)
 -->
<!-- Title: dependency&#45;cruiser output Pages: 1 -->
<svg width="413pt" height="483pt"
 viewBox="0.00 0.00 413.00 483.00" xmlns="http://www.w3.org/2000/svg" xmlns:xlink="http://www.w3.org/1999/xlink">
<g id="graph0" class="graph" transform="scale(1 1) rotate(0) translate(4 479)">
<title>dependency&#45;cruiser output</title>
<polygon fill="white" stroke="transparent" points="-4,4 -4,-479 409,-479 409,4 -4,4"/>
<g id="clust1" class="cluster">
<title>cluster_src</title>
<path fill="#ffffff" stroke="black" stroke-width="2" d="M20,-8C20,-8 385,-8 385,-8 391,-8 397,-14 397,-20 397,-20 397,-455 397,-455 397,-461 391,-467 385,-467 385,-467 20,-467 20,-467 14,-467 8,-461 8,-455 8,-455 8,-20 8,-20 8,-14 14,-8 20,-8"/>
<text text-anchor="middle" x="202.5" y="-455.8" font-family="Helvetica,sans-Serif" font-weight="bold" font-size="9.00">src</text>
</g>
<g id="clust2" class="cluster">
<title>cluster_src/api</title>
<path fill="#ffffff" stroke="black" stroke-width="2" d="M111,-170C111,-170 342,-170 342,-170 348,-170 354,-176 354,-182 354,-182 354,-429 354,-429 354,-435 348,-441 342,-441 342,-441 111,-441 111,-441 105,-441 99,-435 99,-429 99,-429 99,-182 99,-182 99,-176 105,-170 111,-170"/>
<text text-anchor="middle" x="226.5" y="-429.8" font-family="Helvetica,sans-Serif" font-weight="bold" font-size="9.00">api</text>
</g>
<g id="clust3" class="cluster">
<title>cluster_src/api/common</title>
<path fill="#ffffff" stroke="black" stroke-width="2" d="M119,-178C119,-178 199,-178 199,-178 205,-178 211,-184 211,-190 211,-190 211,-218 211,-218 211,-224 205,-230 199,-230 199,-230 119,-230 119,-230 113,-230 107,-224 107,-218 107,-218 107,-190 107,-190 107,-184 113,-178 119,-178"/>
<text text-anchor="middle" x="159" y="-218.8" font-family="Helvetica,sans-Serif" font-weight="bold" font-size="9.00">common</text>
</g>
<g id="clust4" class="cluster">
<title>cluster_src/api/pizza&#45;store</title>
<path fill="#ffffff" stroke="black" stroke-width="2" d="M119,-238C119,-238 334,-238 334,-238 340,-238 346,-244 346,-250 346,-250 346,-403 346,-403 346,-409 340,-415 334,-415 334,-415 119,-415 119,-415 113,-415 107,-409 107,-403 107,-403 107,-250 107,-250 107,-244 113,-238 119,-238"/>
<text text-anchor="middle" x="226.5" y="-403.8" font-family="Helvetica,sans-Serif" font-weight="bold" font-size="9.00">pizza&#45;store</text>
</g>
<g id="clust5" class="cluster">
<title>cluster_src/api/pizza&#45;store/common</title>
<path fill="#ffffff" stroke="black" stroke-width="2" d="M127,-246C127,-246 326,-246 326,-246 332,-246 338,-252 338,-258 338,-258 338,-317 338,-317 338,-323 332,-329 326,-329 326,-329 127,-329 127,-329 121,-329 115,-323 115,-317 115,-317 115,-258 115,-258 115,-252 121,-246 127,-246"/>
<text text-anchor="middle" x="226.5" y="-317.8" font-family="Helvetica,sans-Serif" font-weight="bold" font-size="9.00">common</text>
</g>
<g id="clust6" class="cluster">
<title>cluster_src/api/pizza&#45;store/user</title>
<path fill="#ffffff" stroke="black" stroke-width="2" d="M200,-337C200,-337 266,-337 266,-337 272,-337 278,-343 278,-349 278,-349 278,-377 278,-377 278,-383 272,-389 266,-389 266,-389 200,-389 200,-389 194,-389 188,-383 188,-377 188,-377 188,-349 188,-349 188,-343 194,-337 200,-337"/>
<text text-anchor="middle" x="233" y="-377.8" font-family="Helvetica,sans-Serif" font-weight="bold" font-size="9.00">user</text>
</g>
<g id="clust7" class="cluster">
<title>cluster_src/common</title>
<path fill="#ffffff" stroke="black" stroke-width="2" d="M28,-16C28,-16 377,-16 377,-16 383,-16 389,-22 389,-28 389,-28 389,-150 389,-150 389,-156 383,-162 377,-162 377,-162 28,-162 28,-162 22,-162 16,-156 16,-150 16,-150 16,-28 16,-28 16,-22 22,-16 28,-16"/>
<text text-anchor="middle" x="202.5" y="-150.8" font-family="Helvetica,sans-Serif" font-weight="bold" font-size="9.00">common</text>
</g>
<g id="clust8" class="cluster">
<title>cluster_src/common/api</title>
<path fill="#ffffff" stroke="black" stroke-width="2" d="M227,-84C227,-84 283,-84 283,-84 289,-84 295,-90 295,-96 295,-96 295,-124 295,-124 295,-130 289,-136 283,-136 283,-136 227,-136 227,-136 221,-136 215,-130 215,-124 215,-124 215,-96 215,-96 215,-90 221,-84 227,-84"/>
<text text-anchor="middle" x="255" y="-124.8" font-family="Helvetica,sans-Serif" font-weight="bold" font-size="9.00">api</text>
</g>
<g id="clust9" class="cluster">
<title>cluster_src/common/http</title>
<path fill="#ffffff" stroke="black" stroke-width="2" d="M36,-24C36,-24 195,-24 195,-24 201,-24 207,-30 207,-36 207,-36 207,-124 207,-124 207,-130 201,-136 195,-136 195,-136 36,-136 36,-136 30,-136 24,-130 24,-124 24,-124 24,-36 24,-36 24,-30 30,-24 36,-24"/>
<text text-anchor="middle" x="115.5" y="-124.8" font-family="Helvetica,sans-Serif" font-weight="bold" font-size="9.00">http</text>
</g>
<g id="clust10" class="cluster">
<title>cluster_src/common/utils</title>
<path fill="#ffffff" stroke="black" stroke-width="2" d="M227,-24C227,-24 369,-24 369,-24 375,-24 381,-30 381,-36 381,-36 381,-64 381,-64 381,-70 375,-76 369,-76 369,-76 227,-76 227,-76 221,-76 215,-70 215,-64 215,-64 215,-36 215,-36 215,-30 221,-24 227,-24"/>
<text text-anchor="middle" x="298" y="-64.8" font-family="Helvetica,sans-Serif" font-weight="bold" font-size="9.00">utils</text>
</g>
<!-- src/api/common/http&#45;backend.ts -->
<g id="node1" class="node">
<title>src/api/common/http&#45;backend.ts</title>
<g id="a_node1"><a xlink:href="src/api/common/http-backend.ts" xlink:title="http&#45;backend.ts">
<path fill="#ddfeff" stroke="black" d="M197.5,-204C197.5,-204 120.5,-204 120.5,-204 117.5,-204 114.5,-201 114.5,-198 114.5,-198 114.5,-192 114.5,-192 114.5,-189 117.5,-186 120.5,-186 120.5,-186 197.5,-186 197.5,-186 200.5,-186 203.5,-189 203.5,-192 203.5,-192 203.5,-198 203.5,-198 203.5,-201 200.5,-204 197.5,-204"/>
<text text-anchor="middle" x="159" y="-192.8" font-family="Helvetica,sans-Serif" font-size="9.00">http&#45;backend.ts</text>
</a>
</g>
</g>
<!-- src/common/http/http&#45;client.ts -->
<g id="node2" class="node">
<title>src/common/http/http&#45;client.ts</title>
<g id="a_node2"><a xlink:href="src/common/http/http-client.ts" xlink:title="http&#45;client.ts">
<path fill="#ddfeff" stroke="black" d="M190.5,-110C190.5,-110 127.5,-110 127.5,-110 124.5,-110 121.5,-107 121.5,-104 121.5,-104 121.5,-98 121.5,-98 121.5,-95 124.5,-92 127.5,-92 127.5,-92 190.5,-92 190.5,-92 193.5,-92 196.5,-95 196.5,-98 196.5,-98 196.5,-104 196.5,-104 196.5,-107 193.5,-110 190.5,-110"/>
<text text-anchor="middle" x="159" y="-98.8" font-family="Helvetica,sans-Serif" font-size="9.00">http&#45;client.ts</text>
</a>
</g>
</g>
<!-- src/api/common/http&#45;backend.ts&#45;&gt;src/common/http/http&#45;client.ts -->
<g id="edge1" class="edge">
<title>src/api/common/http&#45;backend.ts&#45;&gt;src/common/http/http&#45;client.ts</title>
<path fill="none" stroke="#000000" stroke-width="2" stroke-opacity="0.200000" d="M159,-185.84C159,-170.18 159,-135.76 159,-116.24"/>
<polygon fill="#000000" fill-opacity="0.200000" stroke="#000000" stroke-width="2" stroke-opacity="0.200000" points="161.1,-116.01 159,-110.01 156.9,-116.01 161.1,-116.01"/>
</g>
<!-- src/common/http/http&#45;error.ts -->
<g id="node8" class="node">
<title>src/common/http/http&#45;error.ts</title>
<g id="a_node8"><a xlink:href="src/common/http/http-error.ts" xlink:title="http&#45;error.ts">
<path fill="#ddfeff" stroke="black" d="M97.5,-50C97.5,-50 38.5,-50 38.5,-50 35.5,-50 32.5,-47 32.5,-44 32.5,-44 32.5,-38 32.5,-38 32.5,-35 35.5,-32 38.5,-32 38.5,-32 97.5,-32 97.5,-32 100.5,-32 103.5,-35 103.5,-38 103.5,-38 103.5,-44 103.5,-44 103.5,-47 100.5,-50 97.5,-50"/>
<text text-anchor="middle" x="68" y="-38.8" font-family="Helvetica,sans-Serif" font-size="9.00">http&#45;error.ts</text>
</a>
</g>
</g>
<!-- src/common/http/http&#45;client.ts&#45;&gt;src/common/http/http&#45;error.ts -->
<g id="edge8" class="edge">
<title>src/common/http/http&#45;client.ts&#45;&gt;src/common/http/http&#45;error.ts</title>
<path fill="none" stroke="#000000" stroke-width="2" stroke-opacity="0.200000" d="M139.85,-91.84C130.57,-87.58 119.42,-82.01 110,-76 99.91,-69.56 89.45,-61.1 81.5,-54.23"/>
<polygon fill="#000000" fill-opacity="0.200000" stroke="#000000" stroke-width="2" stroke-opacity="0.200000" points="82.78,-52.57 76.89,-50.19 80.01,-55.73 82.78,-52.57"/>
</g>
<!-- src/common/http/query&#45;string.ts -->
<g id="node9" class="node">
<title>src/common/http/query&#45;string.ts</title>
<g id="a_node9"><a xlink:href="src/common/http/query-string.ts" xlink:title="query&#45;string.ts">
<path fill="#ddfeff" stroke="black" d="M192.5,-50C192.5,-50 121.5,-50 121.5,-50 118.5,-50 115.5,-47 115.5,-44 115.5,-44 115.5,-38 115.5,-38 115.5,-35 118.5,-32 121.5,-32 121.5,-32 192.5,-32 192.5,-32 195.5,-32 198.5,-35 198.5,-38 198.5,-38 198.5,-44 198.5,-44 198.5,-47 195.5,-50 192.5,-50"/>
<text text-anchor="middle" x="157" y="-38.8" font-family="Helvetica,sans-Serif" font-size="9.00">query&#45;string.ts</text>
</a>
</g>
</g>
<!-- src/common/http/http&#45;client.ts&#45;&gt;src/common/http/query&#45;string.ts -->
<g id="edge9" class="edge">
<title>src/common/http/http&#45;client.ts&#45;&gt;src/common/http/query&#45;string.ts</title>
<path fill="none" stroke="#000000" stroke-width="2" stroke-opacity="0.200000" d="M158.72,-91.94C158.41,-82.78 157.88,-67.65 157.5,-56.44"/>
<polygon fill="#000000" fill-opacity="0.200000" stroke="#000000" stroke-width="2" stroke-opacity="0.200000" points="159.59,-56.3 157.29,-50.37 155.4,-56.44 159.59,-56.3"/>
</g>
<!-- src/common/utils/pick.ts -->
<g id="node10" class="node">
<title>src/common/utils/pick.ts</title>
<g id="a_node10"><a xlink:href="src/common/utils/pick.ts" xlink:title="pick.ts">
<path fill="#ddfeff" stroke="black" d="M367,-50C367,-50 325,-50 325,-50 322,-50 319,-47 319,-44 319,-44 319,-38 319,-38 319,-35 322,-32 325,-32 325,-32 367,-32 367,-32 370,-32 373,-35 373,-38 373,-38 373,-44 373,-44 373,-47 370,-50 367,-50"/>
<text text-anchor="middle" x="346" y="-38.8" font-family="Helvetica,sans-Serif" font-size="9.00">pick.ts</text>
</a>
</g>
</g>
<!-- src/common/http/http&#45;client.ts&#45;&gt;src/common/utils/pick.ts -->
<g id="edge10" class="edge">
<title>src/common/http/http&#45;client.ts&#45;&gt;src/common/utils/pick.ts</title>
<path fill="none" stroke="#000000" stroke-width="2" stroke-opacity="0.200000" d="M181.69,-91.98C190.98,-89.01 201.89,-85.9 212,-84 234.13,-79.83 292.63,-85.58 313,-76 322.8,-71.39 331.24,-62.53 337.14,-55.01"/>
<polygon fill="#000000" fill-opacity="0.200000" stroke="#000000" stroke-width="2" stroke-opacity="0.200000" points="338.9,-56.16 340.8,-50.09 335.53,-53.65 338.9,-56.16"/>
</g>
<!-- src/api/pizza&#45;store/common/api&#45;client&#45;backend.ts -->
<g id="node3" class="node">
<title>src/api/pizza&#45;store/common/api&#45;client&#45;backend.ts</title>
<g id="a_node3"><a xlink:href="src/api/pizza-store/common/api-client-backend.ts" xlink:title="api&#45;client&#45;backend.ts">
<path fill="#ddfeff" stroke="black" d="M227.5,-272C227.5,-272 128.5,-272 128.5,-272 125.5,-272 122.5,-269 122.5,-266 122.5,-266 122.5,-260 122.5,-260 122.5,-257 125.5,-254 128.5,-254 128.5,-254 227.5,-254 227.5,-254 230.5,-254 233.5,-257 233.5,-260 233.5,-260 233.5,-266 233.5,-266 233.5,-269 230.5,-272 227.5,-272"/>
<text text-anchor="middle" x="178" y="-260.8" font-family="Helvetica,sans-Serif" font-size="9.00">api&#45;client&#45;backend.ts</text>
</a>
</g>
</g>
<!-- src/api/pizza&#45;store/common/api&#45;client&#45;backend.ts&#45;&gt;src/api/common/http&#45;backend.ts -->
<g id="edge2" class="edge">
<title>src/api/pizza&#45;store/common/api&#45;client&#45;backend.ts&#45;&gt;src/api/common/http&#45;backend.ts</title>
<path fill="none" stroke="#000000" stroke-width="2" stroke-opacity="0.200000" d="M175.67,-253.91C172.54,-243.02 166.91,-223.49 163.07,-210.15"/>
<polygon fill="#000000" fill-opacity="0.200000" stroke="#000000" stroke-width="2" stroke-opacity="0.200000" points="165.03,-209.34 161.35,-204.16 160.99,-210.51 165.03,-209.34"/>
</g>
<!-- src/api/pizza&#45;store/common/api&#45;client&#45;backend.ts&#45;&gt;src/common/http/http&#45;client.ts -->
<g id="edge4" class="edge">
<title>src/api/pizza&#45;store/common/api&#45;client&#45;backend.ts&#45;&gt;src/common/http/http&#45;client.ts</title>
<path fill="none" stroke="#000000" stroke-width="2" stroke-opacity="0.200000" d="M191.97,-253.84C200.05,-248.26 209.48,-240.07 214,-230 224.92,-205.67 222.89,-195.14 214,-170 206.06,-147.56 187.22,-127.11 173.81,-114.62"/>
<polygon fill="#000000" fill-opacity="0.200000" stroke="#000000" stroke-width="2" stroke-opacity="0.200000" points="175,-112.86 169.15,-110.39 172.18,-115.98 175,-112.86"/>
</g>
<!-- src/common/api/api&#45;utils.ts -->
<g id="node4" class="node">
<title>src/common/api/api&#45;utils.ts</title>
<g id="a_node4"><a xlink:href="src/common/api/api-utils.ts" xlink:title="api&#45;utils.ts">
<path fill="#ddfeff" stroke="black" d="M280.5,-110C280.5,-110 229.5,-110 229.5,-110 226.5,-110 223.5,-107 223.5,-104 223.5,-104 223.5,-98 223.5,-98 223.5,-95 226.5,-92 229.5,-92 229.5,-92 280.5,-92 280.5,-92 283.5,-92 286.5,-95 286.5,-98 286.5,-98 286.5,-104 286.5,-104 286.5,-107 283.5,-110 280.5,-110"/>
<text text-anchor="middle" x="255" y="-98.8" font-family="Helvetica,sans-Serif" font-size="9.00">api&#45;utils.ts</text>
</a>
</g>
</g>
<!-- src/api/pizza&#45;store/common/api&#45;client&#45;backend.ts&#45;&gt;src/common/api/api&#45;utils.ts -->
<g id="edge3" class="edge">
<title>src/api/pizza&#45;store/common/api&#45;client&#45;backend.ts&#45;&gt;src/common/api/api&#45;utils.ts</title>
<path fill="none" stroke="#000000" stroke-width="2" stroke-opacity="0.200000" d="M193.64,-253.91C202.89,-248.36 214.11,-240.17 221,-230 245.38,-194 252.3,-141.34 254.24,-116.28"/>
<polygon fill="#000000" fill-opacity="0.200000" stroke="#000000" stroke-width="2" stroke-opacity="0.200000" points="256.34,-116.38 254.66,-110.25 252.15,-116.1 256.34,-116.38"/>
</g>
<!-- src/api/pizza&#45;store/common/api&#45;client.ts -->
<g id="node5" class="node">
<title>src/api/pizza&#45;store/common/api&#45;client.ts</title>
<g id="a_node5"><a xlink:href="src/api/pizza-store/common/api-client.ts" xlink:title="api&#45;client.ts">
<path fill="#ddfeff" stroke="black" d="M261.5,-303C261.5,-303 204.5,-303 204.5,-303 201.5,-303 198.5,-300 198.5,-297 198.5,-297 198.5,-291 198.5,-291 198.5,-288 201.5,-285 204.5,-285 204.5,-285 261.5,-285 261.5,-285 264.5,-285 267.5,-288 267.5,-291 267.5,-291 267.5,-297 267.5,-297 267.5,-300 264.5,-303 261.5,-303"/>
<text text-anchor="middle" x="233" y="-291.8" font-family="Helvetica,sans-Serif" font-size="9.00">api&#45;client.ts</text>
</a>
</g>
</g>
<!-- src/api/pizza&#45;store/common/api&#45;client.ts&#45;&gt;src/api/pizza&#45;store/common/api&#45;client&#45;backend.ts -->
<g id="edge5" class="edge">
<title>src/api/pizza&#45;store/common/api&#45;client.ts&#45;&gt;src/api/pizza&#45;store/common/api&#45;client&#45;backend.ts</title>
<path fill="none" stroke="#000000" stroke-width="2" stroke-opacity="0.200000" d="M217.68,-284.92C211.84,-281.84 205.08,-278.28 198.81,-274.97"/>
<polygon fill="#000000" fill-opacity="0.200000" stroke="#000000" stroke-width="2" stroke-opacity="0.200000" points="199.53,-272.98 193.24,-272.03 197.57,-276.69 199.53,-272.98"/>
</g>
<!-- src/api/pizza&#45;store/common/api&#45;mappers.ts -->
<g id="node6" class="node">
<title>src/api/pizza&#45;store/common/api&#45;mappers.ts</title>
<g id="a_node6"><a xlink:href="src/api/pizza-store/common/api-mappers.ts" xlink:title="api&#45;mappers.ts">
<path fill="#ddfeff" stroke="black" d="M324,-272C324,-272 252,-272 252,-272 249,-272 246,-269 246,-266 246,-266 246,-260 246,-260 246,-257 249,-254 252,-254 252,-254 324,-254 324,-254 327,-254 330,-257 330,-260 330,-260 330,-266 330,-266 330,-269 327,-272 324,-272"/>
<text text-anchor="middle" x="288" y="-260.8" font-family="Helvetica,sans-Serif" font-size="9.00">api&#45;mappers.ts</text>
</a>
</g>
</g>
<!-- src/api/pizza&#45;store/common/api&#45;client.ts&#45;&gt;src/api/pizza&#45;store/common/api&#45;mappers.ts -->
<g id="edge6" class="edge">
<title>src/api/pizza&#45;store/common/api&#45;client.ts&#45;&gt;src/api/pizza&#45;store/common/api&#45;mappers.ts</title>
<path fill="none" stroke="#000000" stroke-width="2" stroke-opacity="0.200000" d="M248.32,-284.92C254.16,-281.84 260.92,-278.28 267.19,-274.97"/>
<polygon fill="#000000" fill-opacity="0.200000" stroke="#000000" stroke-width="2" stroke-opacity="0.200000" points="268.43,-276.69 272.76,-272.03 266.47,-272.98 268.43,-276.69"/>
</g>
<!-- src/api/pizza&#45;store/user/user&#45;client.ts -->
<g id="node7" class="node">
<title>src/api/pizza&#45;store/user/user&#45;client.ts</title>
<g id="a_node7"><a xlink:href="src/api/pizza-store/user/user-client.ts" xlink:title="user&#45;client.ts">
<path fill="#ddfeff" stroke="black" d="M264,-363C264,-363 202,-363 202,-363 199,-363 196,-360 196,-357 196,-357 196,-351 196,-351 196,-348 199,-345 202,-345 202,-345 264,-345 264,-345 267,-345 270,-348 270,-351 270,-351 270,-357 270,-357 270,-360 267,-363 264,-363"/>
<text text-anchor="middle" x="233" y="-351.8" font-family="Helvetica,sans-Serif" font-size="9.00">user&#45;client.ts</text>
</a>
</g>
</g>
<!-- src/api/pizza&#45;store/user/user&#45;client.ts&#45;&gt;src/api/pizza&#45;store/common/api&#45;client.ts -->
<g id="edge7" class="edge">
<title>src/api/pizza&#45;store/user/user&#45;client.ts&#45;&gt;src/api/pizza&#45;store/common/api&#45;client.ts</title>
<path fill="none" stroke="#000000" stroke-width="2" stroke-opacity="0.200000" d="M233,-344.94C233,-335.78 233,-320.65 233,-309.44"/>
<polygon fill="#000000" fill-opacity="0.200000" stroke="#000000" stroke-width="2" stroke-opacity="0.200000" points="235.1,-309.37 233,-303.37 230.9,-309.37 235.1,-309.37"/>
</g>
<!-- src/common/utils/deep&#45;equals.ts -->
<g id="node11" class="node">
<title>src/common/utils/deep&#45;equals.ts</title>
<g id="a_node11"><a xlink:href="src/common/utils/deep-equals.ts" xlink:title="deep&#45;equals.ts">
<path fill="#ddfeff" stroke="black" d="M300.5,-50C300.5,-50 229.5,-50 229.5,-50 226.5,-50 223.5,-47 223.5,-44 223.5,-44 223.5,-38 223.5,-38 223.5,-35 226.5,-32 229.5,-32 229.5,-32 300.5,-32 300.5,-32 303.5,-32 306.5,-35 306.5,-38 306.5,-38 306.5,-44 306.5,-44 306.5,-47 303.5,-50 300.5,-50"/>
<text text-anchor="middle" x="265" y="-38.8" font-family="Helvetica,sans-Serif" font-size="9.00">deep&#45;equals.ts</text>
</a>
</g>
</g>
</g>
</svg>
