<?xml version="1.0" encoding="UTF-8" standalone="no"?>
<!DOCTYPE svg PUBLIC "-//W3C//DTD SVG 1.1//EN"
 "http://www.w3.org/Graphics/SVG/1.1/DTD/svg11.dtd">
<!-- Generated by graphviz version 2.43.0 (0)
 -->
<!-- Title: dependency&#45;cruiser output Pages: 1 -->
<svg width="764pt" height="446pt"
 viewBox="0.00 0.00 764.00 446.00" xmlns="http://www.w3.org/2000/svg" xmlns:xlink="http://www.w3.org/1999/xlink">
<g id="graph0" class="graph" transform="scale(1 1) rotate(0) translate(4 442)">
<title>dependency&#45;cruiser output</title>
<polygon fill="white" stroke="transparent" points="-4,4 -4,-442 760,-442 760,4 -4,4"/>
<g id="clust1" class="cluster">
<title>cluster_rxjs</title>
<path fill="#ffffff" stroke="black" stroke-width="2" d="M20,-344C20,-344 82,-344 82,-344 88,-344 94,-350 94,-356 94,-356 94,-418 94,-418 94,-424 88,-430 82,-430 82,-430 20,-430 20,-430 14,-430 8,-424 8,-418 8,-418 8,-356 8,-356 8,-350 14,-344 20,-344"/>
<text text-anchor="middle" x="51" y="-418.8" font-family="Helvetica,sans-Serif" font-weight="bold" font-size="9.00">rxjs</text>
</g>
<g id="clust2" class="cluster">
<title>cluster_rxjs/internal</title>
<path fill="#ffffff" stroke="black" stroke-width="2" d="M28,-352C28,-352 74,-352 74,-352 80,-352 86,-358 86,-364 86,-364 86,-392 86,-392 86,-398 80,-404 74,-404 74,-404 28,-404 28,-404 22,-404 16,-398 16,-392 16,-392 16,-364 16,-364 16,-358 22,-352 28,-352"/>
<text text-anchor="middle" x="51" y="-392.8" font-family="Helvetica,sans-Serif" font-weight="bold" font-size="9.00">internal</text>
</g>
<g id="clust3" class="cluster">
<title>cluster_src</title>
<path fill="#ffffff" stroke="black" stroke-width="2" d="M114,-8C114,-8 736,-8 736,-8 742,-8 748,-14 748,-20 748,-20 748,-392 748,-392 748,-398 742,-404 736,-404 736,-404 114,-404 114,-404 108,-404 102,-398 102,-392 102,-392 102,-20 102,-20 102,-14 108,-8 114,-8"/>
<text text-anchor="middle" x="425" y="-392.8" font-family="Helvetica,sans-Serif" font-weight="bold" font-size="9.00">src</text>
</g>
<g id="clust4" class="cluster">
<title>cluster_src/api</title>
<path fill="#ffffff" stroke="black" stroke-width="2" d="M122,-50C122,-50 246,-50 246,-50 252,-50 258,-56 258,-62 258,-62 258,-150 258,-150 258,-156 252,-162 246,-162 246,-162 122,-162 122,-162 116,-162 110,-156 110,-150 110,-150 110,-62 110,-62 110,-56 116,-50 122,-50"/>
<text text-anchor="middle" x="184" y="-150.8" font-family="Helvetica,sans-Serif" font-weight="bold" font-size="9.00">api</text>
</g>
<g id="clust5" class="cluster">
<title>cluster_src/app</title>
<path fill="#ffffff" stroke="black" stroke-width="2" d="M495,-253C495,-253 625,-253 625,-253 631,-253 637,-259 637,-265 637,-265 637,-324 637,-324 637,-330 631,-336 625,-336 625,-336 495,-336 495,-336 489,-336 483,-330 483,-324 483,-324 483,-265 483,-265 483,-259 489,-253 495,-253"/>
<text text-anchor="middle" x="560" y="-324.8" font-family="Helvetica,sans-Serif" font-weight="bold" font-size="9.00">app</text>
</g>
<g id="clust6" class="cluster">
<title>cluster_src/common</title>
<path fill="#ffffff" stroke="black" stroke-width="2" d="M284,-16C284,-16 680,-16 680,-16 686,-16 692,-22 692,-28 692,-28 692,-90 692,-90 692,-96 686,-102 680,-102 680,-102 284,-102 284,-102 278,-102 272,-96 272,-90 272,-90 272,-28 272,-28 272,-22 278,-16 284,-16"/>
<text text-anchor="middle" x="482" y="-90.8" font-family="Helvetica,sans-Serif" font-weight="bold" font-size="9.00">common</text>
</g>
<g id="clust7" class="cluster">
<title>cluster_src/modules</title>
<path fill="#ffffff" stroke="black" stroke-width="2" d="M532,-110C532,-110 644,-110 644,-110 650,-110 656,-116 656,-122 656,-122 656,-233 656,-233 656,-239 650,-245 644,-245 644,-245 532,-245 532,-245 526,-245 520,-239 520,-233 520,-233 520,-122 520,-122 520,-116 526,-110 532,-110"/>
<text text-anchor="middle" x="588" y="-233.8" font-family="Helvetica,sans-Serif" font-weight="bold" font-size="9.00">modules</text>
</g>
<!-- rxjs/internal/types -->
<g id="node1" class="node">
<title>rxjs/internal/types</title>
<path fill="#ffffcc" stroke="red" d="M72,-378C72,-378 30,-378 30,-378 27,-378 24,-375 24,-372 24,-372 24,-366 24,-366 24,-363 27,-360 30,-360 30,-360 72,-360 72,-360 75,-360 78,-363 78,-366 78,-366 78,-372 78,-372 78,-375 75,-378 72,-378"/>
<text text-anchor="middle" x="51" y="-366.8" font-family="Helvetica,sans-Serif" font-size="9.00" fill="red">types</text>
</g>
<!-- src/.eslintrc.js -->
<g id="node2" class="node">
<title>src/.eslintrc.js</title>
<g id="a_node2"><a xlink:href="src/.eslintrc.js" xlink:title=".eslintrc.js">
<path fill="#ccffcc" stroke="black" d="M686,-378C686,-378 636,-378 636,-378 633,-378 630,-375 630,-372 630,-372 630,-366 630,-366 630,-363 633,-360 636,-360 636,-360 686,-360 686,-360 689,-360 692,-363 692,-366 692,-366 692,-372 692,-372 692,-375 689,-378 686,-378"/>
<text text-anchor="middle" x="661" y="-366.8" font-family="Helvetica,sans-Serif" font-size="9.00">.eslintrc.js</text>
</a>
</g>
</g>
<!-- src/api/common -->
<g id="node3" class="node">
<title>src/api/common</title>
<g id="a_node3"><a xlink:href="src/api/common" xlink:title="common">
<polygon fill="#ffffcc" stroke="black" points="247,-76 193,-76 191,-74 191,-58 245,-58 247,-60 247,-76"/>
<polyline fill="none" stroke="black" points="245,-74 191,-74 "/>
<polyline fill="none" stroke="black" points="245,-74 245,-58 "/>
<polyline fill="none" stroke="black" points="245,-74 247,-76 "/>
<text text-anchor="middle" x="219" y="-64.8" font-family="Helvetica,sans-Serif" font-size="9.00">common</text>
</a>
</g>
</g>
<!-- src/common/http -->
<g id="node4" class="node">
<title>src/common/http</title>
<g id="a_node4"><a xlink:href="src/common/http" xlink:title="http">
<polygon fill="#ffffcc" stroke="black" points="400,-76 348,-76 346,-74 346,-58 398,-58 400,-60 400,-76"/>
<polyline fill="none" stroke="black" points="398,-74 346,-74 "/>
<polyline fill="none" stroke="black" points="398,-74 398,-58 "/>
<polyline fill="none" stroke="black" points="398,-74 400,-76 "/>
<text text-anchor="middle" x="373" y="-64.8" font-family="Helvetica,sans-Serif" font-size="9.00">http</text>
</a>
</g>
</g>
<!-- src/api/common&#45;&gt;src/common/http -->
<g id="edge1" class="edge">
<title>src/api/common&#45;&gt;src/common/http</title>
<path fill="none" stroke="#000000" stroke-width="2" stroke-opacity="0.200000" d="M228.29,-76.31C238.65,-85.95 256.4,-100.37 275,-106 287.55,-109.8 321.45,-109.8 334,-106 346.99,-102.07 357.55,-90.53 364.39,-81.02"/>
<polygon fill="#000000" fill-opacity="0.200000" stroke="#000000" stroke-width="2" stroke-opacity="0.200000" points="366.17,-82.15 367.8,-76 362.69,-79.79 366.17,-82.15"/>
</g>
<!-- src/common/utils -->
<g id="node17" class="node">
<title>src/common/utils</title>
<g id="a_node17"><a xlink:href="src/common/utils" xlink:title="utils">
<polygon fill="#ffffcc" stroke="black" points="684,-42 632,-42 630,-40 630,-24 682,-24 684,-26 684,-42"/>
<polyline fill="none" stroke="black" points="682,-40 630,-40 "/>
<polyline fill="none" stroke="black" points="682,-40 682,-24 "/>
<polyline fill="none" stroke="black" points="682,-40 684,-42 "/>
<text text-anchor="middle" x="657" y="-30.8" font-family="Helvetica,sans-Serif" font-size="9.00">utils</text>
</a>
</g>
</g>
<!-- src/common/http&#45;&gt;src/common/utils -->
<g id="edge19" class="edge">
<title>src/common/http&#45;&gt;src/common/utils</title>
<path fill="none" stroke="#000000" stroke-width="2" stroke-opacity="0.200000" d="M386.67,-57.9C392.44,-54.87 399.35,-51.75 406,-50 446.13,-39.43 565.04,-35.74 623.62,-34.53"/>
<polygon fill="#000000" fill-opacity="0.200000" stroke="#000000" stroke-width="2" stroke-opacity="0.200000" points="623.82,-36.63 629.78,-34.41 623.74,-32.43 623.82,-36.63"/>
</g>
<!-- src/api/github -->
<g id="node5" class="node">
<title>src/api/github</title>
<g id="a_node5"><a xlink:href="src/api/github" xlink:title="github">
<polygon fill="#ffffcc" stroke="black" points="172,-136 120,-136 118,-134 118,-118 170,-118 172,-120 172,-136"/>
<polyline fill="none" stroke="black" points="170,-134 118,-134 "/>
<polyline fill="none" stroke="black" points="170,-134 170,-118 "/>
<polyline fill="none" stroke="black" points="170,-134 172,-136 "/>
<text text-anchor="middle" x="145" y="-124.8" font-family="Helvetica,sans-Serif" font-size="9.00">github</text>
</a>
</g>
</g>
<!-- src/api/github&#45;&gt;src/api/common -->
<g id="edge2" class="edge">
<title>src/api/github&#45;&gt;src/api/common</title>
<path fill="none" stroke="#000000" stroke-width="2" stroke-opacity="0.200000" d="M155.29,-117.94C167.74,-108.18 188.83,-91.65 203.31,-80.3"/>
<polygon fill="#000000" fill-opacity="0.200000" stroke="#000000" stroke-width="2" stroke-opacity="0.200000" points="204.89,-81.73 208.32,-76.37 202.3,-78.42 204.89,-81.73"/>
</g>
<!-- src/api/pizza&#45;store -->
<g id="node6" class="node">
<title>src/api/pizza&#45;store</title>
<g id="a_node6"><a xlink:href="src/api/pizza-store" xlink:title="pizza&#45;store">
<polygon fill="#ffffcc" stroke="black" points="249.5,-136 186.5,-136 184.5,-134 184.5,-118 247.5,-118 249.5,-120 249.5,-136"/>
<polyline fill="none" stroke="black" points="247.5,-134 184.5,-134 "/>
<polyline fill="none" stroke="black" points="247.5,-134 247.5,-118 "/>
<polyline fill="none" stroke="black" points="247.5,-134 249.5,-136 "/>
<text text-anchor="middle" x="217" y="-124.8" font-family="Helvetica,sans-Serif" font-size="9.00">pizza&#45;store</text>
</a>
</g>
</g>
<!-- src/api/pizza&#45;store&#45;&gt;src/api/common -->
<g id="edge3" class="edge">
<title>src/api/pizza&#45;store&#45;&gt;src/api/common</title>
<path fill="none" stroke="#000000" stroke-width="2" stroke-opacity="0.200000" d="M217.28,-117.94C217.59,-108.78 218.12,-93.65 218.5,-82.44"/>
<polygon fill="#000000" fill-opacity="0.200000" stroke="#000000" stroke-width="2" stroke-opacity="0.200000" points="220.6,-82.44 218.71,-76.37 216.41,-82.3 220.6,-82.44"/>
</g>
<!-- src/api/pizza&#45;store&#45;&gt;src/common/http -->
<g id="edge5" class="edge">
<title>src/api/pizza&#45;store&#45;&gt;src/common/http</title>
<path fill="none" stroke="#000000" stroke-width="2" stroke-opacity="0.200000" d="M249.61,-124.94C275.5,-122.89 311.88,-117.24 340,-102 349.4,-96.91 357.77,-88.22 363.72,-80.9"/>
<polygon fill="#000000" fill-opacity="0.200000" stroke="#000000" stroke-width="2" stroke-opacity="0.200000" points="365.42,-82.14 367.44,-76.11 362.1,-79.56 365.42,-82.14"/>
</g>
<!-- src/common/api -->
<g id="node7" class="node">
<title>src/common/api</title>
<g id="a_node7"><a xlink:href="src/common/api" xlink:title="api">
<polygon fill="#ffffcc" stroke="black" points="334,-76 282,-76 280,-74 280,-58 332,-58 334,-60 334,-76"/>
<polyline fill="none" stroke="black" points="332,-74 280,-74 "/>
<polyline fill="none" stroke="black" points="332,-74 332,-58 "/>
<polyline fill="none" stroke="black" points="332,-74 334,-76 "/>
<text text-anchor="middle" x="307" y="-64.8" font-family="Helvetica,sans-Serif" font-size="9.00">api</text>
</a>
</g>
</g>
<!-- src/api/pizza&#45;store&#45;&gt;src/common/api -->
<g id="edge4" class="edge">
<title>src/api/pizza&#45;store&#45;&gt;src/common/api</title>
<path fill="none" stroke="#000000" stroke-width="2" stroke-opacity="0.200000" d="M233.19,-117.85C241.64,-113.43 252.05,-107.71 261,-102 271.54,-95.28 282.83,-86.94 291.6,-80.21"/>
<polygon fill="#000000" fill-opacity="0.200000" stroke="#000000" stroke-width="2" stroke-opacity="0.200000" points="293.24,-81.59 296.69,-76.25 290.67,-78.27 293.24,-81.59"/>
</g>
<!-- src/app/app&#45;store.ts -->
<g id="node8" class="node">
<title>src/app/app&#45;store.ts</title>
<g id="a_node8"><a xlink:href="src/app/app-store.ts" xlink:title="app&#45;store.ts">
<path fill="#ddfeff" stroke="black" d="M556.5,-279C556.5,-279 497.5,-279 497.5,-279 494.5,-279 491.5,-276 491.5,-273 491.5,-273 491.5,-267 491.5,-267 491.5,-264 494.5,-261 497.5,-261 497.5,-261 556.5,-261 556.5,-261 559.5,-261 562.5,-264 562.5,-267 562.5,-267 562.5,-273 562.5,-273 562.5,-276 559.5,-279 556.5,-279"/>
<text text-anchor="middle" x="527" y="-267.8" font-family="Helvetica,sans-Serif" font-size="9.00">app&#45;store.ts</text>
</a>
</g>
</g>
<!-- src/common/redux -->
<g id="node9" class="node">
<title>src/common/redux</title>
<g id="a_node9"><a xlink:href="src/common/redux" xlink:title="redux">
<polygon fill="#ffffcc" stroke="black" points="618,-76 566,-76 564,-74 564,-58 616,-58 618,-60 618,-76"/>
<polyline fill="none" stroke="black" points="616,-74 564,-74 "/>
<polyline fill="none" stroke="black" points="616,-74 616,-58 "/>
<polyline fill="none" stroke="black" points="616,-74 618,-76 "/>
<text text-anchor="middle" x="591" y="-64.8" font-family="Helvetica,sans-Serif" font-size="9.00">redux</text>
</a>
</g>
</g>
<!-- src/app/app&#45;store.ts&#45;&gt;src/common/redux -->
<g id="edge6" class="edge">
<title>src/app/app&#45;store.ts&#45;&gt;src/common/redux</title>
<path fill="none" stroke="#000000" stroke-width="2" stroke-opacity="0.200000" d="M545.06,-260.87C552.35,-257.92 560.94,-254.86 569,-253 588.57,-248.49 645.45,-259.81 659,-245 699.5,-200.74 696.4,-156.92 659,-110 649.05,-97.52 637.91,-109.82 624,-102 614.68,-96.76 606.32,-88.07 600.34,-80.79"/>
<polygon fill="#000000" fill-opacity="0.200000" stroke="#000000" stroke-width="2" stroke-opacity="0.200000" points="601.96,-79.45 596.6,-76.04 598.66,-82.05 601.96,-79.45"/>
</g>
<!-- src/modules/auth -->
<g id="node10" class="node">
<title>src/modules/auth</title>
<g id="a_node10"><a xlink:href="src/modules/auth" xlink:title="auth">
<polygon fill="#ffffcc" stroke="black" points="600,-188 548,-188 546,-186 546,-170 598,-170 600,-172 600,-188"/>
<polyline fill="none" stroke="black" points="598,-186 546,-186 "/>
<polyline fill="none" stroke="black" points="598,-186 598,-170 "/>
<polyline fill="none" stroke="black" points="598,-186 600,-188 "/>
<text text-anchor="middle" x="573" y="-176.8" font-family="Helvetica,sans-Serif" font-size="9.00">auth</text>
</a>
</g>
</g>
<!-- src/app/app&#45;store.ts&#45;&gt;src/modules/auth -->
<g id="edge7" class="edge">
<title>src/app/app&#45;store.ts&#45;&gt;src/modules/auth</title>
<path fill="none" stroke="#000000" stroke-width="2" stroke-opacity="0.200000" d="M523.33,-260.63C517.94,-246.9 509.75,-219.29 522,-201 526.25,-194.66 532.79,-190.23 539.79,-187.14"/>
<polygon fill="#000000" fill-opacity="0.200000" stroke="#000000" stroke-width="2" stroke-opacity="0.200000" points="540.9,-188.96 545.74,-184.85 539.38,-185.05 540.9,-188.96"/>
</g>
<!-- src/modules/core -->
<g id="node11" class="node">
<title>src/modules/core</title>
<g id="a_node11"><a xlink:href="src/modules/core" xlink:title="core">
<polygon fill="#ffffcc" stroke="black" points="582,-136 530,-136 528,-134 528,-118 580,-118 582,-120 582,-136"/>
<polyline fill="none" stroke="black" points="580,-134 528,-134 "/>
<polyline fill="none" stroke="black" points="580,-134 580,-118 "/>
<polyline fill="none" stroke="black" points="580,-134 582,-136 "/>
<text text-anchor="middle" x="555" y="-124.8" font-family="Helvetica,sans-Serif" font-size="9.00">core</text>
</a>
</g>
</g>
<!-- src/app/app&#45;store.ts&#45;&gt;src/modules/core -->
<g id="edge8" class="edge">
<title>src/app/app&#45;store.ts&#45;&gt;src/modules/core</title>
<path fill="none" stroke="#000000" stroke-width="2" stroke-opacity="0.200000" d="M511.96,-260.94C506.16,-256.97 500.18,-251.61 497,-245 488.53,-227.37 491.92,-219.88 497,-201 503.81,-175.72 525.16,-153.25 539.96,-140.13"/>
<polygon fill="#000000" fill-opacity="0.200000" stroke="#000000" stroke-width="2" stroke-opacity="0.200000" points="541.53,-141.55 544.7,-136.04 538.79,-138.37 541.53,-141.55"/>
</g>
<!-- src/modules/github -->
<g id="node12" class="node">
<title>src/modules/github</title>
<g id="a_node12"><a xlink:href="src/modules/github" xlink:title="github">
<polygon fill="#ffffcc" stroke="black" points="648,-219 596,-219 594,-217 594,-201 646,-201 648,-203 648,-219"/>
<polyline fill="none" stroke="black" points="646,-217 594,-217 "/>
<polyline fill="none" stroke="black" points="646,-217 646,-201 "/>
<polyline fill="none" stroke="black" points="646,-217 648,-219 "/>
<text text-anchor="middle" x="621" y="-207.8" font-family="Helvetica,sans-Serif" font-size="9.00">github</text>
</a>
</g>
</g>
<!-- src/app/app&#45;store.ts&#45;&gt;src/modules/github -->
<g id="edge9" class="edge">
<title>src/app/app&#45;store.ts&#45;&gt;src/modules/github</title>
<path fill="none" stroke="#000000" stroke-width="2" stroke-opacity="0.200000" d="M548.13,-260.93C565.03,-254.43 586.2,-246.2 588,-245 596.51,-239.33 604.54,-231.15 610.54,-224.23"/>
<polygon fill="#000000" fill-opacity="0.200000" stroke="#000000" stroke-width="2" stroke-opacity="0.200000" points="612.47,-225.2 614.72,-219.25 609.25,-222.5 612.47,-225.2"/>
</g>
<!-- src/modules/user -->
<g id="node13" class="node">
<title>src/modules/user</title>
<g id="a_node13"><a xlink:href="src/modules/user" xlink:title="user">
<polygon fill="#ffffcc" stroke="black" points="582,-219 530,-219 528,-217 528,-201 580,-201 582,-203 582,-219"/>
<polyline fill="none" stroke="black" points="580,-217 528,-217 "/>
<polyline fill="none" stroke="black" points="580,-217 580,-201 "/>
<polyline fill="none" stroke="black" points="580,-217 582,-219 "/>
<text text-anchor="middle" x="555" y="-207.8" font-family="Helvetica,sans-Serif" font-size="9.00">user</text>
</a>
</g>
</g>
<!-- src/app/app&#45;store.ts&#45;&gt;src/modules/user -->
<g id="edge10" class="edge">
<title>src/app/app&#45;store.ts&#45;&gt;src/modules/user</title>
<path fill="none" stroke="#000000" stroke-width="2" stroke-opacity="0.200000" d="M530.89,-260.94C535.4,-251.61 542.89,-236.08 548.33,-224.82"/>
<polygon fill="#000000" fill-opacity="0.200000" stroke="#000000" stroke-width="2" stroke-opacity="0.200000" points="550.24,-225.69 550.96,-219.37 546.46,-223.86 550.24,-225.69"/>
</g>
<!-- src/modules/auth&#45;&gt;src/api/pizza&#45;store -->
<g id="edge27" class="edge">
<title>src/modules/auth&#45;&gt;src/api/pizza&#45;store</title>
<path fill="none" stroke="#000000" stroke-width="2" stroke-opacity="0.200000" d="M545.95,-174.2C483.42,-165.42 328.66,-143.68 255.94,-133.47"/>
<polygon fill="#000000" fill-opacity="0.200000" stroke="#000000" stroke-width="2" stroke-opacity="0.200000" points="255.82,-131.33 249.58,-132.58 255.23,-135.49 255.82,-131.33"/>
</g>
<!-- src/modules/auth&#45;&gt;src/common/redux -->
<g id="edge24" class="edge">
<title>src/modules/auth&#45;&gt;src/common/redux</title>
<path fill="none" stroke="#000000" stroke-width="2" stroke-opacity="0.200000" d="M582.87,-169.7C584.93,-167.43 586.83,-164.81 588,-162 598.9,-135.67 596.33,-101.54 593.59,-82.49"/>
<polygon fill="#000000" fill-opacity="0.200000" stroke="#000000" stroke-width="2" stroke-opacity="0.200000" points="595.61,-81.8 592.6,-76.2 591.46,-82.45 595.61,-81.8"/>
</g>
<!-- src/modules/auth&#45;&gt;src/modules/core -->
<g id="edge26" class="edge">
<title>src/modules/auth&#45;&gt;src/modules/core</title>
<path fill="none" stroke="#000000" stroke-width="2" stroke-opacity="0.200000" d="M570.03,-169.74C567.3,-162.17 563.21,-150.81 559.98,-141.85"/>
<polygon fill="#000000" fill-opacity="0.200000" stroke="#000000" stroke-width="2" stroke-opacity="0.200000" points="561.93,-141.04 557.92,-136.1 557.97,-142.46 561.93,-141.04"/>
</g>
<!-- src/modules/auth&#45;&gt;src/common/utils -->
<g id="edge25" class="edge">
<title>src/modules/auth&#45;&gt;src/common/utils</title>
<path fill="none" stroke="#000000" stroke-width="2" stroke-opacity="0.200000" d="M585.78,-169.92C615.82,-150.91 688.53,-104.7 690,-102 701.03,-81.69 702.27,-69.59 690,-50 689.05,-48.48 687.91,-47.11 686.63,-45.86"/>
<polygon fill="#000000" fill-opacity="0.200000" stroke="#000000" stroke-width="2" stroke-opacity="0.200000" points="687.86,-44.15 681.84,-42.08 685.26,-47.45 687.86,-44.15"/>
</g>
<!-- src/modules/core&#45;&gt;src/api/common -->
<g id="edge28" class="edge">
<title>src/modules/core&#45;&gt;src/api/common</title>
<path fill="none" stroke="#000000" stroke-width="2" stroke-opacity="0.200000" d="M527.9,-125.73C465.01,-124.78 310.9,-120.58 263,-102 250.93,-97.32 239.42,-88.21 231.21,-80.59"/>
<polygon fill="#000000" fill-opacity="0.200000" stroke="#000000" stroke-width="2" stroke-opacity="0.200000" points="232.32,-78.75 226.54,-76.1 229.41,-81.77 232.32,-78.75"/>
</g>
<!-- src/modules/core&#45;&gt;src/common/redux -->
<g id="edge30" class="edge">
<title>src/modules/core&#45;&gt;src/common/redux</title>
<path fill="none" stroke="#000000" stroke-width="2" stroke-opacity="0.200000" d="M560.01,-117.94C565.85,-108.52 575.61,-92.8 582.61,-81.51"/>
<polygon fill="#000000" fill-opacity="0.200000" stroke="#000000" stroke-width="2" stroke-opacity="0.200000" points="584.42,-82.58 585.8,-76.37 580.86,-80.36 584.42,-82.58"/>
</g>
<!-- src/modules/core&#45;&gt;src/common/utils -->
<g id="edge31" class="edge">
<title>src/modules/core&#45;&gt;src/common/utils</title>
<path fill="none" stroke="#000000" stroke-width="2" stroke-opacity="0.200000" d="M527.51,-125.72C460.13,-124.73 290.93,-120.44 274,-102 258.37,-84.98 258,-66.68 274,-50 286.02,-37.47 533,-34.74 623.84,-34.15"/>
<polygon fill="#000000" fill-opacity="0.200000" stroke="#000000" stroke-width="2" stroke-opacity="0.200000" points="623.87,-36.25 629.85,-34.12 623.84,-32.05 623.87,-36.25"/>
</g>
<!-- src/common/i18n -->
<g id="node18" class="node">
<title>src/common/i18n</title>
<g id="a_node18"><a xlink:href="src/common/i18n" xlink:title="i18n">
<polygon fill="#ffffcc" stroke="black" points="552,-76 500,-76 498,-74 498,-58 550,-58 552,-60 552,-76"/>
<polyline fill="none" stroke="black" points="550,-74 498,-74 "/>
<polyline fill="none" stroke="black" points="550,-74 550,-58 "/>
<polyline fill="none" stroke="black" points="550,-74 552,-76 "/>
<text text-anchor="middle" x="525" y="-64.8" font-family="Helvetica,sans-Serif" font-size="9.00">i18n</text>
</a>
</g>
</g>
<!-- src/modules/core&#45;&gt;src/common/i18n -->
<g id="edge29" class="edge">
<title>src/modules/core&#45;&gt;src/common/i18n</title>
<path fill="none" stroke="#000000" stroke-width="2" stroke-opacity="0.200000" d="M550.83,-117.94C546,-108.61 537.97,-93.08 532.15,-81.82"/>
<polygon fill="#000000" fill-opacity="0.200000" stroke="#000000" stroke-width="2" stroke-opacity="0.200000" points="533.95,-80.74 529.33,-76.37 530.22,-82.67 533.95,-80.74"/>
</g>
<!-- src/common/local&#45;storage -->
<g id="node19" class="node">
<title>src/common/local&#45;storage</title>
<g id="a_node19"><a xlink:href="src/common/local-storage" xlink:title="local&#45;storage">
<polygon fill="#ffffcc" stroke="black" points="486,-76 414,-76 412,-74 412,-58 484,-58 486,-60 486,-76"/>
<polyline fill="none" stroke="black" points="484,-74 412,-74 "/>
<polyline fill="none" stroke="black" points="484,-74 484,-58 "/>
<polyline fill="none" stroke="black" points="484,-74 486,-76 "/>
<text text-anchor="middle" x="449" y="-64.8" font-family="Helvetica,sans-Serif" font-size="9.00">local&#45;storage</text>
</a>
</g>
</g>
<!-- src/modules/core&#45;&gt;src/common/local&#45;storage -->
<g id="edge32" class="edge">
<title>src/modules/core&#45;&gt;src/common/local&#45;storage</title>
<path fill="none" stroke="#000000" stroke-width="2" stroke-opacity="0.200000" d="M528.44,-117.91C516.88,-113.88 503.4,-108.47 492,-102 481.31,-95.93 470.46,-87.33 462.33,-80.29"/>
<polygon fill="#000000" fill-opacity="0.200000" stroke="#000000" stroke-width="2" stroke-opacity="0.200000" points="463.53,-78.55 457.65,-76.15 460.75,-81.7 463.53,-78.55"/>
</g>
<!-- src/modules/github&#45;&gt;src/api/github -->
<g id="edge36" class="edge">
<title>src/modules/github&#45;&gt;src/api/github</title>
<path fill="none" stroke="#000000" stroke-width="2" stroke-opacity="0.200000" d="M593.69,-202.06C591.77,-201.67 589.86,-201.31 588,-201 407.92,-170.75 344.19,-239.82 179,-162 169.06,-157.32 160.35,-148.46 154.24,-140.96"/>
<polygon fill="#000000" fill-opacity="0.200000" stroke="#000000" stroke-width="2" stroke-opacity="0.200000" points="155.77,-139.51 150.44,-136.05 152.45,-142.08 155.77,-139.51"/>
</g>
<!-- src/modules/github&#45;&gt;src/common/redux -->
<g id="edge34" class="edge">
<title>src/modules/github&#45;&gt;src/common/redux</title>
<path fill="none" stroke="#000000" stroke-width="2" stroke-opacity="0.200000" d="M622.04,-200.81C623.95,-183.56 626.93,-142.4 617,-110 613.77,-99.47 607.25,-88.94 601.54,-81.06"/>
<polygon fill="#000000" fill-opacity="0.200000" stroke="#000000" stroke-width="2" stroke-opacity="0.200000" points="603.06,-79.58 597.77,-76.06 599.7,-82.11 603.06,-79.58"/>
</g>
<!-- src/common/ui -->
<g id="node16" class="node">
<title>src/common/ui</title>
<g id="a_node16"><a xlink:href="src/common/ui" xlink:title="ui">
<polygon fill="#ffffcc" stroke="black" points="684,-76 632,-76 630,-74 630,-58 682,-58 684,-60 684,-76"/>
<polyline fill="none" stroke="black" points="682,-74 630,-74 "/>
<polyline fill="none" stroke="black" points="682,-74 682,-58 "/>
<polyline fill="none" stroke="black" points="682,-74 684,-76 "/>
<text text-anchor="middle" x="657" y="-64.8" font-family="Helvetica,sans-Serif" font-size="9.00">ui</text>
</a>
</g>
</g>
<!-- src/modules/github&#45;&gt;src/common/ui -->
<g id="edge33" class="edge">
<title>src/modules/github&#45;&gt;src/common/ui</title>
<path fill="none" stroke="#000000" stroke-width="2" stroke-opacity="0.200000" d="M623.4,-200.84C624.52,-196.96 625.86,-192.25 627,-188 637.21,-149.86 648.23,-104.61 653.63,-82.13"/>
<polygon fill="#000000" fill-opacity="0.200000" stroke="#000000" stroke-width="2" stroke-opacity="0.200000" points="655.7,-82.5 655.06,-76.17 651.62,-81.52 655.7,-82.5"/>
</g>
<!-- src/modules/github&#45;&gt;src/common/utils -->
<g id="edge35" class="edge">
<title>src/modules/github&#45;&gt;src/common/utils</title>
<path fill="none" stroke="#000000" stroke-width="2" stroke-opacity="0.200000" d="M636.64,-200.96C651.25,-192.8 672.87,-178.97 687,-162 705.83,-139.39 708.63,-130.73 715,-102 720.01,-79.44 729,-68.39 715,-50 709.03,-42.15 699.57,-37.92 690.01,-35.7"/>
<polygon fill="#000000" fill-opacity="0.200000" stroke="#000000" stroke-width="2" stroke-opacity="0.200000" points="690.37,-33.63 684.08,-34.56 689.58,-37.75 690.37,-33.63"/>
</g>
<!-- src/modules/user&#45;&gt;src/api/pizza&#45;store -->
<g id="edge42" class="edge">
<title>src/modules/user&#45;&gt;src/api/pizza&#45;store</title>
<path fill="none" stroke="#000000" stroke-width="2" stroke-opacity="0.200000" d="M527.91,-202.51C468.15,-188.19 324.84,-153.84 255.66,-137.26"/>
<polygon fill="#000000" fill-opacity="0.200000" stroke="#000000" stroke-width="2" stroke-opacity="0.200000" points="255.93,-135.17 249.6,-135.81 254.95,-139.25 255.93,-135.17"/>
</g>
<!-- src/modules/user&#45;&gt;src/common/redux -->
<g id="edge41" class="edge">
<title>src/modules/user&#45;&gt;src/common/redux</title>
<path fill="none" stroke="#000000" stroke-width="2" stroke-opacity="0.200000" d="M581.86,-200.97C592.52,-197.2 602.96,-192.53 606,-188 628.08,-155.03 609.38,-105.34 598.08,-81.59"/>
<polygon fill="#000000" fill-opacity="0.200000" stroke="#000000" stroke-width="2" stroke-opacity="0.200000" points="599.93,-80.59 595.4,-76.13 596.17,-82.44 599.93,-80.59"/>
</g>
<!-- src/modules/user&#45;&gt;src/modules/auth -->
<g id="edge39" class="edge">
<title>src/modules/user&#45;&gt;src/modules/auth</title>
<path fill="none" stroke="#000000" stroke-width="2" stroke-opacity="0.200000" d="M560.11,-200.77C561.47,-198.58 562.97,-196.16 564.45,-193.77"/>
<polygon fill="#000000" fill-opacity="0.200000" stroke="#000000" stroke-width="2" stroke-opacity="0.200000" points="566.43,-194.56 567.81,-188.35 562.87,-192.34 566.43,-194.56"/>
</g>
<!-- src/modules/user&#45;&gt;src/modules/core -->
<g id="edge40" class="edge">
<title>src/modules/user&#45;&gt;src/modules/core</title>
<path fill="none" stroke="#000000" stroke-width="2" stroke-opacity="0.200000" d="M547.24,-200.68C544.38,-197.07 541.48,-192.61 540,-188 534.99,-172.36 541.32,-153.99 547.23,-141.73"/>
<polygon fill="#000000" fill-opacity="0.200000" stroke="#000000" stroke-width="2" stroke-opacity="0.200000" points="549.18,-142.54 550.05,-136.25 545.44,-140.63 549.18,-142.54"/>
</g>
<!-- src/modules/user&#45;&gt;src/common/ui -->
<g id="edge37" class="edge">
<title>src/modules/user&#45;&gt;src/common/ui</title>
<path fill="none" stroke="#000000" stroke-width="2" stroke-opacity="0.200000" d="M582.14,-201.85C595.04,-197.94 608.6,-192.9 613,-188 636.83,-161.44 618.5,-143.03 632,-110 636.12,-99.92 642.4,-89.38 647.63,-81.39"/>
<polygon fill="#000000" fill-opacity="0.200000" stroke="#000000" stroke-width="2" stroke-opacity="0.200000" points="649.45,-82.45 651.04,-76.3 645.96,-80.11 649.45,-82.45"/>
</g>
<!-- src/modules/user&#45;&gt;src/common/utils -->
<g id="edge38" class="edge">
<title>src/modules/user&#45;&gt;src/common/utils</title>
<path fill="none" stroke="#000000" stroke-width="2" stroke-opacity="0.200000" d="M582.21,-202.12C597.69,-197.89 615.3,-192.45 622,-188 659.83,-162.88 655.45,-141.67 688,-110 692.08,-106.03 695.53,-107.13 698,-102 708.01,-81.17 711.04,-69.08 698,-50 695.79,-46.77 692.83,-44.19 689.5,-42.14"/>
<polygon fill="#000000" fill-opacity="0.200000" stroke="#000000" stroke-width="2" stroke-opacity="0.200000" points="690.32,-40.19 684.02,-39.31 688.4,-43.93 690.32,-40.19"/>
</g>
<!-- src/app/app.tsx -->
<g id="node14" class="node">
<title>src/app/app.tsx</title>
<g id="a_node14"><a xlink:href="src/app/app.tsx" xlink:title="app.tsx">
<path fill="#bbfeff" stroke="black" d="M548,-310C548,-310 506,-310 506,-310 503,-310 500,-307 500,-304 500,-304 500,-298 500,-298 500,-295 503,-292 506,-292 506,-292 548,-292 548,-292 551,-292 554,-295 554,-298 554,-298 554,-304 554,-304 554,-307 551,-310 548,-310"/>
<text text-anchor="middle" x="527" y="-298.8" font-family="Helvetica,sans-Serif" font-size="9.00">app.tsx</text>
</a>
</g>
</g>
<!-- src/app/app.tsx&#45;&gt;src/app/app&#45;store.ts -->
<g id="edge12" class="edge">
<title>src/app/app.tsx&#45;&gt;src/app/app&#45;store.ts</title>
<path fill="none" stroke="#000000" stroke-width="2" stroke-opacity="0.200000" d="M527,-291.77C527,-289.82 527,-287.7 527,-285.57"/>
<polygon fill="#000000" fill-opacity="0.200000" stroke="#000000" stroke-width="2" stroke-opacity="0.200000" points="529.1,-285.35 527,-279.35 524.9,-285.35 529.1,-285.35"/>
</g>
<!-- src/app/app.tsx&#45;&gt;src/modules/core -->
<g id="edge13" class="edge">
<title>src/app/app.tsx&#45;&gt;src/modules/core</title>
<path fill="none" stroke="#000000" stroke-width="2" stroke-opacity="0.200000" d="M500.67,-291.84C494.86,-288.76 489.42,-284.6 486,-279 482.41,-273.12 483.92,-224.04 488,-201 490.52,-186.74 489.54,-181.75 498,-170 507.28,-157.11 521.71,-146.53 533.73,-139.22"/>
<polygon fill="#000000" fill-opacity="0.200000" stroke="#000000" stroke-width="2" stroke-opacity="0.200000" points="534.95,-140.94 539.06,-136.09 532.82,-137.32 534.95,-140.94"/>
</g>
<!-- src/app/ui -->
<g id="node15" class="node">
<title>src/app/ui</title>
<g id="a_node15"><a xlink:href="src/app/ui" xlink:title="ui">
<polygon fill="#ffffcc" stroke="black" points="629,-279 577,-279 575,-277 575,-261 627,-261 629,-263 629,-279"/>
<polyline fill="none" stroke="black" points="627,-277 575,-277 "/>
<polyline fill="none" stroke="black" points="627,-277 627,-261 "/>
<polyline fill="none" stroke="black" points="627,-277 629,-279 "/>
<text text-anchor="middle" x="602" y="-267.8" font-family="Helvetica,sans-Serif" font-size="9.00">ui</text>
</a>
</g>
</g>
<!-- src/app/app.tsx&#45;&gt;src/app/ui -->
<g id="edge11" class="edge">
<title>src/app/app.tsx&#45;&gt;src/app/ui</title>
<path fill="none" stroke="#000000" stroke-width="2" stroke-opacity="0.200000" d="M547.89,-291.92C556.42,-288.62 566.4,-284.77 575.44,-281.27"/>
<polygon fill="#000000" fill-opacity="0.200000" stroke="#000000" stroke-width="2" stroke-opacity="0.200000" points="576.38,-283.16 581.22,-279.03 574.87,-279.24 576.38,-283.16"/>
</g>
<!-- src/app/ui&#45;&gt;src/modules/core -->
<g id="edge14" class="edge">
<title>src/app/ui&#45;&gt;src/modules/core</title>
<path fill="none" stroke="#000000" stroke-width="2" stroke-opacity="0.200000" d="M587.58,-260.91C581.93,-258.04 575.31,-255.02 569,-253 548.82,-246.54 535.67,-261.19 522,-245 496.05,-214.26 527.03,-164.45 544.55,-140.99"/>
<polygon fill="#000000" fill-opacity="0.200000" stroke="#000000" stroke-width="2" stroke-opacity="0.200000" points="546.29,-142.18 548.27,-136.14 542.95,-139.63 546.29,-142.18"/>
</g>
<!-- src/app/ui&#45;&gt;src/modules/github -->
<g id="edge15" class="edge">
<title>src/app/ui&#45;&gt;src/modules/github</title>
<path fill="none" stroke="#000000" stroke-width="2" stroke-opacity="0.200000" d="M604.64,-260.94C607.67,-251.69 612.69,-236.37 616.37,-225.13"/>
<polygon fill="#000000" fill-opacity="0.200000" stroke="#000000" stroke-width="2" stroke-opacity="0.200000" points="618.39,-225.73 618.26,-219.37 614.39,-224.42 618.39,-225.73"/>
</g>
<!-- src/app/ui&#45;&gt;src/modules/user -->
<g id="edge16" class="edge">
<title>src/app/ui&#45;&gt;src/modules/user</title>
<path fill="none" stroke="#000000" stroke-width="2" stroke-opacity="0.200000" d="M595.46,-260.94C587.77,-251.43 574.86,-235.51 565.7,-224.2"/>
<polygon fill="#000000" fill-opacity="0.200000" stroke="#000000" stroke-width="2" stroke-opacity="0.200000" points="567.19,-222.71 561.78,-219.37 563.93,-225.36 567.19,-222.71"/>
</g>
<!-- src/app/ui&#45;&gt;src/common/ui -->
<g id="edge17" class="edge">
<title>src/app/ui&#45;&gt;src/common/ui</title>
<path fill="none" stroke="#000000" stroke-width="2" stroke-opacity="0.200000" d="M629.15,-266.16C655.31,-262.8 692.2,-256.19 701,-245 738.09,-197.84 724.6,-165.16 701,-110 695.69,-97.6 684.73,-87.12 675.07,-79.73"/>
<polygon fill="#000000" fill-opacity="0.200000" stroke="#000000" stroke-width="2" stroke-opacity="0.200000" points="676.26,-77.99 670.18,-76.15 673.78,-81.38 676.26,-77.99"/>
</g>
<!-- src/app/ui&#45;&gt;src/common/utils -->
<g id="edge18" class="edge">
<title>src/app/ui&#45;&gt;src/common/utils</title>
<path fill="none" stroke="#000000" stroke-width="2" stroke-opacity="0.200000" d="M629.15,-266.26C658.37,-262.79 702.37,-255.92 715,-245 738.29,-224.85 739,-210.8 739,-180 739,-180 739,-180 739,-126 739,-91.39 746.21,-74.73 722,-50 713.77,-41.59 701.88,-37.33 690.52,-35.25"/>
<polygon fill="#000000" fill-opacity="0.200000" stroke="#000000" stroke-width="2" stroke-opacity="0.200000" points="690.53,-33.13 684.28,-34.31 689.9,-37.28 690.53,-33.13"/>
</g>
<!-- src/common/i18n&#45;&gt;src/common/utils -->
<g id="edge20" class="edge">
<title>src/common/i18n&#45;&gt;src/common/utils</title>
<path fill="none" stroke="#000000" stroke-width="2" stroke-opacity="0.200000" d="M539.41,-57.89C545.06,-55.01 551.69,-51.99 558,-50 579.27,-43.28 604.05,-39.28 623.5,-36.96"/>
<polygon fill="#000000" fill-opacity="0.200000" stroke="#000000" stroke-width="2" stroke-opacity="0.200000" points="623.89,-39.03 629.61,-36.26 623.42,-34.86 623.89,-39.03"/>
</g>
<!-- src/index.scss -->
<g id="node20" class="node">
<title>src/index.scss</title>
<g id="a_node20"><a xlink:href="src/index.scss" xlink:title="index.scss">
<path fill="#ffffcc" stroke="black" d="M702.5,-310C702.5,-310 651.5,-310 651.5,-310 648.5,-310 645.5,-307 645.5,-304 645.5,-304 645.5,-298 645.5,-298 645.5,-295 648.5,-292 651.5,-292 651.5,-292 702.5,-292 702.5,-292 705.5,-292 708.5,-295 708.5,-298 708.5,-298 708.5,-304 708.5,-304 708.5,-307 705.5,-310 702.5,-310"/>
<text text-anchor="middle" x="677" y="-298.8" font-family="Helvetica,sans-Serif" font-size="9.00">index.scss</text>
</a>
</g>
</g>
<!-- src/index.tsx -->
<g id="node21" class="node">
<title>src/index.tsx</title>
<g id="a_node21"><a xlink:href="src/index.tsx" xlink:title="index.tsx">
<path fill="#bbfeff" stroke="black" d="M550,-378C550,-378 504,-378 504,-378 501,-378 498,-375 498,-372 498,-372 498,-366 498,-366 498,-363 501,-360 504,-360 504,-360 550,-360 550,-360 553,-360 556,-363 556,-366 556,-366 556,-372 556,-372 556,-375 553,-378 550,-378"/>
<text text-anchor="middle" x="527" y="-366.8" font-family="Helvetica,sans-Serif" font-size="9.00">index.tsx</text>
</a>
</g>
</g>
<!-- src/index.tsx&#45;&gt;src/modules/core -->
<g id="edge23" class="edge">
<title>src/index.tsx&#45;&gt;src/modules/core</title>
<path fill="none" stroke="#000000" stroke-width="2" stroke-opacity="0.200000" d="M511.02,-359.96C501.09,-354.34 488.61,-346.04 480,-336 459.16,-311.71 449,-303.01 449,-271 449,-271 449,-271 449,-209 449,-171.61 491.16,-149.16 522.3,-137.68"/>
<polygon fill="#000000" fill-opacity="0.200000" stroke="#000000" stroke-width="2" stroke-opacity="0.200000" points="523.03,-139.65 527.98,-135.67 521.62,-135.7 523.03,-139.65"/>
</g>
<!-- src/index.tsx&#45;&gt;src/app/app.tsx -->
<g id="edge22" class="edge">
<title>src/index.tsx&#45;&gt;src/app/app.tsx</title>
<path fill="none" stroke="#000000" stroke-width="2" stroke-opacity="0.200000" d="M527,-359.91C527,-349.12 527,-329.84 527,-316.51"/>
<polygon fill="#000000" fill-opacity="0.200000" stroke="#000000" stroke-width="2" stroke-opacity="0.200000" points="529.1,-316.16 527,-310.16 524.9,-316.16 529.1,-316.16"/>
</g>
<!-- src/index.tsx&#45;&gt;src/index.scss -->
<g id="edge21" class="edge">
<title>src/index.tsx&#45;&gt;src/index.scss</title>
<path fill="none" stroke="#000000" stroke-width="2" stroke-opacity="0.200000" d="M556.3,-363.58C580.01,-359.12 613.66,-350.72 640,-336 649.78,-330.54 659.05,-322 665.87,-314.85"/>
<polygon fill="#000000" fill-opacity="0.200000" stroke="#000000" stroke-width="2" stroke-opacity="0.200000" points="667.66,-316.01 670.17,-310.18 664.57,-313.17 667.66,-316.01"/>
</g>
</g>
</svg>
