<?xml version="1.0" encoding="UTF-8" standalone="no"?>
<!DOCTYPE svg PUBLIC "-//W3C//DTD SVG 1.1//EN"
 "http://www.w3.org/Graphics/SVG/1.1/DTD/svg11.dtd">
<!-- Generated by graphviz version 2.43.0 (0)
 -->
<!-- Title: dependency&#45;cruiser output Pages: 1 -->
<svg width="670pt" height="404pt"
 viewBox="0.00 0.00 670.00 404.00" xmlns="http://www.w3.org/2000/svg" xmlns:xlink="http://www.w3.org/1999/xlink">
<g id="graph0" class="graph" transform="scale(1 1) rotate(0) translate(4 400)">
<title>dependency&#45;cruiser output</title>
<polygon fill="white" stroke="transparent" points="-4,4 -4,-400 666,-400 666,4 -4,4"/>
<g id="clust1" class="cluster">
<title>cluster_src</title>
<path fill="#ffffff" stroke="black" stroke-width="2" d="M20,-8C20,-8 642,-8 642,-8 648,-8 654,-14 654,-20 654,-20 654,-376 654,-376 654,-382 648,-388 642,-388 642,-388 20,-388 20,-388 14,-388 8,-382 8,-376 8,-376 8,-20 8,-20 8,-14 14,-8 20,-8"/>
<text text-anchor="middle" x="331" y="-376.8" font-family="Helvetica,sans-Serif" font-weight="bold" font-size="9.00">src</text>
</g>
<g id="clust2" class="cluster">
<title>cluster_src/api</title>
<path fill="#ffffff" stroke="black" stroke-width="2" d="M28,-50C28,-50 152,-50 152,-50 158,-50 164,-56 164,-62 164,-62 164,-150 164,-150 164,-156 158,-162 152,-162 152,-162 28,-162 28,-162 22,-162 16,-156 16,-150 16,-150 16,-62 16,-62 16,-56 22,-50 28,-50"/>
<text text-anchor="middle" x="90" y="-150.8" font-family="Helvetica,sans-Serif" font-weight="bold" font-size="9.00">api</text>
</g>
<g id="clust3" class="cluster">
<title>cluster_src/app</title>
<path fill="#ffffff" stroke="black" stroke-width="2" d="M401,-253C401,-253 531,-253 531,-253 537,-253 543,-259 543,-265 543,-265 543,-324 543,-324 543,-330 537,-336 531,-336 531,-336 401,-336 401,-336 395,-336 389,-330 389,-324 389,-324 389,-265 389,-265 389,-259 395,-253 401,-253"/>
<text text-anchor="middle" x="466" y="-324.8" font-family="Helvetica,sans-Serif" font-weight="bold" font-size="9.00">app</text>
</g>
<g id="clust4" class="cluster">
<title>cluster_src/common</title>
<path fill="#ffffff" stroke="black" stroke-width="2" d="M190,-16C190,-16 586,-16 586,-16 592,-16 598,-22 598,-28 598,-28 598,-90 598,-90 598,-96 592,-102 586,-102 586,-102 190,-102 190,-102 184,-102 178,-96 178,-90 178,-90 178,-28 178,-28 178,-22 184,-16 190,-16"/>
<text text-anchor="middle" x="388" y="-90.8" font-family="Helvetica,sans-Serif" font-weight="bold" font-size="9.00">common</text>
</g>
<g id="clust5" class="cluster">
<title>cluster_src/modules</title>
<path fill="#ffffff" stroke="black" stroke-width="2" d="M438,-110C438,-110 550,-110 550,-110 556,-110 562,-116 562,-122 562,-122 562,-233 562,-233 562,-239 556,-245 550,-245 550,-245 438,-245 438,-245 432,-245 426,-239 426,-233 426,-233 426,-122 426,-122 426,-116 432,-110 438,-110"/>
<text text-anchor="middle" x="494" y="-233.8" font-family="Helvetica,sans-Serif" font-weight="bold" font-size="9.00">modules</text>
</g>
<!-- src/.eslintrc.js -->
<g id="node1" class="node">
<title>src/.eslintrc.js</title>
<g id="a_node1"><a xlink:href="src/.eslintrc.js" xlink:title=".eslintrc.js">
<path fill="#ccffcc" stroke="black" d="M592,-362C592,-362 542,-362 542,-362 539,-362 536,-359 536,-356 536,-356 536,-350 536,-350 536,-347 539,-344 542,-344 542,-344 592,-344 592,-344 595,-344 598,-347 598,-350 598,-350 598,-356 598,-356 598,-359 595,-362 592,-362"/>
<text text-anchor="middle" x="567" y="-350.8" font-family="Helvetica,sans-Serif" font-size="9.00">.eslintrc.js</text>
</a>
</g>
</g>
<!-- src/api/common -->
<g id="node2" class="node">
<title>src/api/common</title>
<g id="a_node2"><a xlink:href="src/api/common" xlink:title="common">
<polygon fill="#ffffcc" stroke="black" points="153,-76 99,-76 97,-74 97,-58 151,-58 153,-60 153,-76"/>
<polyline fill="none" stroke="black" points="151,-74 97,-74 "/>
<polyline fill="none" stroke="black" points="151,-74 151,-58 "/>
<polyline fill="none" stroke="black" points="151,-74 153,-76 "/>
<text text-anchor="middle" x="125" y="-64.8" font-family="Helvetica,sans-Serif" font-size="9.00">common</text>
</a>
</g>
</g>
<!-- src/common/http -->
<g id="node3" class="node">
<title>src/common/http</title>
<g id="a_node3"><a xlink:href="src/common/http" xlink:title="http">
<polygon fill="#ffffcc" stroke="black" points="306,-76 254,-76 252,-74 252,-58 304,-58 306,-60 306,-76"/>
<polyline fill="none" stroke="black" points="304,-74 252,-74 "/>
<polyline fill="none" stroke="black" points="304,-74 304,-58 "/>
<polyline fill="none" stroke="black" points="304,-74 306,-76 "/>
<text text-anchor="middle" x="279" y="-64.8" font-family="Helvetica,sans-Serif" font-size="9.00">http</text>
</a>
</g>
</g>
<!-- src/api/common&#45;&gt;src/common/http -->
<g id="edge1" class="edge">
<title>src/api/common&#45;&gt;src/common/http</title>
<path fill="none" stroke="#000000" stroke-width="2" stroke-opacity="0.200000" d="M134.29,-76.31C144.65,-85.95 162.4,-100.37 181,-106 193.55,-109.8 227.45,-109.8 240,-106 252.99,-102.07 263.55,-90.53 270.39,-81.02"/>
<polygon fill="#000000" fill-opacity="0.200000" stroke="#000000" stroke-width="2" stroke-opacity="0.200000" points="272.17,-82.15 273.8,-76 268.69,-79.79 272.17,-82.15"/>
</g>
<!-- src/common/utils -->
<g id="node16" class="node">
<title>src/common/utils</title>
<g id="a_node16"><a xlink:href="src/common/utils" xlink:title="utils">
<polygon fill="#ffffcc" stroke="black" points="590,-42 538,-42 536,-40 536,-24 588,-24 590,-26 590,-42"/>
<polyline fill="none" stroke="black" points="588,-40 536,-40 "/>
<polyline fill="none" stroke="black" points="588,-40 588,-24 "/>
<polyline fill="none" stroke="black" points="588,-40 590,-42 "/>
<text text-anchor="middle" x="563" y="-30.8" font-family="Helvetica,sans-Serif" font-size="9.00">utils</text>
</a>
</g>
</g>
<!-- src/common/http&#45;&gt;src/common/utils -->
<g id="edge19" class="edge">
<title>src/common/http&#45;&gt;src/common/utils</title>
<path fill="none" stroke="#000000" stroke-width="2" stroke-opacity="0.200000" d="M292.67,-57.9C298.44,-54.87 305.35,-51.75 312,-50 352.13,-39.43 471.04,-35.74 529.62,-34.53"/>
<polygon fill="#000000" fill-opacity="0.200000" stroke="#000000" stroke-width="2" stroke-opacity="0.200000" points="529.82,-36.63 535.78,-34.41 529.74,-32.43 529.82,-36.63"/>
</g>
<!-- src/api/github -->
<g id="node4" class="node">
<title>src/api/github</title>
<g id="a_node4"><a xlink:href="src/api/github" xlink:title="github">
<polygon fill="#ffffcc" stroke="black" points="78,-136 26,-136 24,-134 24,-118 76,-118 78,-120 78,-136"/>
<polyline fill="none" stroke="black" points="76,-134 24,-134 "/>
<polyline fill="none" stroke="black" points="76,-134 76,-118 "/>
<polyline fill="none" stroke="black" points="76,-134 78,-136 "/>
<text text-anchor="middle" x="51" y="-124.8" font-family="Helvetica,sans-Serif" font-size="9.00">github</text>
</a>
</g>
</g>
<!-- src/api/github&#45;&gt;src/api/common -->
<g id="edge2" class="edge">
<title>src/api/github&#45;&gt;src/api/common</title>
<path fill="none" stroke="#000000" stroke-width="2" stroke-opacity="0.200000" d="M61.29,-117.94C73.74,-108.18 94.83,-91.65 109.31,-80.3"/>
<polygon fill="#000000" fill-opacity="0.200000" stroke="#000000" stroke-width="2" stroke-opacity="0.200000" points="110.89,-81.73 114.32,-76.37 108.3,-78.42 110.89,-81.73"/>
</g>
<!-- src/api/pizza&#45;store -->
<g id="node5" class="node">
<title>src/api/pizza&#45;store</title>
<g id="a_node5"><a xlink:href="src/api/pizza-store" xlink:title="pizza&#45;store">
<polygon fill="#ffffcc" stroke="black" points="155.5,-136 92.5,-136 90.5,-134 90.5,-118 153.5,-118 155.5,-120 155.5,-136"/>
<polyline fill="none" stroke="black" points="153.5,-134 90.5,-134 "/>
<polyline fill="none" stroke="black" points="153.5,-134 153.5,-118 "/>
<polyline fill="none" stroke="black" points="153.5,-134 155.5,-136 "/>
<text text-anchor="middle" x="123" y="-124.8" font-family="Helvetica,sans-Serif" font-size="9.00">pizza&#45;store</text>
</a>
</g>
</g>
<!-- src/api/pizza&#45;store&#45;&gt;src/api/common -->
<g id="edge3" class="edge">
<title>src/api/pizza&#45;store&#45;&gt;src/api/common</title>
<path fill="none" stroke="#000000" stroke-width="2" stroke-opacity="0.200000" d="M123.28,-117.94C123.59,-108.78 124.12,-93.65 124.5,-82.44"/>
<polygon fill="#000000" fill-opacity="0.200000" stroke="#000000" stroke-width="2" stroke-opacity="0.200000" points="126.6,-82.44 124.71,-76.37 122.41,-82.3 126.6,-82.44"/>
</g>
<!-- src/api/pizza&#45;store&#45;&gt;src/common/http -->
<g id="edge5" class="edge">
<title>src/api/pizza&#45;store&#45;&gt;src/common/http</title>
<path fill="none" stroke="#000000" stroke-width="2" stroke-opacity="0.200000" d="M155.61,-124.94C181.5,-122.89 217.88,-117.24 246,-102 255.4,-96.91 263.77,-88.22 269.72,-80.9"/>
<polygon fill="#000000" fill-opacity="0.200000" stroke="#000000" stroke-width="2" stroke-opacity="0.200000" points="271.42,-82.14 273.44,-76.11 268.1,-79.56 271.42,-82.14"/>
</g>
<!-- src/common/api -->
<g id="node6" class="node">
<title>src/common/api</title>
<g id="a_node6"><a xlink:href="src/common/api" xlink:title="api">
<polygon fill="#ffffcc" stroke="black" points="240,-76 188,-76 186,-74 186,-58 238,-58 240,-60 240,-76"/>
<polyline fill="none" stroke="black" points="238,-74 186,-74 "/>
<polyline fill="none" stroke="black" points="238,-74 238,-58 "/>
<polyline fill="none" stroke="black" points="238,-74 240,-76 "/>
<text text-anchor="middle" x="213" y="-64.8" font-family="Helvetica,sans-Serif" font-size="9.00">api</text>
</a>
</g>
</g>
<!-- src/api/pizza&#45;store&#45;&gt;src/common/api -->
<g id="edge4" class="edge">
<title>src/api/pizza&#45;store&#45;&gt;src/common/api</title>
<path fill="none" stroke="#000000" stroke-width="2" stroke-opacity="0.200000" d="M139.19,-117.85C147.64,-113.43 158.05,-107.71 167,-102 177.54,-95.28 188.83,-86.94 197.6,-80.21"/>
<polygon fill="#000000" fill-opacity="0.200000" stroke="#000000" stroke-width="2" stroke-opacity="0.200000" points="199.24,-81.59 202.69,-76.25 196.67,-78.27 199.24,-81.59"/>
</g>
<!-- src/app/app&#45;store.ts -->
<g id="node7" class="node">
<title>src/app/app&#45;store.ts</title>
<g id="a_node7"><a xlink:href="src/app/app-store.ts" xlink:title="app&#45;store.ts">
<path fill="#ddfeff" stroke="black" d="M462.5,-279C462.5,-279 403.5,-279 403.5,-279 400.5,-279 397.5,-276 397.5,-273 397.5,-273 397.5,-267 397.5,-267 397.5,-264 400.5,-261 403.5,-261 403.5,-261 462.5,-261 462.5,-261 465.5,-261 468.5,-264 468.5,-267 468.5,-267 468.5,-273 468.5,-273 468.5,-276 465.5,-279 462.5,-279"/>
<text text-anchor="middle" x="433" y="-267.8" font-family="Helvetica,sans-Serif" font-size="9.00">app&#45;store.ts</text>
</a>
</g>
</g>
<!-- src/common/redux -->
<g id="node8" class="node">
<title>src/common/redux</title>
<g id="a_node8"><a xlink:href="src/common/redux" xlink:title="redux">
<polygon fill="#ffffcc" stroke="black" points="524,-76 472,-76 470,-74 470,-58 522,-58 524,-60 524,-76"/>
<polyline fill="none" stroke="black" points="522,-74 470,-74 "/>
<polyline fill="none" stroke="black" points="522,-74 522,-58 "/>
<polyline fill="none" stroke="black" points="522,-74 524,-76 "/>
<text text-anchor="middle" x="497" y="-64.8" font-family="Helvetica,sans-Serif" font-size="9.00">redux</text>
</a>
</g>
</g>
<!-- src/app/app&#45;store.ts&#45;&gt;src/common/redux -->
<g id="edge6" class="edge">
<title>src/app/app&#45;store.ts&#45;&gt;src/common/redux</title>
<path fill="none" stroke="#000000" stroke-width="2" stroke-opacity="0.200000" d="M451.06,-260.87C458.35,-257.92 466.94,-254.86 475,-253 494.57,-248.49 551.45,-259.81 565,-245 605.5,-200.74 602.4,-156.92 565,-110 555.05,-97.52 543.91,-109.82 530,-102 520.68,-96.76 512.32,-88.07 506.34,-80.79"/>
<polygon fill="#000000" fill-opacity="0.200000" stroke="#000000" stroke-width="2" stroke-opacity="0.200000" points="507.96,-79.45 502.6,-76.04 504.66,-82.05 507.96,-79.45"/>
</g>
<!-- src/modules/auth -->
<g id="node9" class="node">
<title>src/modules/auth</title>
<g id="a_node9"><a xlink:href="src/modules/auth" xlink:title="auth">
<polygon fill="#ffffcc" stroke="black" points="506,-188 454,-188 452,-186 452,-170 504,-170 506,-172 506,-188"/>
<polyline fill="none" stroke="black" points="504,-186 452,-186 "/>
<polyline fill="none" stroke="black" points="504,-186 504,-170 "/>
<polyline fill="none" stroke="black" points="504,-186 506,-188 "/>
<text text-anchor="middle" x="479" y="-176.8" font-family="Helvetica,sans-Serif" font-size="9.00">auth</text>
</a>
</g>
</g>
<!-- src/app/app&#45;store.ts&#45;&gt;src/modules/auth -->
<g id="edge7" class="edge">
<title>src/app/app&#45;store.ts&#45;&gt;src/modules/auth</title>
<path fill="none" stroke="#000000" stroke-width="2" stroke-opacity="0.200000" d="M429.33,-260.63C423.94,-246.9 415.75,-219.29 428,-201 432.25,-194.66 438.79,-190.23 445.79,-187.14"/>
<polygon fill="#000000" fill-opacity="0.200000" stroke="#000000" stroke-width="2" stroke-opacity="0.200000" points="446.9,-188.96 451.74,-184.85 445.38,-185.05 446.9,-188.96"/>
</g>
<!-- src/modules/core -->
<g id="node10" class="node">
<title>src/modules/core</title>
<g id="a_node10"><a xlink:href="src/modules/core" xlink:title="core">
<polygon fill="#ffffcc" stroke="black" points="488,-136 436,-136 434,-134 434,-118 486,-118 488,-120 488,-136"/>
<polyline fill="none" stroke="black" points="486,-134 434,-134 "/>
<polyline fill="none" stroke="black" points="486,-134 486,-118 "/>
<polyline fill="none" stroke="black" points="486,-134 488,-136 "/>
<text text-anchor="middle" x="461" y="-124.8" font-family="Helvetica,sans-Serif" font-size="9.00">core</text>
</a>
</g>
</g>
<!-- src/app/app&#45;store.ts&#45;&gt;src/modules/core -->
<g id="edge8" class="edge">
<title>src/app/app&#45;store.ts&#45;&gt;src/modules/core</title>
<path fill="none" stroke="#000000" stroke-width="2" stroke-opacity="0.200000" d="M417.96,-260.94C412.16,-256.97 406.18,-251.61 403,-245 394.53,-227.37 397.92,-219.88 403,-201 409.81,-175.72 431.16,-153.25 445.96,-140.13"/>
<polygon fill="#000000" fill-opacity="0.200000" stroke="#000000" stroke-width="2" stroke-opacity="0.200000" points="447.53,-141.55 450.7,-136.04 444.79,-138.37 447.53,-141.55"/>
</g>
<!-- src/modules/github -->
<g id="node11" class="node">
<title>src/modules/github</title>
<g id="a_node11"><a xlink:href="src/modules/github" xlink:title="github">
<polygon fill="#ffffcc" stroke="black" points="554,-219 502,-219 500,-217 500,-201 552,-201 554,-203 554,-219"/>
<polyline fill="none" stroke="black" points="552,-217 500,-217 "/>
<polyline fill="none" stroke="black" points="552,-217 552,-201 "/>
<polyline fill="none" stroke="black" points="552,-217 554,-219 "/>
<text text-anchor="middle" x="527" y="-207.8" font-family="Helvetica,sans-Serif" font-size="9.00">github</text>
</a>
</g>
</g>
<!-- src/app/app&#45;store.ts&#45;&gt;src/modules/github -->
<g id="edge9" class="edge">
<title>src/app/app&#45;store.ts&#45;&gt;src/modules/github</title>
<path fill="none" stroke="#000000" stroke-width="2" stroke-opacity="0.200000" d="M454.13,-260.93C471.03,-254.43 492.2,-246.2 494,-245 502.51,-239.33 510.54,-231.15 516.54,-224.23"/>
<polygon fill="#000000" fill-opacity="0.200000" stroke="#000000" stroke-width="2" stroke-opacity="0.200000" points="518.47,-225.2 520.72,-219.25 515.25,-222.5 518.47,-225.2"/>
</g>
<!-- src/modules/user -->
<g id="node12" class="node">
<title>src/modules/user</title>
<g id="a_node12"><a xlink:href="src/modules/user" xlink:title="user">
<polygon fill="#ffffcc" stroke="black" points="488,-219 436,-219 434,-217 434,-201 486,-201 488,-203 488,-219"/>
<polyline fill="none" stroke="black" points="486,-217 434,-217 "/>
<polyline fill="none" stroke="black" points="486,-217 486,-201 "/>
<polyline fill="none" stroke="black" points="486,-217 488,-219 "/>
<text text-anchor="middle" x="461" y="-207.8" font-family="Helvetica,sans-Serif" font-size="9.00">user</text>
</a>
</g>
</g>
<!-- src/app/app&#45;store.ts&#45;&gt;src/modules/user -->
<g id="edge10" class="edge">
<title>src/app/app&#45;store.ts&#45;&gt;src/modules/user</title>
<path fill="none" stroke="#000000" stroke-width="2" stroke-opacity="0.200000" d="M436.89,-260.94C441.4,-251.61 448.89,-236.08 454.33,-224.82"/>
<polygon fill="#000000" fill-opacity="0.200000" stroke="#000000" stroke-width="2" stroke-opacity="0.200000" points="456.24,-225.69 456.96,-219.37 452.46,-223.86 456.24,-225.69"/>
</g>
<!-- src/modules/auth&#45;&gt;src/api/pizza&#45;store -->
<g id="edge27" class="edge">
<title>src/modules/auth&#45;&gt;src/api/pizza&#45;store</title>
<path fill="none" stroke="#000000" stroke-width="2" stroke-opacity="0.200000" d="M451.95,-174.2C389.42,-165.42 234.66,-143.68 161.94,-133.47"/>
<polygon fill="#000000" fill-opacity="0.200000" stroke="#000000" stroke-width="2" stroke-opacity="0.200000" points="161.82,-131.33 155.58,-132.58 161.23,-135.49 161.82,-131.33"/>
</g>
<!-- src/modules/auth&#45;&gt;src/common/redux -->
<g id="edge24" class="edge">
<title>src/modules/auth&#45;&gt;src/common/redux</title>
<path fill="none" stroke="#000000" stroke-width="2" stroke-opacity="0.200000" d="M488.87,-169.7C490.93,-167.43 492.83,-164.81 494,-162 504.9,-135.67 502.33,-101.54 499.59,-82.49"/>
<polygon fill="#000000" fill-opacity="0.200000" stroke="#000000" stroke-width="2" stroke-opacity="0.200000" points="501.61,-81.8 498.6,-76.2 497.46,-82.45 501.61,-81.8"/>
</g>
<!-- src/modules/auth&#45;&gt;src/modules/core -->
<g id="edge26" class="edge">
<title>src/modules/auth&#45;&gt;src/modules/core</title>
<path fill="none" stroke="#000000" stroke-width="2" stroke-opacity="0.200000" d="M476.03,-169.74C473.3,-162.17 469.21,-150.81 465.98,-141.85"/>
<polygon fill="#000000" fill-opacity="0.200000" stroke="#000000" stroke-width="2" stroke-opacity="0.200000" points="467.93,-141.04 463.92,-136.1 463.97,-142.46 467.93,-141.04"/>
</g>
<!-- src/modules/auth&#45;&gt;src/common/utils -->
<g id="edge25" class="edge">
<title>src/modules/auth&#45;&gt;src/common/utils</title>
<path fill="none" stroke="#000000" stroke-width="2" stroke-opacity="0.200000" d="M491.78,-169.92C521.82,-150.91 594.53,-104.7 596,-102 607.03,-81.69 608.27,-69.59 596,-50 595.05,-48.48 593.91,-47.11 592.63,-45.86"/>
<polygon fill="#000000" fill-opacity="0.200000" stroke="#000000" stroke-width="2" stroke-opacity="0.200000" points="593.86,-44.15 587.84,-42.08 591.26,-47.45 593.86,-44.15"/>
</g>
<!-- src/modules/core&#45;&gt;src/api/common -->
<g id="edge28" class="edge">
<title>src/modules/core&#45;&gt;src/api/common</title>
<path fill="none" stroke="#000000" stroke-width="2" stroke-opacity="0.200000" d="M433.9,-125.73C371.01,-124.78 216.9,-120.58 169,-102 156.93,-97.32 145.42,-88.21 137.21,-80.59"/>
<polygon fill="#000000" fill-opacity="0.200000" stroke="#000000" stroke-width="2" stroke-opacity="0.200000" points="138.32,-78.75 132.54,-76.1 135.41,-81.77 138.32,-78.75"/>
</g>
<!-- src/modules/core&#45;&gt;src/common/redux -->
<g id="edge30" class="edge">
<title>src/modules/core&#45;&gt;src/common/redux</title>
<path fill="none" stroke="#000000" stroke-width="2" stroke-opacity="0.200000" d="M466.01,-117.94C471.85,-108.52 481.61,-92.8 488.61,-81.51"/>
<polygon fill="#000000" fill-opacity="0.200000" stroke="#000000" stroke-width="2" stroke-opacity="0.200000" points="490.42,-82.58 491.8,-76.37 486.86,-80.36 490.42,-82.58"/>
</g>
<!-- src/modules/core&#45;&gt;src/common/utils -->
<g id="edge31" class="edge">
<title>src/modules/core&#45;&gt;src/common/utils</title>
<path fill="none" stroke="#000000" stroke-width="2" stroke-opacity="0.200000" d="M433.51,-125.72C366.13,-124.73 196.93,-120.44 180,-102 164.37,-84.98 164,-66.68 180,-50 192.02,-37.47 439,-34.74 529.84,-34.15"/>
<polygon fill="#000000" fill-opacity="0.200000" stroke="#000000" stroke-width="2" stroke-opacity="0.200000" points="529.87,-36.25 535.85,-34.12 529.84,-32.05 529.87,-36.25"/>
</g>
<!-- src/common/i18n -->
<g id="node17" class="node">
<title>src/common/i18n</title>
<g id="a_node17"><a xlink:href="src/common/i18n" xlink:title="i18n">
<polygon fill="#ffffcc" stroke="black" points="458,-76 406,-76 404,-74 404,-58 456,-58 458,-60 458,-76"/>
<polyline fill="none" stroke="black" points="456,-74 404,-74 "/>
<polyline fill="none" stroke="black" points="456,-74 456,-58 "/>
<polyline fill="none" stroke="black" points="456,-74 458,-76 "/>
<text text-anchor="middle" x="431" y="-64.8" font-family="Helvetica,sans-Serif" font-size="9.00">i18n</text>
</a>
</g>
</g>
<!-- src/modules/core&#45;&gt;src/common/i18n -->
<g id="edge29" class="edge">
<title>src/modules/core&#45;&gt;src/common/i18n</title>
<path fill="none" stroke="#000000" stroke-width="2" stroke-opacity="0.200000" d="M456.83,-117.94C452,-108.61 443.97,-93.08 438.15,-81.82"/>
<polygon fill="#000000" fill-opacity="0.200000" stroke="#000000" stroke-width="2" stroke-opacity="0.200000" points="439.95,-80.74 435.33,-76.37 436.22,-82.67 439.95,-80.74"/>
</g>
<!-- src/common/local&#45;storage -->
<g id="node18" class="node">
<title>src/common/local&#45;storage</title>
<g id="a_node18"><a xlink:href="src/common/local-storage" xlink:title="local&#45;storage">
<polygon fill="#ffffcc" stroke="black" points="392,-76 320,-76 318,-74 318,-58 390,-58 392,-60 392,-76"/>
<polyline fill="none" stroke="black" points="390,-74 318,-74 "/>
<polyline fill="none" stroke="black" points="390,-74 390,-58 "/>
<polyline fill="none" stroke="black" points="390,-74 392,-76 "/>
<text text-anchor="middle" x="355" y="-64.8" font-family="Helvetica,sans-Serif" font-size="9.00">local&#45;storage</text>
</a>
</g>
</g>
<!-- src/modules/core&#45;&gt;src/common/local&#45;storage -->
<g id="edge32" class="edge">
<title>src/modules/core&#45;&gt;src/common/local&#45;storage</title>
<path fill="none" stroke="#000000" stroke-width="2" stroke-opacity="0.200000" d="M434.44,-117.91C422.88,-113.88 409.4,-108.47 398,-102 387.31,-95.93 376.46,-87.33 368.33,-80.29"/>
<polygon fill="#000000" fill-opacity="0.200000" stroke="#000000" stroke-width="2" stroke-opacity="0.200000" points="369.53,-78.55 363.65,-76.15 366.75,-81.7 369.53,-78.55"/>
</g>
<!-- src/modules/github&#45;&gt;src/api/github -->
<g id="edge36" class="edge">
<title>src/modules/github&#45;&gt;src/api/github</title>
<path fill="none" stroke="#000000" stroke-width="2" stroke-opacity="0.200000" d="M499.69,-202.06C497.77,-201.67 495.86,-201.31 494,-201 313.92,-170.75 250.19,-239.82 85,-162 75.06,-157.32 66.35,-148.46 60.24,-140.96"/>
<polygon fill="#000000" fill-opacity="0.200000" stroke="#000000" stroke-width="2" stroke-opacity="0.200000" points="61.77,-139.51 56.44,-136.05 58.45,-142.08 61.77,-139.51"/>
</g>
<!-- src/modules/github&#45;&gt;src/common/redux -->
<g id="edge34" class="edge">
<title>src/modules/github&#45;&gt;src/common/redux</title>
<path fill="none" stroke="#000000" stroke-width="2" stroke-opacity="0.200000" d="M528.04,-200.81C529.95,-183.56 532.93,-142.4 523,-110 519.77,-99.47 513.25,-88.94 507.54,-81.06"/>
<polygon fill="#000000" fill-opacity="0.200000" stroke="#000000" stroke-width="2" stroke-opacity="0.200000" points="509.06,-79.58 503.77,-76.06 505.7,-82.11 509.06,-79.58"/>
</g>
<!-- src/common/ui -->
<g id="node15" class="node">
<title>src/common/ui</title>
<g id="a_node15"><a xlink:href="src/common/ui" xlink:title="ui">
<polygon fill="#ffffcc" stroke="black" points="590,-76 538,-76 536,-74 536,-58 588,-58 590,-60 590,-76"/>
<polyline fill="none" stroke="black" points="588,-74 536,-74 "/>
<polyline fill="none" stroke="black" points="588,-74 588,-58 "/>
<polyline fill="none" stroke="black" points="588,-74 590,-76 "/>
<text text-anchor="middle" x="563" y="-64.8" font-family="Helvetica,sans-Serif" font-size="9.00">ui</text>
</a>
</g>
</g>
<!-- src/modules/github&#45;&gt;src/common/ui -->
<g id="edge33" class="edge">
<title>src/modules/github&#45;&gt;src/common/ui</title>
<path fill="none" stroke="#000000" stroke-width="2" stroke-opacity="0.200000" d="M529.4,-200.84C530.52,-196.96 531.86,-192.25 533,-188 543.21,-149.86 554.23,-104.61 559.63,-82.13"/>
<polygon fill="#000000" fill-opacity="0.200000" stroke="#000000" stroke-width="2" stroke-opacity="0.200000" points="561.7,-82.5 561.06,-76.17 557.62,-81.52 561.7,-82.5"/>
</g>
<!-- src/modules/github&#45;&gt;src/common/utils -->
<g id="edge35" class="edge">
<title>src/modules/github&#45;&gt;src/common/utils</title>
<path fill="none" stroke="#000000" stroke-width="2" stroke-opacity="0.200000" d="M542.64,-200.96C557.25,-192.8 578.87,-178.97 593,-162 611.83,-139.39 614.63,-130.73 621,-102 626.01,-79.44 635,-68.39 621,-50 615.03,-42.15 605.57,-37.92 596.01,-35.7"/>
<polygon fill="#000000" fill-opacity="0.200000" stroke="#000000" stroke-width="2" stroke-opacity="0.200000" points="596.37,-33.63 590.08,-34.56 595.58,-37.75 596.37,-33.63"/>
</g>
<!-- src/modules/user&#45;&gt;src/api/pizza&#45;store -->
<g id="edge42" class="edge">
<title>src/modules/user&#45;&gt;src/api/pizza&#45;store</title>
<path fill="none" stroke="#000000" stroke-width="2" stroke-opacity="0.200000" d="M433.91,-202.51C374.15,-188.19 230.84,-153.84 161.66,-137.26"/>
<polygon fill="#000000" fill-opacity="0.200000" stroke="#000000" stroke-width="2" stroke-opacity="0.200000" points="161.93,-135.17 155.6,-135.81 160.95,-139.25 161.93,-135.17"/>
</g>
<!-- src/modules/user&#45;&gt;src/common/redux -->
<g id="edge41" class="edge">
<title>src/modules/user&#45;&gt;src/common/redux</title>
<path fill="none" stroke="#000000" stroke-width="2" stroke-opacity="0.200000" d="M487.86,-200.97C498.52,-197.2 508.96,-192.53 512,-188 534.08,-155.03 515.38,-105.34 504.08,-81.59"/>
<polygon fill="#000000" fill-opacity="0.200000" stroke="#000000" stroke-width="2" stroke-opacity="0.200000" points="505.93,-80.59 501.4,-76.13 502.17,-82.44 505.93,-80.59"/>
</g>
<!-- src/modules/user&#45;&gt;src/modules/auth -->
<g id="edge39" class="edge">
<title>src/modules/user&#45;&gt;src/modules/auth</title>
<path fill="none" stroke="#000000" stroke-width="2" stroke-opacity="0.200000" d="M466.11,-200.77C467.47,-198.58 468.97,-196.16 470.45,-193.77"/>
<polygon fill="#000000" fill-opacity="0.200000" stroke="#000000" stroke-width="2" stroke-opacity="0.200000" points="472.43,-194.56 473.81,-188.35 468.87,-192.34 472.43,-194.56"/>
</g>
<!-- src/modules/user&#45;&gt;src/modules/core -->
<g id="edge40" class="edge">
<title>src/modules/user&#45;&gt;src/modules/core</title>
<path fill="none" stroke="#000000" stroke-width="2" stroke-opacity="0.200000" d="M453.24,-200.68C450.38,-197.07 447.48,-192.61 446,-188 440.99,-172.36 447.32,-153.99 453.23,-141.73"/>
<polygon fill="#000000" fill-opacity="0.200000" stroke="#000000" stroke-width="2" stroke-opacity="0.200000" points="455.18,-142.54 456.05,-136.25 451.44,-140.63 455.18,-142.54"/>
</g>
<!-- src/modules/user&#45;&gt;src/common/ui -->
<g id="edge37" class="edge">
<title>src/modules/user&#45;&gt;src/common/ui</title>
<path fill="none" stroke="#000000" stroke-width="2" stroke-opacity="0.200000" d="M488.14,-201.85C501.04,-197.94 514.6,-192.9 519,-188 542.83,-161.44 524.5,-143.03 538,-110 542.12,-99.92 548.4,-89.38 553.63,-81.39"/>
<polygon fill="#000000" fill-opacity="0.200000" stroke="#000000" stroke-width="2" stroke-opacity="0.200000" points="555.45,-82.45 557.04,-76.3 551.96,-80.11 555.45,-82.45"/>
</g>
<!-- src/modules/user&#45;&gt;src/common/utils -->
<g id="edge38" class="edge">
<title>src/modules/user&#45;&gt;src/common/utils</title>
<path fill="none" stroke="#000000" stroke-width="2" stroke-opacity="0.200000" d="M488.21,-202.12C503.69,-197.89 521.3,-192.45 528,-188 565.83,-162.88 561.45,-141.67 594,-110 598.08,-106.03 601.53,-107.13 604,-102 614.01,-81.17 617.04,-69.08 604,-50 601.79,-46.77 598.83,-44.19 595.5,-42.14"/>
<polygon fill="#000000" fill-opacity="0.200000" stroke="#000000" stroke-width="2" stroke-opacity="0.200000" points="596.32,-40.19 590.02,-39.31 594.4,-43.93 596.32,-40.19"/>
</g>
<!-- src/app/app.tsx -->
<g id="node13" class="node">
<title>src/app/app.tsx</title>
<g id="a_node13"><a xlink:href="src/app/app.tsx" xlink:title="app.tsx">
<path fill="#bbfeff" stroke="black" d="M454,-310C454,-310 412,-310 412,-310 409,-310 406,-307 406,-304 406,-304 406,-298 406,-298 406,-295 409,-292 412,-292 412,-292 454,-292 454,-292 457,-292 460,-295 460,-298 460,-298 460,-304 460,-304 460,-307 457,-310 454,-310"/>
<text text-anchor="middle" x="433" y="-298.8" font-family="Helvetica,sans-Serif" font-size="9.00">app.tsx</text>
</a>
</g>
</g>
<!-- src/app/app.tsx&#45;&gt;src/app/app&#45;store.ts -->
<g id="edge12" class="edge">
<title>src/app/app.tsx&#45;&gt;src/app/app&#45;store.ts</title>
<path fill="none" stroke="#000000" stroke-width="2" stroke-opacity="0.200000" d="M433,-291.77C433,-289.82 433,-287.7 433,-285.57"/>
<polygon fill="#000000" fill-opacity="0.200000" stroke="#000000" stroke-width="2" stroke-opacity="0.200000" points="435.1,-285.35 433,-279.35 430.9,-285.35 435.1,-285.35"/>
</g>
<!-- src/app/app.tsx&#45;&gt;src/modules/core -->
<g id="edge13" class="edge">
<title>src/app/app.tsx&#45;&gt;src/modules/core</title>
<path fill="none" stroke="#000000" stroke-width="2" stroke-opacity="0.200000" d="M406.67,-291.84C400.86,-288.76 395.42,-284.6 392,-279 388.41,-273.12 389.92,-224.04 394,-201 396.52,-186.74 395.54,-181.75 404,-170 413.28,-157.11 427.71,-146.53 439.73,-139.22"/>
<polygon fill="#000000" fill-opacity="0.200000" stroke="#000000" stroke-width="2" stroke-opacity="0.200000" points="440.95,-140.94 445.06,-136.09 438.82,-137.32 440.95,-140.94"/>
</g>
<!-- src/app/ui -->
<g id="node14" class="node">
<title>src/app/ui</title>
<g id="a_node14"><a xlink:href="src/app/ui" xlink:title="ui">
<polygon fill="#ffffcc" stroke="black" points="535,-279 483,-279 481,-277 481,-261 533,-261 535,-263 535,-279"/>
<polyline fill="none" stroke="black" points="533,-277 481,-277 "/>
<polyline fill="none" stroke="black" points="533,-277 533,-261 "/>
<polyline fill="none" stroke="black" points="533,-277 535,-279 "/>
<text text-anchor="middle" x="508" y="-267.8" font-family="Helvetica,sans-Serif" font-size="9.00">ui</text>
</a>
</g>
</g>
<!-- src/app/app.tsx&#45;&gt;src/app/ui -->
<g id="edge11" class="edge">
<title>src/app/app.tsx&#45;&gt;src/app/ui</title>
<path fill="none" stroke="#000000" stroke-width="2" stroke-opacity="0.200000" d="M453.89,-291.92C462.42,-288.62 472.4,-284.77 481.44,-281.27"/>
<polygon fill="#000000" fill-opacity="0.200000" stroke="#000000" stroke-width="2" stroke-opacity="0.200000" points="482.38,-283.16 487.22,-279.03 480.87,-279.24 482.38,-283.16"/>
</g>
<!-- src/app/ui&#45;&gt;src/modules/core -->
<g id="edge14" class="edge">
<title>src/app/ui&#45;&gt;src/modules/core</title>
<path fill="none" stroke="#000000" stroke-width="2" stroke-opacity="0.200000" d="M493.58,-260.91C487.93,-258.04 481.31,-255.02 475,-253 454.82,-246.54 441.67,-261.19 428,-245 402.05,-214.26 433.03,-164.45 450.55,-140.99"/>
<polygon fill="#000000" fill-opacity="0.200000" stroke="#000000" stroke-width="2" stroke-opacity="0.200000" points="452.29,-142.18 454.27,-136.14 448.95,-139.63 452.29,-142.18"/>
</g>
<!-- src/app/ui&#45;&gt;src/modules/github -->
<g id="edge15" class="edge">
<title>src/app/ui&#45;&gt;src/modules/github</title>
<path fill="none" stroke="#000000" stroke-width="2" stroke-opacity="0.200000" d="M510.64,-260.94C513.67,-251.69 518.69,-236.37 522.37,-225.13"/>
<polygon fill="#000000" fill-opacity="0.200000" stroke="#000000" stroke-width="2" stroke-opacity="0.200000" points="524.39,-225.73 524.26,-219.37 520.39,-224.42 524.39,-225.73"/>
</g>
<!-- src/app/ui&#45;&gt;src/modules/user -->
<g id="edge16" class="edge">
<title>src/app/ui&#45;&gt;src/modules/user</title>
<path fill="none" stroke="#000000" stroke-width="2" stroke-opacity="0.200000" d="M501.46,-260.94C493.77,-251.43 480.86,-235.51 471.7,-224.2"/>
<polygon fill="#000000" fill-opacity="0.200000" stroke="#000000" stroke-width="2" stroke-opacity="0.200000" points="473.19,-222.71 467.78,-219.37 469.93,-225.36 473.19,-222.71"/>
</g>
<!-- src/app/ui&#45;&gt;src/common/ui -->
<g id="edge17" class="edge">
<title>src/app/ui&#45;&gt;src/common/ui</title>
<path fill="none" stroke="#000000" stroke-width="2" stroke-opacity="0.200000" d="M535.15,-266.16C561.31,-262.8 598.2,-256.19 607,-245 644.09,-197.84 630.6,-165.16 607,-110 601.69,-97.6 590.73,-87.12 581.07,-79.73"/>
<polygon fill="#000000" fill-opacity="0.200000" stroke="#000000" stroke-width="2" stroke-opacity="0.200000" points="582.26,-77.99 576.18,-76.15 579.78,-81.38 582.26,-77.99"/>
</g>
<!-- src/app/ui&#45;&gt;src/common/utils -->
<g id="edge18" class="edge">
<title>src/app/ui&#45;&gt;src/common/utils</title>
<path fill="none" stroke="#000000" stroke-width="2" stroke-opacity="0.200000" d="M535.15,-266.26C564.37,-262.79 608.37,-255.92 621,-245 644.29,-224.85 645,-210.8 645,-180 645,-180 645,-180 645,-126 645,-91.39 652.21,-74.73 628,-50 619.77,-41.59 607.88,-37.33 596.52,-35.25"/>
<polygon fill="#000000" fill-opacity="0.200000" stroke="#000000" stroke-width="2" stroke-opacity="0.200000" points="596.53,-33.13 590.28,-34.31 595.9,-37.28 596.53,-33.13"/>
</g>
<!-- src/common/i18n&#45;&gt;src/common/utils -->
<g id="edge20" class="edge">
<title>src/common/i18n&#45;&gt;src/common/utils</title>
<path fill="none" stroke="#000000" stroke-width="2" stroke-opacity="0.200000" d="M445.41,-57.89C451.06,-55.01 457.69,-51.99 464,-50 485.27,-43.28 510.05,-39.28 529.5,-36.96"/>
<polygon fill="#000000" fill-opacity="0.200000" stroke="#000000" stroke-width="2" stroke-opacity="0.200000" points="529.89,-39.03 535.61,-36.26 529.42,-34.86 529.89,-39.03"/>
</g>
<!-- src/index.scss -->
<g id="node19" class="node">
<title>src/index.scss</title>
<g id="a_node19"><a xlink:href="src/index.scss" xlink:title="index.scss">
<path fill="#ffffcc" stroke="black" d="M608.5,-310C608.5,-310 557.5,-310 557.5,-310 554.5,-310 551.5,-307 551.5,-304 551.5,-304 551.5,-298 551.5,-298 551.5,-295 554.5,-292 557.5,-292 557.5,-292 608.5,-292 608.5,-292 611.5,-292 614.5,-295 614.5,-298 614.5,-298 614.5,-304 614.5,-304 614.5,-307 611.5,-310 608.5,-310"/>
<text text-anchor="middle" x="583" y="-298.8" font-family="Helvetica,sans-Serif" font-size="9.00">index.scss</text>
</a>
</g>
</g>
<!-- src/index.tsx -->
<g id="node20" class="node">
<title>src/index.tsx</title>
<g id="a_node20"><a xlink:href="src/index.tsx" xlink:title="index.tsx">
<path fill="#bbfeff" stroke="black" d="M456,-362C456,-362 410,-362 410,-362 407,-362 404,-359 404,-356 404,-356 404,-350 404,-350 404,-347 407,-344 410,-344 410,-344 456,-344 456,-344 459,-344 462,-347 462,-350 462,-350 462,-356 462,-356 462,-359 459,-362 456,-362"/>
<text text-anchor="middle" x="433" y="-350.8" font-family="Helvetica,sans-Serif" font-size="9.00">index.tsx</text>
</a>
</g>
</g>
<!-- src/index.tsx&#45;&gt;src/modules/core -->
<g id="edge23" class="edge">
<title>src/index.tsx&#45;&gt;src/modules/core</title>
<path fill="none" stroke="#000000" stroke-width="2" stroke-opacity="0.200000" d="M403.72,-346.03C397.35,-343.7 391.02,-340.47 386,-336 362.08,-314.73 355,-303.01 355,-271 355,-271 355,-271 355,-209 355,-171.61 397.16,-149.16 428.3,-137.68"/>
<polygon fill="#000000" fill-opacity="0.200000" stroke="#000000" stroke-width="2" stroke-opacity="0.200000" points="429.03,-139.65 433.98,-135.67 427.62,-135.7 429.03,-139.65"/>
</g>
<!-- src/index.tsx&#45;&gt;src/app/app.tsx -->
<g id="edge22" class="edge">
<title>src/index.tsx&#45;&gt;src/app/app.tsx</title>
<path fill="none" stroke="#000000" stroke-width="2" stroke-opacity="0.200000" d="M433,-343.74C433,-336.24 433,-325.02 433,-316.1"/>
<polygon fill="#000000" fill-opacity="0.200000" stroke="#000000" stroke-width="2" stroke-opacity="0.200000" points="435.1,-316.1 433,-310.1 430.9,-316.1 435.1,-316.1"/>
</g>
<!-- src/index.tsx&#45;&gt;src/index.scss -->
<g id="edge21" class="edge">
<title>src/index.tsx&#45;&gt;src/index.scss</title>
<path fill="none" stroke="#000000" stroke-width="2" stroke-opacity="0.200000" d="M462.21,-352.56C485.87,-351.93 519.49,-348.54 546,-336 556.25,-331.15 565.63,-322.46 572.38,-315.08"/>
<polygon fill="#000000" fill-opacity="0.200000" stroke="#000000" stroke-width="2" stroke-opacity="0.200000" points="574.25,-316.14 576.62,-310.24 571.08,-313.37 574.25,-316.14"/>
</g>
</g>
</svg>
