<?xml version="1.0" encoding="UTF-8" standalone="no"?>
<!DOCTYPE svg PUBLIC "-//W3C//DTD SVG 1.1//EN"
 "http://www.w3.org/Graphics/SVG/1.1/DTD/svg11.dtd">
<!-- Generated by graphviz version 2.43.0 (0)
 -->
<!-- Title: dependency&#45;cruiser output Pages: 1 -->
<svg width="468pt" height="370pt"
 viewBox="0.00 0.00 468.00 370.00" xmlns="http://www.w3.org/2000/svg" xmlns:xlink="http://www.w3.org/1999/xlink">
<g id="graph0" class="graph" transform="scale(1 1) rotate(0) translate(4 366)">
<title>dependency&#45;cruiser output</title>
<polygon fill="white" stroke="transparent" points="-4,4 -4,-366 464,-366 464,4 -4,4"/>
<g id="clust1" class="cluster">
<title>cluster_src</title>
<path fill="#ffffff" stroke="black" stroke-width="2" d="M20,-8C20,-8 440,-8 440,-8 446,-8 452,-14 452,-20 452,-20 452,-342 452,-342 452,-348 446,-354 440,-354 440,-354 20,-354 20,-354 14,-354 8,-348 8,-342 8,-342 8,-20 8,-20 8,-14 14,-8 20,-8"/>
<text text-anchor="middle" x="230" y="-342.8" font-family="Helvetica,sans-Serif" font-weight="bold" font-size="9.00">src</text>
</g>
<g id="clust2" class="cluster">
<title>cluster_src/api</title>
<path fill="#ffffff" stroke="black" stroke-width="2" d="M222,-107C222,-107 268,-107 268,-107 274,-107 280,-113 280,-119 280,-119 280,-147 280,-147 280,-153 274,-159 268,-159 268,-159 222,-159 222,-159 216,-159 210,-153 210,-147 210,-147 210,-119 210,-119 210,-113 216,-107 222,-107"/>
<text text-anchor="middle" x="245" y="-147.8" font-family="Helvetica,sans-Serif" font-weight="bold" font-size="9.00">api</text>
</g>
<g id="clust3" class="cluster">
<title>cluster_src/app</title>
<path fill="#ffffff" stroke="black" stroke-width="2" d="M220,-167C220,-167 350,-167 350,-167 356,-167 362,-173 362,-179 362,-179 362,-290 362,-290 362,-296 356,-302 350,-302 350,-302 220,-302 220,-302 214,-302 208,-296 208,-290 208,-290 208,-179 208,-179 208,-173 214,-167 220,-167"/>
<text text-anchor="middle" x="285" y="-290.8" font-family="Helvetica,sans-Serif" font-weight="bold" font-size="9.00">app</text>
</g>
<g id="clust4" class="cluster">
<title>cluster_src/common</title>
<path fill="#ffffff" stroke="black" stroke-width="2" d="M28,-16C28,-16 338,-16 338,-16 344,-16 350,-22 350,-28 350,-28 350,-87 350,-87 350,-93 344,-99 338,-99 338,-99 28,-99 28,-99 22,-99 16,-93 16,-87 16,-87 16,-28 16,-28 16,-22 22,-16 28,-16"/>
<text text-anchor="middle" x="183" y="-87.8" font-family="Helvetica,sans-Serif" font-weight="bold" font-size="9.00">common</text>
</g>
<g id="clust5" class="cluster">
<title>cluster_src/modules</title>
<path fill="#ffffff" stroke="black" stroke-width="2" d="M38,-167C38,-167 188,-167 188,-167 194,-167 200,-173 200,-179 200,-179 200,-207 200,-207 200,-213 194,-219 188,-219 188,-219 38,-219 38,-219 32,-219 26,-213 26,-207 26,-207 26,-179 26,-179 26,-173 32,-167 38,-167"/>
<text text-anchor="middle" x="113" y="-207.8" font-family="Helvetica,sans-Serif" font-weight="bold" font-size="9.00">modules</text>
</g>
<!-- src/.eslintrc.js -->
<g id="node1" class="node">
<title>src/.eslintrc.js</title>
<g id="a_node1"><a xlink:href="src/.eslintrc.js" xlink:title=".eslintrc.js">
<path fill="#ccffcc" stroke="black" d="M434,-328C434,-328 384,-328 384,-328 381,-328 378,-325 378,-322 378,-322 378,-316 378,-316 378,-313 381,-310 384,-310 384,-310 434,-310 434,-310 437,-310 440,-313 440,-316 440,-316 440,-322 440,-322 440,-325 437,-328 434,-328"/>
<text text-anchor="middle" x="409" y="-316.8" font-family="Helvetica,sans-Serif" font-size="9.00">.eslintrc.js</text>
</a>
</g>
</g>
<!-- src/api/github -->
<g id="node2" class="node">
<title>src/api/github</title>
<g id="a_node2"><a xlink:href="src/api/github" xlink:title="github">
<polygon fill="#ffffcc" stroke="black" points="272,-133 220,-133 218,-131 218,-115 270,-115 272,-117 272,-133"/>
<polyline fill="none" stroke="black" points="270,-131 218,-131 "/>
<polyline fill="none" stroke="black" points="270,-131 270,-115 "/>
<polyline fill="none" stroke="black" points="270,-131 272,-133 "/>
<text text-anchor="middle" x="245" y="-121.8" font-family="Helvetica,sans-Serif" font-size="9.00">github</text>
</a>
</g>
</g>
<!-- src/common/http -->
<g id="node3" class="node">
<title>src/common/http</title>
<g id="a_node3"><a xlink:href="src/common/http" xlink:title="http">
<polygon fill="#ffffcc" stroke="black" points="276,-73 224,-73 222,-71 222,-55 274,-55 276,-57 276,-73"/>
<polyline fill="none" stroke="black" points="274,-71 222,-71 "/>
<polyline fill="none" stroke="black" points="274,-71 274,-55 "/>
<polyline fill="none" stroke="black" points="274,-71 276,-73 "/>
<text text-anchor="middle" x="249" y="-61.8" font-family="Helvetica,sans-Serif" font-size="9.00">http</text>
</a>
</g>
</g>
<!-- src/api/github&#45;&gt;src/common/http -->
<g id="edge1" class="edge">
<title>src/api/github&#45;&gt;src/common/http</title>
<path fill="none" stroke="#000000" stroke-width="2" stroke-opacity="0.200000" d="M245.56,-114.94C246.19,-105.78 247.23,-90.65 248,-79.44"/>
<polygon fill="#000000" fill-opacity="0.200000" stroke="#000000" stroke-width="2" stroke-opacity="0.200000" points="250.1,-79.5 248.42,-73.37 245.91,-79.21 250.1,-79.5"/>
</g>
<!-- src/app/app&#45;store.ts -->
<g id="node4" class="node">
<title>src/app/app&#45;store.ts</title>
<g id="a_node4"><a xlink:href="src/app/app-store.ts" xlink:title="app&#45;store.ts">
<path fill="#ddfeff" stroke="black" d="M281.5,-276C281.5,-276 222.5,-276 222.5,-276 219.5,-276 216.5,-273 216.5,-270 216.5,-270 216.5,-264 216.5,-264 216.5,-261 219.5,-258 222.5,-258 222.5,-258 281.5,-258 281.5,-258 284.5,-258 287.5,-261 287.5,-264 287.5,-264 287.5,-270 287.5,-270 287.5,-273 284.5,-276 281.5,-276"/>
<text text-anchor="middle" x="252" y="-264.8" font-family="Helvetica,sans-Serif" font-size="9.00">app&#45;store.ts</text>
</a>
</g>
</g>
<!-- src/common/redux -->
<g id="node5" class="node">
<title>src/common/redux</title>
<g id="a_node5"><a xlink:href="src/common/redux" xlink:title="redux">
<polygon fill="#ffffcc" stroke="black" points="78,-73 26,-73 24,-71 24,-55 76,-55 78,-57 78,-73"/>
<polyline fill="none" stroke="black" points="76,-71 24,-71 "/>
<polyline fill="none" stroke="black" points="76,-71 76,-55 "/>
<polyline fill="none" stroke="black" points="76,-71 78,-73 "/>
<text text-anchor="middle" x="51" y="-61.8" font-family="Helvetica,sans-Serif" font-size="9.00">redux</text>
</a>
</g>
</g>
<!-- src/app/app&#45;store.ts&#45;&gt;src/common/redux -->
<g id="edge2" class="edge">
<title>src/app/app&#45;store.ts&#45;&gt;src/common/redux</title>
<path fill="none" stroke="#000000" stroke-width="2" stroke-opacity="0.200000" d="M216.43,-264.29C157.9,-260.62 45.53,-249.66 23,-219 -8.83,-175.68 25.25,-107.36 42.39,-78.54"/>
<polygon fill="#000000" fill-opacity="0.200000" stroke="#000000" stroke-width="2" stroke-opacity="0.200000" points="44.24,-79.54 45.56,-73.32 40.65,-77.35 44.24,-79.54"/>
</g>
<!-- src/modules/github -->
<g id="node6" class="node">
<title>src/modules/github</title>
<g id="a_node6"><a xlink:href="src/modules/github" xlink:title="github">
<polygon fill="#ffffcc" stroke="black" points="88,-193 36,-193 34,-191 34,-175 86,-175 88,-177 88,-193"/>
<polyline fill="none" stroke="black" points="86,-191 34,-191 "/>
<polyline fill="none" stroke="black" points="86,-191 86,-175 "/>
<polyline fill="none" stroke="black" points="86,-191 88,-193 "/>
<text text-anchor="middle" x="61" y="-181.8" font-family="Helvetica,sans-Serif" font-size="9.00">github</text>
</a>
</g>
</g>
<!-- src/app/app&#45;store.ts&#45;&gt;src/modules/github -->
<g id="edge3" class="edge">
<title>src/app/app&#45;store.ts&#45;&gt;src/modules/github</title>
<path fill="none" stroke="#000000" stroke-width="2" stroke-opacity="0.200000" d="M216.31,-260.74C182.82,-254.61 132.31,-242.21 94,-219 84.97,-213.53 76.7,-204.99 70.69,-197.85"/>
<polygon fill="#000000" fill-opacity="0.200000" stroke="#000000" stroke-width="2" stroke-opacity="0.200000" points="72.32,-196.52 66.92,-193.17 69.06,-199.16 72.32,-196.52"/>
</g>
<!-- src/modules/github&#45;&gt;src/api/github -->
<g id="edge14" class="edge">
<title>src/modules/github&#45;&gt;src/api/github</title>
<path fill="none" stroke="#000000" stroke-width="2" stroke-opacity="0.200000" d="M74.68,-174.93C80.45,-171.91 87.36,-168.78 94,-167 140.91,-154.4 157.83,-176.88 203,-159 214.7,-154.37 225.67,-145.25 233.47,-137.63"/>
<polygon fill="#000000" fill-opacity="0.200000" stroke="#000000" stroke-width="2" stroke-opacity="0.200000" points="235.18,-138.88 237.89,-133.12 232.18,-135.93 235.18,-138.88"/>
</g>
<!-- src/modules/github&#45;&gt;src/common/http -->
<g id="edge17" class="edge">
<title>src/modules/github&#45;&gt;src/common/http</title>
<path fill="none" stroke="#000000" stroke-width="2" stroke-opacity="0.200000" d="M76.59,-174.93C82.03,-172.25 88.22,-169.35 94,-167 104.41,-162.76 107.81,-163.74 118,-159 164.3,-137.45 176.12,-130.91 216,-99 223.88,-92.69 231.79,-84.62 237.89,-77.92"/>
<polygon fill="#000000" fill-opacity="0.200000" stroke="#000000" stroke-width="2" stroke-opacity="0.200000" points="239.74,-79 242.17,-73.12 236.61,-76.2 239.74,-79"/>
</g>
<!-- src/modules/github&#45;&gt;src/common/redux -->
<g id="edge15" class="edge">
<title>src/modules/github&#45;&gt;src/common/redux</title>
<path fill="none" stroke="#000000" stroke-width="2" stroke-opacity="0.200000" d="M60.31,-174.89C58.64,-155.1 54.32,-104.14 52.2,-79.19"/>
<polygon fill="#000000" fill-opacity="0.200000" stroke="#000000" stroke-width="2" stroke-opacity="0.200000" points="54.29,-78.97 51.69,-73.17 50.11,-79.32 54.29,-78.97"/>
</g>
<!-- src/common/utils -->
<g id="node14" class="node">
<title>src/common/utils</title>
<g id="a_node14"><a xlink:href="src/common/utils" xlink:title="utils">
<polygon fill="#ffffcc" stroke="black" points="210,-73 158,-73 156,-71 156,-55 208,-55 210,-57 210,-73"/>
<polyline fill="none" stroke="black" points="208,-71 156,-71 "/>
<polyline fill="none" stroke="black" points="208,-71 208,-55 "/>
<polyline fill="none" stroke="black" points="208,-71 210,-73 "/>
<text text-anchor="middle" x="183" y="-61.8" font-family="Helvetica,sans-Serif" font-size="9.00">utils</text>
</a>
</g>
</g>
<!-- src/modules/github&#45;&gt;src/common/utils -->
<g id="edge16" class="edge">
<title>src/modules/github&#45;&gt;src/common/utils</title>
<path fill="none" stroke="#000000" stroke-width="2" stroke-opacity="0.200000" d="M69.97,-174.78C86.15,-159.89 121.26,-127.34 150,-99 157,-92.1 164.66,-84.23 170.83,-77.8"/>
<polygon fill="#000000" fill-opacity="0.200000" stroke="#000000" stroke-width="2" stroke-opacity="0.200000" points="172.6,-78.99 175.23,-73.2 169.57,-76.09 172.6,-78.99"/>
</g>
<!-- src/app/app.tsx -->
<g id="node7" class="node">
<title>src/app/app.tsx</title>
<g id="a_node7"><a xlink:href="src/app/app.tsx" xlink:title="app.tsx">
<path fill="#bbfeff" stroke="black" d="M348,-276C348,-276 306,-276 306,-276 303,-276 300,-273 300,-270 300,-270 300,-264 300,-264 300,-261 303,-258 306,-258 306,-258 348,-258 348,-258 351,-258 354,-261 354,-264 354,-264 354,-270 354,-270 354,-273 351,-276 348,-276"/>
<text text-anchor="middle" x="327" y="-264.8" font-family="Helvetica,sans-Serif" font-size="9.00">app.tsx</text>
</a>
</g>
</g>
<!-- src/app/main&#45;layout -->
<g id="node8" class="node">
<title>src/app/main&#45;layout</title>
<g id="a_node8"><a xlink:href="src/app/main-layout" xlink:title="main&#45;layout">
<polygon fill="#ffffcc" stroke="black" points="318,-245 250,-245 248,-243 248,-227 316,-227 318,-229 318,-245"/>
<polyline fill="none" stroke="black" points="316,-243 248,-243 "/>
<polyline fill="none" stroke="black" points="316,-243 316,-227 "/>
<polyline fill="none" stroke="black" points="316,-243 318,-245 "/>
<text text-anchor="middle" x="283" y="-233.8" font-family="Helvetica,sans-Serif" font-size="9.00">main&#45;layout</text>
</a>
</g>
</g>
<!-- src/app/app.tsx&#45;&gt;src/app/main&#45;layout -->
<g id="edge4" class="edge">
<title>src/app/app.tsx&#45;&gt;src/app/main&#45;layout</title>
<path fill="none" stroke="#000000" stroke-width="2" stroke-opacity="0.200000" d="M314.51,-257.77C310.2,-254.93 305.29,-251.69 300.64,-248.63"/>
<polygon fill="#000000" fill-opacity="0.200000" stroke="#000000" stroke-width="2" stroke-opacity="0.200000" points="301.54,-246.7 295.37,-245.15 299.22,-250.21 301.54,-246.7"/>
</g>
<!-- src/app/main&#45;layout&#45;&gt;src/modules/github -->
<g id="edge6" class="edge">
<title>src/app/main&#45;layout&#45;&gt;src/modules/github</title>
<path fill="none" stroke="#000000" stroke-width="2" stroke-opacity="0.200000" d="M247.75,-232.66C194.97,-229.05 100.83,-222.23 94,-219 84.21,-214.36 75.77,-205.51 69.87,-198"/>
<polygon fill="#000000" fill-opacity="0.200000" stroke="#000000" stroke-width="2" stroke-opacity="0.200000" points="71.48,-196.64 66.21,-193.08 68.11,-199.15 71.48,-196.64"/>
</g>
<!-- src/app/router -->
<g id="node9" class="node">
<title>src/app/router</title>
<g id="a_node9"><a xlink:href="src/app/router" xlink:title="router">
<polygon fill="#ffffcc" stroke="black" points="342,-193 290,-193 288,-191 288,-175 340,-175 342,-177 342,-193"/>
<polyline fill="none" stroke="black" points="340,-191 288,-191 "/>
<polyline fill="none" stroke="black" points="340,-191 340,-175 "/>
<polyline fill="none" stroke="black" points="340,-191 342,-193 "/>
<text text-anchor="middle" x="315" y="-181.8" font-family="Helvetica,sans-Serif" font-size="9.00">router</text>
</a>
</g>
</g>
<!-- src/app/main&#45;layout&#45;&gt;src/app/router -->
<g id="edge5" class="edge">
<title>src/app/main&#45;layout&#45;&gt;src/app/router</title>
<path fill="none" stroke="#000000" stroke-width="2" stroke-opacity="0.200000" d="M288.28,-226.74C293.22,-219.03 300.68,-207.37 306.47,-198.33"/>
<polygon fill="#000000" fill-opacity="0.200000" stroke="#000000" stroke-width="2" stroke-opacity="0.200000" points="308.35,-199.29 309.81,-193.1 304.81,-197.02 308.35,-199.29"/>
</g>
<!-- src/modules/http&#45;client&#45;demo -->
<g id="node10" class="node">
<title>src/modules/http&#45;client&#45;demo</title>
<g id="a_node10"><a xlink:href="src/modules/http-client-demo" xlink:title="http&#45;client&#45;demo">
<polygon fill="#ffffcc" stroke="black" points="192,-193 102,-193 100,-191 100,-175 190,-175 192,-177 192,-193"/>
<polyline fill="none" stroke="black" points="190,-191 100,-191 "/>
<polyline fill="none" stroke="black" points="190,-191 190,-175 "/>
<polyline fill="none" stroke="black" points="190,-191 192,-193 "/>
<text text-anchor="middle" x="146" y="-181.8" font-family="Helvetica,sans-Serif" font-size="9.00">http&#45;client&#45;demo</text>
</a>
</g>
</g>
<!-- src/app/main&#45;layout&#45;&gt;src/modules/http&#45;client&#45;demo -->
<g id="edge7" class="edge">
<title>src/app/main&#45;layout&#45;&gt;src/modules/http&#45;client&#45;demo</title>
<path fill="none" stroke="#000000" stroke-width="2" stroke-opacity="0.200000" d="M247.77,-230.24C234.13,-227.76 218.57,-224.15 205,-219 189.99,-213.31 174.31,-204.09 162.88,-196.69"/>
<polygon fill="#000000" fill-opacity="0.200000" stroke="#000000" stroke-width="2" stroke-opacity="0.200000" points="163.8,-194.78 157.64,-193.22 161.49,-198.28 163.8,-194.78"/>
</g>
<!-- src/common/router5 -->
<g id="node11" class="node">
<title>src/common/router5</title>
<g id="a_node11"><a xlink:href="src/common/router5" xlink:title="router5">
<polygon fill="#ffffcc" stroke="black" points="342,-73 290,-73 288,-71 288,-55 340,-55 342,-57 342,-73"/>
<polyline fill="none" stroke="black" points="340,-71 288,-71 "/>
<polyline fill="none" stroke="black" points="340,-71 340,-55 "/>
<polyline fill="none" stroke="black" points="340,-71 342,-73 "/>
<text text-anchor="middle" x="315" y="-61.8" font-family="Helvetica,sans-Serif" font-size="9.00">router5</text>
</a>
</g>
</g>
<!-- src/app/router&#45;&gt;src/common/router5 -->
<g id="edge8" class="edge">
<title>src/app/router&#45;&gt;src/common/router5</title>
<path fill="none" stroke="#000000" stroke-width="2" stroke-opacity="0.200000" d="M315,-174.89C315,-155.1 315,-104.14 315,-79.19"/>
<polygon fill="#000000" fill-opacity="0.200000" stroke="#000000" stroke-width="2" stroke-opacity="0.200000" points="317.1,-79.17 315,-73.17 312.9,-79.17 317.1,-79.17"/>
</g>
<!-- src/common/typings -->
<g id="node12" class="node">
<title>src/common/typings</title>
<g id="a_node12"><a xlink:href="src/common/typings" xlink:title="typings">
<polygon fill="#ffffcc" stroke="black" points="342,-42 290,-42 288,-40 288,-24 340,-24 342,-26 342,-42"/>
<polyline fill="none" stroke="black" points="340,-40 288,-40 "/>
<polyline fill="none" stroke="black" points="340,-40 340,-24 "/>
<polyline fill="none" stroke="black" points="340,-40 342,-42 "/>
<text text-anchor="middle" x="315" y="-30.8" font-family="Helvetica,sans-Serif" font-size="9.00">typings</text>
</a>
</g>
</g>
<!-- src/common/router5&#45;&gt;src/common/typings -->
<g id="edge9" class="edge">
<title>src/common/router5&#45;&gt;src/common/typings</title>
<path fill="none" stroke="#000000" stroke-width="2" stroke-opacity="0.200000" d="M315,-54.77C315,-52.82 315,-50.7 315,-48.57"/>
<polygon fill="#000000" fill-opacity="0.200000" stroke="#000000" stroke-width="2" stroke-opacity="0.200000" points="317.1,-48.35 315,-42.35 312.9,-48.35 317.1,-48.35"/>
</g>
<!-- src/common/testing -->
<g id="node13" class="node">
<title>src/common/testing</title>
<g id="a_node13"><a xlink:href="src/common/testing" xlink:title="no&#45;orphans">
<polygon fill="#ccffcc" stroke="orange" points="144,-73 92,-73 90,-71 90,-55 142,-55 144,-57 144,-73"/>
<polyline fill="none" stroke="orange" points="142,-71 90,-71 "/>
<polyline fill="none" stroke="orange" points="142,-71 142,-55 "/>
<polyline fill="none" stroke="orange" points="142,-71 144,-73 "/>
<text text-anchor="middle" x="117" y="-61.8" font-family="Helvetica,sans-Serif" font-size="9.00" fill="orange">testing</text>
</a>
</g>
</g>
<!-- src/index.scss -->
<g id="node15" class="node">
<title>src/index.scss</title>
<g id="a_node15"><a xlink:href="src/index.scss" xlink:title="index.scss">
<path fill="#ffffcc" stroke="black" d="M437.5,-276C437.5,-276 386.5,-276 386.5,-276 383.5,-276 380.5,-273 380.5,-270 380.5,-270 380.5,-264 380.5,-264 380.5,-261 383.5,-258 386.5,-258 386.5,-258 437.5,-258 437.5,-258 440.5,-258 443.5,-261 443.5,-264 443.5,-264 443.5,-270 443.5,-270 443.5,-273 440.5,-276 437.5,-276"/>
<text text-anchor="middle" x="412" y="-264.8" font-family="Helvetica,sans-Serif" font-size="9.00">index.scss</text>
</a>
</g>
</g>
<!-- src/index.tsx -->
<g id="node16" class="node">
<title>src/index.tsx</title>
<g id="a_node16"><a xlink:href="src/index.tsx" xlink:title="index.tsx">
<path fill="#bbfeff" stroke="black" d="M353,-328C353,-328 307,-328 307,-328 304,-328 301,-325 301,-322 301,-322 301,-316 301,-316 301,-313 304,-310 307,-310 307,-310 353,-310 353,-310 356,-310 359,-313 359,-316 359,-316 359,-322 359,-322 359,-325 356,-328 353,-328"/>
<text text-anchor="middle" x="330" y="-316.8" font-family="Helvetica,sans-Serif" font-size="9.00">index.tsx</text>
</a>
</g>
</g>
<!-- src/index.tsx&#45;&gt;src/app/app&#45;store.ts -->
<g id="edge12" class="edge">
<title>src/index.tsx&#45;&gt;src/app/app&#45;store.ts</title>
<path fill="none" stroke="#000000" stroke-width="2" stroke-opacity="0.200000" d="M309.34,-309.93C304.2,-307.62 298.78,-304.93 294,-302 283.66,-295.67 273.06,-287.07 265.1,-280.1"/>
<polygon fill="#000000" fill-opacity="0.200000" stroke="#000000" stroke-width="2" stroke-opacity="0.200000" points="266.38,-278.44 260.51,-276.01 263.59,-281.57 266.38,-278.44"/>
</g>
<!-- src/index.tsx&#45;&gt;src/app/app.tsx -->
<g id="edge11" class="edge">
<title>src/index.tsx&#45;&gt;src/app/app.tsx</title>
<path fill="none" stroke="#000000" stroke-width="2" stroke-opacity="0.200000" d="M329.5,-309.74C329.05,-302.24 328.38,-291.02 327.85,-282.1"/>
<polygon fill="#000000" fill-opacity="0.200000" stroke="#000000" stroke-width="2" stroke-opacity="0.200000" points="329.94,-281.97 327.49,-276.1 325.75,-282.22 329.94,-281.97"/>
</g>
<!-- src/index.tsx&#45;&gt;src/app/router -->
<g id="edge13" class="edge">
<title>src/index.tsx&#45;&gt;src/app/router</title>
<path fill="none" stroke="#000000" stroke-width="2" stroke-opacity="0.200000" d="M352.03,-309.97C355.21,-307.86 358.06,-305.24 360,-302 370.06,-285.23 365.33,-276.81 360,-258 353.42,-234.78 337.13,-211.7 326.07,-197.89"/>
<polygon fill="#000000" fill-opacity="0.200000" stroke="#000000" stroke-width="2" stroke-opacity="0.200000" points="327.68,-196.55 322.25,-193.24 324.43,-199.21 327.68,-196.55"/>
</g>
<!-- src/index.tsx&#45;&gt;src/index.scss -->
<g id="edge10" class="edge">
<title>src/index.tsx&#45;&gt;src/index.scss</title>
<path fill="none" stroke="#000000" stroke-width="2" stroke-opacity="0.200000" d="M354.45,-309.94C360.05,-307.69 365.86,-305.02 371,-302 381.29,-295.94 391.64,-287.34 399.36,-280.3"/>
<polygon fill="#000000" fill-opacity="0.200000" stroke="#000000" stroke-width="2" stroke-opacity="0.200000" points="400.85,-281.79 403.81,-276.16 397.99,-278.71 400.85,-281.79"/>
</g>
</g>
</svg>
