<?xml version="1.0" encoding="UTF-8" standalone="no"?>
<!DOCTYPE svg PUBLIC "-//W3C//DTD SVG 1.1//EN"
 "http://www.w3.org/Graphics/SVG/1.1/DTD/svg11.dtd">
<!-- Generated by graphviz version 2.43.0 (0)
 -->
<!-- Title: dependency&#45;cruiser output Pages: 1 -->
<svg width="458pt" height="401pt"
 viewBox="0.00 0.00 458.00 401.00" xmlns="http://www.w3.org/2000/svg" xmlns:xlink="http://www.w3.org/1999/xlink">
<g id="graph0" class="graph" transform="scale(1 1) rotate(0) translate(4 397)">
<title>dependency&#45;cruiser output</title>
<polygon fill="white" stroke="transparent" points="-4,4 -4,-397 454,-397 454,4 -4,4"/>
<g id="clust1" class="cluster">
<title>cluster_src</title>
<path fill="#ffffff" stroke="black" stroke-width="2" d="M20,-8C20,-8 430,-8 430,-8 436,-8 442,-14 442,-20 442,-20 442,-373 442,-373 442,-379 436,-385 430,-385 430,-385 20,-385 20,-385 14,-385 8,-379 8,-373 8,-373 8,-20 8,-20 8,-14 14,-8 20,-8"/>
<text text-anchor="middle" x="225" y="-373.8" font-family="Helvetica,sans-Serif" font-weight="bold" font-size="9.00">src</text>
</g>
<g id="clust2" class="cluster">
<title>cluster_src/api</title>
<path fill="#ffffff" stroke="black" stroke-width="2" d="M79,-107C79,-107 127,-107 127,-107 133,-107 139,-113 139,-119 139,-119 139,-178 139,-178 139,-184 133,-190 127,-190 127,-190 79,-190 79,-190 73,-190 67,-184 67,-178 67,-178 67,-119 67,-119 67,-113 73,-107 79,-107"/>
<text text-anchor="middle" x="103" y="-178.8" font-family="Helvetica,sans-Serif" font-weight="bold" font-size="9.00">api</text>
</g>
<g id="clust3" class="cluster">
<title>cluster_src/app</title>
<path fill="#ffffff" stroke="black" stroke-width="2" d="M210,-198C210,-198 340,-198 340,-198 346,-198 352,-204 352,-210 352,-210 352,-321 352,-321 352,-327 346,-333 340,-333 340,-333 210,-333 210,-333 204,-333 198,-327 198,-321 198,-321 198,-210 198,-210 198,-204 204,-198 210,-198"/>
<text text-anchor="middle" x="275" y="-321.8" font-family="Helvetica,sans-Serif" font-weight="bold" font-size="9.00">app</text>
</g>
<g id="clust4" class="cluster">
<title>cluster_src/common</title>
<path fill="#ffffff" stroke="black" stroke-width="2" d="M70,-16C70,-16 248,-16 248,-16 254,-16 260,-22 260,-28 260,-28 260,-87 260,-87 260,-93 254,-99 248,-99 248,-99 70,-99 70,-99 64,-99 58,-93 58,-87 58,-87 58,-28 58,-28 58,-22 64,-16 70,-16"/>
<text text-anchor="middle" x="159" y="-87.8" font-family="Helvetica,sans-Serif" font-weight="bold" font-size="9.00">common</text>
</g>
<g id="clust5" class="cluster">
<title>cluster_src/modules</title>
<path fill="#ffffff" stroke="black" stroke-width="2" d="M28,-198C28,-198 178,-198 178,-198 184,-198 190,-204 190,-210 190,-210 190,-238 190,-238 190,-244 184,-250 178,-250 178,-250 28,-250 28,-250 22,-250 16,-244 16,-238 16,-238 16,-210 16,-210 16,-204 22,-198 28,-198"/>
<text text-anchor="middle" x="103" y="-238.8" font-family="Helvetica,sans-Serif" font-weight="bold" font-size="9.00">modules</text>
</g>
<!-- src/.eslintrc.js -->
<g id="node1" class="node">
<title>src/.eslintrc.js</title>
<g id="a_node1"><a xlink:href="src/.eslintrc.js" xlink:title=".eslintrc.js">
<path fill="#ccffcc" stroke="black" d="M424,-359C424,-359 374,-359 374,-359 371,-359 368,-356 368,-353 368,-353 368,-347 368,-347 368,-344 371,-341 374,-341 374,-341 424,-341 424,-341 427,-341 430,-344 430,-347 430,-347 430,-353 430,-353 430,-356 427,-359 424,-359"/>
<text text-anchor="middle" x="399" y="-347.8" font-family="Helvetica,sans-Serif" font-size="9.00">.eslintrc.js</text>
</a>
</g>
</g>
<!-- src/api/common -->
<g id="node2" class="node">
<title>src/api/common</title>
<g id="a_node2"><a xlink:href="src/api/common" xlink:title="common">
<polygon fill="#ffffcc" stroke="black" points="131,-133 77,-133 75,-131 75,-115 129,-115 131,-117 131,-133"/>
<polyline fill="none" stroke="black" points="129,-131 75,-131 "/>
<polyline fill="none" stroke="black" points="129,-131 129,-115 "/>
<polyline fill="none" stroke="black" points="129,-131 131,-133 "/>
<text text-anchor="middle" x="103" y="-121.8" font-family="Helvetica,sans-Serif" font-size="9.00">common</text>
</a>
</g>
</g>
<!-- src/common/http -->
<g id="node3" class="node">
<title>src/common/http</title>
<g id="a_node3"><a xlink:href="src/common/http" xlink:title="http">
<polygon fill="#ffffcc" stroke="black" points="120,-73 68,-73 66,-71 66,-55 118,-55 120,-57 120,-73"/>
<polyline fill="none" stroke="black" points="118,-71 66,-71 "/>
<polyline fill="none" stroke="black" points="118,-71 118,-55 "/>
<polyline fill="none" stroke="black" points="118,-71 120,-73 "/>
<text text-anchor="middle" x="93" y="-61.8" font-family="Helvetica,sans-Serif" font-size="9.00">http</text>
</a>
</g>
</g>
<!-- src/api/common&#45;&gt;src/common/http -->
<g id="edge1" class="edge">
<title>src/api/common&#45;&gt;src/common/http</title>
<path fill="none" stroke="#000000" stroke-width="2" stroke-opacity="0.200000" d="M101.61,-114.94C100.03,-105.78 97.42,-90.65 95.49,-79.44"/>
<polygon fill="#000000" fill-opacity="0.200000" stroke="#000000" stroke-width="2" stroke-opacity="0.200000" points="97.53,-78.93 94.44,-73.37 93.39,-79.64 97.53,-78.93"/>
</g>
<!-- src/common/utils -->
<g id="node13" class="node">
<title>src/common/utils</title>
<g id="a_node13"><a xlink:href="src/common/utils" xlink:title="utils">
<polygon fill="#ffffcc" stroke="black" points="120,-42 68,-42 66,-40 66,-24 118,-24 120,-26 120,-42"/>
<polyline fill="none" stroke="black" points="118,-40 66,-40 "/>
<polyline fill="none" stroke="black" points="118,-40 118,-24 "/>
<polyline fill="none" stroke="black" points="118,-40 120,-42 "/>
<text text-anchor="middle" x="93" y="-30.8" font-family="Helvetica,sans-Serif" font-size="9.00">utils</text>
</a>
</g>
</g>
<!-- src/common/http&#45;&gt;src/common/utils -->
<g id="edge10" class="edge">
<title>src/common/http&#45;&gt;src/common/utils</title>
<path fill="none" stroke="#000000" stroke-width="2" stroke-opacity="0.200000" d="M93,-54.77C93,-52.82 93,-50.7 93,-48.57"/>
<polygon fill="#000000" fill-opacity="0.200000" stroke="#000000" stroke-width="2" stroke-opacity="0.200000" points="95.1,-48.35 93,-42.35 90.9,-48.35 95.1,-48.35"/>
</g>
<!-- src/common/testing -->
<g id="node14" class="node">
<title>src/common/testing</title>
<g id="a_node14"><a xlink:href="src/common/testing" xlink:title="no&#45;orphans">
<polygon fill="#ffffcc" stroke="orange" points="186,-42 134,-42 132,-40 132,-24 184,-24 186,-26 186,-42"/>
<polyline fill="none" stroke="orange" points="184,-40 132,-40 "/>
<polyline fill="none" stroke="orange" points="184,-40 184,-24 "/>
<polyline fill="none" stroke="orange" points="184,-40 186,-42 "/>
<text text-anchor="middle" x="159" y="-30.8" font-family="Helvetica,sans-Serif" font-size="9.00" fill="orange">testing</text>
</a>
</g>
</g>
<!-- src/common/http&#45;&gt;src/common/testing -->
<g id="edge11" class="edge">
<title>src/common/http&#45;&gt;src/common/testing</title>
<path fill="none" stroke="#000000" stroke-width="2" stroke-opacity="0.200000" d="M111.38,-54.92C118.68,-51.72 127.17,-47.99 134.94,-44.57"/>
<polygon fill="#000000" fill-opacity="0.200000" stroke="#000000" stroke-width="2" stroke-opacity="0.200000" points="136.07,-46.37 140.71,-42.03 134.38,-42.53 136.07,-46.37"/>
</g>
<!-- src/common/typings -->
<g id="node15" class="node">
<title>src/common/typings</title>
<g id="a_node15"><a xlink:href="src/common/typings" xlink:title="typings">
<polygon fill="#ffffcc" stroke="black" points="252,-42 200,-42 198,-40 198,-24 250,-24 252,-26 252,-42"/>
<polyline fill="none" stroke="black" points="250,-40 198,-40 "/>
<polyline fill="none" stroke="black" points="250,-40 250,-24 "/>
<polyline fill="none" stroke="black" points="250,-40 252,-42 "/>
<text text-anchor="middle" x="225" y="-30.8" font-family="Helvetica,sans-Serif" font-size="9.00">typings</text>
</a>
</g>
</g>
<!-- src/common/http&#45;&gt;src/common/typings -->
<g id="edge12" class="edge">
<title>src/common/http&#45;&gt;src/common/typings</title>
<path fill="none" stroke="#000000" stroke-width="2" stroke-opacity="0.200000" d="M120.35,-56.27C122.26,-55.83 124.16,-55.4 126,-55 153.38,-48.99 161.76,-48.46 191.42,-42.08"/>
<polygon fill="#000000" fill-opacity="0.200000" stroke="#000000" stroke-width="2" stroke-opacity="0.200000" points="192.23,-44.06 197.65,-40.73 191.34,-39.95 192.23,-44.06"/>
</g>
<!-- src/api/github -->
<g id="node4" class="node">
<title>src/api/github</title>
<g id="a_node4"><a xlink:href="src/api/github" xlink:title="github">
<polygon fill="#ffffcc" stroke="black" points="129,-164 77,-164 75,-162 75,-146 127,-146 129,-148 129,-164"/>
<polyline fill="none" stroke="black" points="127,-162 75,-162 "/>
<polyline fill="none" stroke="black" points="127,-162 127,-146 "/>
<polyline fill="none" stroke="black" points="127,-162 129,-164 "/>
<text text-anchor="middle" x="102" y="-152.8" font-family="Helvetica,sans-Serif" font-size="9.00">github</text>
</a>
</g>
</g>
<!-- src/api/github&#45;&gt;src/api/common -->
<g id="edge2" class="edge">
<title>src/api/github&#45;&gt;src/api/common</title>
<path fill="none" stroke="#000000" stroke-width="2" stroke-opacity="0.200000" d="M102.28,-145.77C102.35,-143.82 102.42,-141.7 102.5,-139.57"/>
<polygon fill="#000000" fill-opacity="0.200000" stroke="#000000" stroke-width="2" stroke-opacity="0.200000" points="104.6,-139.42 102.71,-133.35 100.41,-139.28 104.6,-139.42"/>
</g>
<!-- src/app/app&#45;store.ts -->
<g id="node5" class="node">
<title>src/app/app&#45;store.ts</title>
<g id="a_node5"><a xlink:href="src/app/app-store.ts" xlink:title="app&#45;store.ts">
<path fill="#ddfeff" stroke="black" d="M271.5,-307C271.5,-307 212.5,-307 212.5,-307 209.5,-307 206.5,-304 206.5,-301 206.5,-301 206.5,-295 206.5,-295 206.5,-292 209.5,-289 212.5,-289 212.5,-289 271.5,-289 271.5,-289 274.5,-289 277.5,-292 277.5,-295 277.5,-295 277.5,-301 277.5,-301 277.5,-304 274.5,-307 271.5,-307"/>
<text text-anchor="middle" x="242" y="-295.8" font-family="Helvetica,sans-Serif" font-size="9.00">app&#45;store.ts</text>
</a>
</g>
</g>
<!-- src/common/redux -->
<g id="node6" class="node">
<title>src/common/redux</title>
<g id="a_node6"><a xlink:href="src/common/redux" xlink:title="redux">
<polygon fill="#ffffcc" stroke="black" points="186,-73 134,-73 132,-71 132,-55 184,-55 186,-57 186,-73"/>
<polyline fill="none" stroke="black" points="184,-71 132,-71 "/>
<polyline fill="none" stroke="black" points="184,-71 184,-55 "/>
<polyline fill="none" stroke="black" points="184,-71 186,-73 "/>
<text text-anchor="middle" x="159" y="-61.8" font-family="Helvetica,sans-Serif" font-size="9.00">redux</text>
</a>
</g>
</g>
<!-- src/app/app&#45;store.ts&#45;&gt;src/common/redux -->
<g id="edge3" class="edge">
<title>src/app/app&#45;store.ts&#45;&gt;src/common/redux</title>
<path fill="none" stroke="#000000" stroke-width="2" stroke-opacity="0.200000" d="M266.44,-288.87C272.41,-285.75 278.18,-281.56 282,-276 297.2,-253.87 289,-242.85 289,-216 289,-216 289,-216 289,-154 289,-104.44 231.21,-129.31 192,-99 184.01,-92.83 176.1,-84.76 170.03,-78.03"/>
<polygon fill="#000000" fill-opacity="0.200000" stroke="#000000" stroke-width="2" stroke-opacity="0.200000" points="171.31,-76.31 165.77,-73.2 168.16,-79.09 171.31,-76.31"/>
</g>
<!-- src/modules/github -->
<g id="node7" class="node">
<title>src/modules/github</title>
<g id="a_node7"><a xlink:href="src/modules/github" xlink:title="github">
<polygon fill="#ffffcc" stroke="black" points="78,-224 26,-224 24,-222 24,-206 76,-206 78,-208 78,-224"/>
<polyline fill="none" stroke="black" points="76,-222 24,-222 "/>
<polyline fill="none" stroke="black" points="76,-222 76,-206 "/>
<polyline fill="none" stroke="black" points="76,-222 78,-224 "/>
<text text-anchor="middle" x="51" y="-212.8" font-family="Helvetica,sans-Serif" font-size="9.00">github</text>
</a>
</g>
</g>
<!-- src/app/app&#45;store.ts&#45;&gt;src/modules/github -->
<g id="edge4" class="edge">
<title>src/app/app&#45;store.ts&#45;&gt;src/modules/github</title>
<path fill="none" stroke="#000000" stroke-width="2" stroke-opacity="0.200000" d="M206.31,-291.74C172.82,-285.61 122.31,-273.21 84,-250 74.97,-244.53 66.7,-235.99 60.69,-228.85"/>
<polygon fill="#000000" fill-opacity="0.200000" stroke="#000000" stroke-width="2" stroke-opacity="0.200000" points="62.32,-227.52 56.92,-224.17 59.06,-230.16 62.32,-227.52"/>
</g>
<!-- src/modules/github&#45;&gt;src/common/http -->
<g id="edge21" class="edge">
<title>src/modules/github&#45;&gt;src/common/http</title>
<path fill="none" stroke="#000000" stroke-width="2" stroke-opacity="0.200000" d="M50.69,-205.9C50.26,-187.62 50.72,-141.99 64,-107 67.98,-96.5 75.13,-86.1 81.33,-78.28"/>
<polygon fill="#000000" fill-opacity="0.200000" stroke="#000000" stroke-width="2" stroke-opacity="0.200000" points="83.24,-79.27 85.43,-73.3 79.99,-76.6 83.24,-79.27"/>
</g>
<!-- src/modules/github&#45;&gt;src/api/github -->
<g id="edge18" class="edge">
<title>src/modules/github&#45;&gt;src/api/github</title>
<path fill="none" stroke="#000000" stroke-width="2" stroke-opacity="0.200000" d="M58.09,-205.94C66.52,-196.35 80.7,-180.23 90.66,-168.9"/>
<polygon fill="#000000" fill-opacity="0.200000" stroke="#000000" stroke-width="2" stroke-opacity="0.200000" points="92.25,-170.26 94.64,-164.37 89.1,-167.49 92.25,-170.26"/>
</g>
<!-- src/modules/github&#45;&gt;src/common/redux -->
<g id="edge19" class="edge">
<title>src/modules/github&#45;&gt;src/common/redux</title>
<path fill="none" stroke="#000000" stroke-width="2" stroke-opacity="0.200000" d="M65.06,-205.97C70.77,-203.04 77.54,-199.96 84,-198 96.45,-194.23 132.81,-199.21 142,-190 171.67,-160.28 166.43,-104.95 161.93,-79.05"/>
<polygon fill="#000000" fill-opacity="0.200000" stroke="#000000" stroke-width="2" stroke-opacity="0.200000" points="163.99,-78.65 160.83,-73.14 159.86,-79.42 163.99,-78.65"/>
</g>
<!-- src/modules/github&#45;&gt;src/common/utils -->
<g id="edge20" class="edge">
<title>src/modules/github&#45;&gt;src/common/utils</title>
<path fill="none" stroke="#000000" stroke-width="2" stroke-opacity="0.200000" d="M48.91,-205.9C42.97,-181.02 28.42,-104.38 60,-55 62.36,-51.3 65.64,-48.13 69.21,-45.46"/>
<polygon fill="#000000" fill-opacity="0.200000" stroke="#000000" stroke-width="2" stroke-opacity="0.200000" points="70.39,-47.2 74.21,-42.12 68.06,-43.71 70.39,-47.2"/>
</g>
<!-- src/app/app.tsx -->
<g id="node8" class="node">
<title>src/app/app.tsx</title>
<g id="a_node8"><a xlink:href="src/app/app.tsx" xlink:title="app.tsx">
<path fill="#bbfeff" stroke="black" d="M338,-307C338,-307 296,-307 296,-307 293,-307 290,-304 290,-301 290,-301 290,-295 290,-295 290,-292 293,-289 296,-289 296,-289 338,-289 338,-289 341,-289 344,-292 344,-295 344,-295 344,-301 344,-301 344,-304 341,-307 338,-307"/>
<text text-anchor="middle" x="317" y="-295.8" font-family="Helvetica,sans-Serif" font-size="9.00">app.tsx</text>
</a>
</g>
</g>
<!-- src/app/main&#45;layout -->
<g id="node9" class="node">
<title>src/app/main&#45;layout</title>
<g id="a_node9"><a xlink:href="src/app/main-layout" xlink:title="main&#45;layout">
<polygon fill="#ffffcc" stroke="black" points="276,-276 208,-276 206,-274 206,-258 274,-258 276,-260 276,-276"/>
<polyline fill="none" stroke="black" points="274,-274 206,-274 "/>
<polyline fill="none" stroke="black" points="274,-274 274,-258 "/>
<polyline fill="none" stroke="black" points="274,-274 276,-276 "/>
<text text-anchor="middle" x="241" y="-264.8" font-family="Helvetica,sans-Serif" font-size="9.00">main&#45;layout</text>
</a>
</g>
</g>
<!-- src/app/app.tsx&#45;&gt;src/app/main&#45;layout -->
<g id="edge5" class="edge">
<title>src/app/app.tsx&#45;&gt;src/app/main&#45;layout</title>
<path fill="none" stroke="#000000" stroke-width="2" stroke-opacity="0.200000" d="M295.83,-288.92C287.18,-285.62 277.08,-281.77 267.92,-278.27"/>
<polygon fill="#000000" fill-opacity="0.200000" stroke="#000000" stroke-width="2" stroke-opacity="0.200000" points="268.41,-276.21 262.06,-276.03 266.91,-280.14 268.41,-276.21"/>
</g>
<!-- src/app/main&#45;layout&#45;&gt;src/modules/github -->
<g id="edge7" class="edge">
<title>src/app/main&#45;layout&#45;&gt;src/modules/github</title>
<path fill="none" stroke="#000000" stroke-width="2" stroke-opacity="0.200000" d="M205.93,-263.7C163.01,-260.69 94.7,-255.18 84,-250 74.25,-245.28 65.81,-236.43 59.9,-228.94"/>
<polygon fill="#000000" fill-opacity="0.200000" stroke="#000000" stroke-width="2" stroke-opacity="0.200000" points="61.51,-227.58 56.23,-224.04 58.14,-230.1 61.51,-227.58"/>
</g>
<!-- src/app/router -->
<g id="node10" class="node">
<title>src/app/router</title>
<g id="a_node10"><a xlink:href="src/app/router" xlink:title="router">
<polygon fill="#ffffcc" stroke="black" points="268,-224 216,-224 214,-222 214,-206 266,-206 268,-208 268,-224"/>
<polyline fill="none" stroke="black" points="266,-222 214,-222 "/>
<polyline fill="none" stroke="black" points="266,-222 266,-206 "/>
<polyline fill="none" stroke="black" points="266,-222 268,-224 "/>
<text text-anchor="middle" x="241" y="-212.8" font-family="Helvetica,sans-Serif" font-size="9.00">router</text>
</a>
</g>
</g>
<!-- src/app/main&#45;layout&#45;&gt;src/app/router -->
<g id="edge6" class="edge">
<title>src/app/main&#45;layout&#45;&gt;src/app/router</title>
<path fill="none" stroke="#000000" stroke-width="2" stroke-opacity="0.200000" d="M241,-257.74C241,-250.24 241,-239.02 241,-230.1"/>
<polygon fill="#000000" fill-opacity="0.200000" stroke="#000000" stroke-width="2" stroke-opacity="0.200000" points="243.1,-230.1 241,-224.1 238.9,-230.1 243.1,-230.1"/>
</g>
<!-- src/modules/http&#45;client&#45;demo -->
<g id="node11" class="node">
<title>src/modules/http&#45;client&#45;demo</title>
<g id="a_node11"><a xlink:href="src/modules/http-client-demo" xlink:title="http&#45;client&#45;demo">
<polygon fill="#ffffcc" stroke="black" points="182,-224 92,-224 90,-222 90,-206 180,-206 182,-208 182,-224"/>
<polyline fill="none" stroke="black" points="180,-222 90,-222 "/>
<polyline fill="none" stroke="black" points="180,-222 180,-206 "/>
<polyline fill="none" stroke="black" points="180,-222 182,-224 "/>
<text text-anchor="middle" x="136" y="-212.8" font-family="Helvetica,sans-Serif" font-size="9.00">http&#45;client&#45;demo</text>
</a>
</g>
</g>
<!-- src/app/main&#45;layout&#45;&gt;src/modules/http&#45;client&#45;demo -->
<g id="edge8" class="edge">
<title>src/app/main&#45;layout&#45;&gt;src/modules/http&#45;client&#45;demo</title>
<path fill="none" stroke="#000000" stroke-width="2" stroke-opacity="0.200000" d="M214.87,-257.87C208.29,-255.56 201.31,-252.88 195,-250 180.59,-243.41 165.09,-234.4 153.59,-227.31"/>
<polygon fill="#000000" fill-opacity="0.200000" stroke="#000000" stroke-width="2" stroke-opacity="0.200000" points="154.5,-225.4 148.3,-224 152.27,-228.96 154.5,-225.4"/>
</g>
<!-- src/common/router5 -->
<g id="node12" class="node">
<title>src/common/router5</title>
<g id="a_node12"><a xlink:href="src/common/router5" xlink:title="router5">
<polygon fill="#ffffcc" stroke="black" points="252,-73 200,-73 198,-71 198,-55 250,-55 252,-57 252,-73"/>
<polyline fill="none" stroke="black" points="250,-71 198,-71 "/>
<polyline fill="none" stroke="black" points="250,-71 250,-55 "/>
<polyline fill="none" stroke="black" points="250,-71 252,-73 "/>
<text text-anchor="middle" x="225" y="-61.8" font-family="Helvetica,sans-Serif" font-size="9.00">router5</text>
</a>
</g>
</g>
<!-- src/app/router&#45;&gt;src/common/router5 -->
<g id="edge9" class="edge">
<title>src/app/router&#45;&gt;src/common/router5</title>
<path fill="none" stroke="#000000" stroke-width="2" stroke-opacity="0.200000" d="M240.14,-205.99C237.56,-181.94 229.84,-110.12 226.54,-79.3"/>
<polygon fill="#000000" fill-opacity="0.200000" stroke="#000000" stroke-width="2" stroke-opacity="0.200000" points="228.59,-78.79 225.86,-73.05 224.42,-79.24 228.59,-78.79"/>
</g>
<!-- src/common/router5&#45;&gt;src/common/typings -->
<g id="edge13" class="edge">
<title>src/common/router5&#45;&gt;src/common/typings</title>
<path fill="none" stroke="#000000" stroke-width="2" stroke-opacity="0.200000" d="M225,-54.77C225,-52.82 225,-50.7 225,-48.57"/>
<polygon fill="#000000" fill-opacity="0.200000" stroke="#000000" stroke-width="2" stroke-opacity="0.200000" points="227.1,-48.35 225,-42.35 222.9,-48.35 227.1,-48.35"/>
</g>
<!-- src/index.scss -->
<g id="node16" class="node">
<title>src/index.scss</title>
<g id="a_node16"><a xlink:href="src/index.scss" xlink:title="index.scss">
<path fill="#ffffcc" stroke="black" d="M427.5,-307C427.5,-307 376.5,-307 376.5,-307 373.5,-307 370.5,-304 370.5,-301 370.5,-301 370.5,-295 370.5,-295 370.5,-292 373.5,-289 376.5,-289 376.5,-289 427.5,-289 427.5,-289 430.5,-289 433.5,-292 433.5,-295 433.5,-295 433.5,-301 433.5,-301 433.5,-304 430.5,-307 427.5,-307"/>
<text text-anchor="middle" x="402" y="-295.8" font-family="Helvetica,sans-Serif" font-size="9.00">index.scss</text>
</a>
</g>
</g>
<!-- src/index.tsx -->
<g id="node17" class="node">
<title>src/index.tsx</title>
<g id="a_node17"><a xlink:href="src/index.tsx" xlink:title="index.tsx">
<path fill="#bbfeff" stroke="black" d="M343,-359C343,-359 297,-359 297,-359 294,-359 291,-356 291,-353 291,-353 291,-347 291,-347 291,-344 294,-341 297,-341 297,-341 343,-341 343,-341 346,-341 349,-344 349,-347 349,-347 349,-353 349,-353 349,-356 346,-359 343,-359"/>
<text text-anchor="middle" x="320" y="-347.8" font-family="Helvetica,sans-Serif" font-size="9.00">index.tsx</text>
</a>
</g>
</g>
<!-- src/index.tsx&#45;&gt;src/app/app&#45;store.ts -->
<g id="edge16" class="edge">
<title>src/index.tsx&#45;&gt;src/app/app&#45;store.ts</title>
<path fill="none" stroke="#000000" stroke-width="2" stroke-opacity="0.200000" d="M299.34,-340.93C294.2,-338.62 288.78,-335.93 284,-333 273.66,-326.67 263.06,-318.07 255.1,-311.1"/>
<polygon fill="#000000" fill-opacity="0.200000" stroke="#000000" stroke-width="2" stroke-opacity="0.200000" points="256.38,-309.44 250.51,-307.01 253.59,-312.57 256.38,-309.44"/>
</g>
<!-- src/index.tsx&#45;&gt;src/app/app.tsx -->
<g id="edge15" class="edge">
<title>src/index.tsx&#45;&gt;src/app/app.tsx</title>
<path fill="none" stroke="#000000" stroke-width="2" stroke-opacity="0.200000" d="M319.5,-340.74C319.05,-333.24 318.38,-322.02 317.85,-313.1"/>
<polygon fill="#000000" fill-opacity="0.200000" stroke="#000000" stroke-width="2" stroke-opacity="0.200000" points="319.94,-312.97 317.49,-307.1 315.75,-313.22 319.94,-312.97"/>
</g>
<!-- src/index.tsx&#45;&gt;src/app/router -->
<g id="edge17" class="edge">
<title>src/index.tsx&#45;&gt;src/app/router</title>
<path fill="none" stroke="#000000" stroke-width="2" stroke-opacity="0.200000" d="M342.03,-340.97C345.21,-338.86 348.06,-336.24 350,-333 360.06,-316.23 359.21,-306.25 350,-289 333.35,-257.81 296.8,-237.6 270.62,-226.52"/>
<polygon fill="#000000" fill-opacity="0.200000" stroke="#000000" stroke-width="2" stroke-opacity="0.200000" points="271.22,-224.5 264.87,-224.17 269.62,-228.39 271.22,-224.5"/>
</g>
<!-- src/index.tsx&#45;&gt;src/index.scss -->
<g id="edge14" class="edge">
<title>src/index.tsx&#45;&gt;src/index.scss</title>
<path fill="none" stroke="#000000" stroke-width="2" stroke-opacity="0.200000" d="M344.45,-340.94C350.05,-338.69 355.86,-336.02 361,-333 371.29,-326.94 381.64,-318.34 389.36,-311.3"/>
<polygon fill="#000000" fill-opacity="0.200000" stroke="#000000" stroke-width="2" stroke-opacity="0.200000" points="390.85,-312.79 393.81,-307.16 387.99,-309.71 390.85,-312.79"/>
</g>
</g>
</svg>
