<?xml version="1.0" encoding="UTF-8" standalone="no"?>
<!DOCTYPE svg PUBLIC "-//W3C//DTD SVG 1.1//EN"
 "http://www.w3.org/Graphics/SVG/1.1/DTD/svg11.dtd">
<!-- Generated by graphviz version 2.43.0 (0)
 -->
<!-- Title: dependency&#45;cruiser output Pages: 1 -->
<svg width="426pt" height="469pt"
 viewBox="0.00 0.00 426.00 469.00" xmlns="http://www.w3.org/2000/svg" xmlns:xlink="http://www.w3.org/1999/xlink">
<g id="graph0" class="graph" transform="scale(1 1) rotate(0) translate(4 465)">
<title>dependency&#45;cruiser output</title>
<polygon fill="white" stroke="transparent" points="-4,4 -4,-465 422,-465 422,4 -4,4"/>
<g id="clust1" class="cluster">
<title>cluster_src</title>
<path fill="#ffffff" stroke="black" stroke-width="2" d="M20,-8C20,-8 398,-8 398,-8 404,-8 410,-14 410,-20 410,-20 410,-441 410,-441 410,-447 404,-453 398,-453 398,-453 20,-453 20,-453 14,-453 8,-447 8,-441 8,-441 8,-20 8,-20 8,-14 14,-8 20,-8"/>
<text text-anchor="middle" x="209" y="-441.8" font-family="Helvetica,sans-Serif" font-weight="bold" font-size="9.00">src</text>
</g>
<g id="clust2" class="cluster">
<title>cluster_src/api</title>
<path fill="#ffffff" stroke="black" stroke-width="2" d="M52,-107C52,-107 176,-107 176,-107 182,-107 188,-113 188,-119 188,-119 188,-178 188,-178 188,-184 182,-190 176,-190 176,-190 52,-190 52,-190 46,-190 40,-184 40,-178 40,-178 40,-119 40,-119 40,-113 46,-107 52,-107"/>
<text text-anchor="middle" x="114" y="-178.8" font-family="Helvetica,sans-Serif" font-weight="bold" font-size="9.00">api</text>
</g>
<g id="clust3" class="cluster">
<title>cluster_src/app</title>
<path fill="#ffffff" stroke="black" stroke-width="2" d="M178,-232C178,-232 308,-232 308,-232 314,-232 320,-238 320,-244 320,-244 320,-355 320,-355 320,-361 314,-367 308,-367 308,-367 178,-367 178,-367 172,-367 166,-361 166,-355 166,-355 166,-244 166,-244 166,-238 172,-232 178,-232"/>
<text text-anchor="middle" x="243" y="-355.8" font-family="Helvetica,sans-Serif" font-weight="bold" font-size="9.00">app</text>
</g>
<g id="clust4" class="cluster">
<title>cluster_src/common</title>
<path fill="#ffffff" stroke="black" stroke-width="2" d="M43,-16C43,-16 221,-16 221,-16 227,-16 233,-22 233,-28 233,-28 233,-87 233,-87 233,-93 227,-99 221,-99 221,-99 43,-99 43,-99 37,-99 31,-93 31,-87 31,-87 31,-28 31,-28 31,-22 37,-16 43,-16"/>
<text text-anchor="middle" x="132" y="-87.8" font-family="Helvetica,sans-Serif" font-weight="bold" font-size="9.00">common</text>
</g>
<g id="clust5" class="cluster">
<title>cluster_src/modules</title>
<path fill="#ffffff" stroke="black" stroke-width="2" d="M34,-198C34,-198 146,-198 146,-198 152,-198 158,-204 158,-210 158,-210 158,-272 158,-272 158,-278 152,-284 146,-284 146,-284 34,-284 34,-284 28,-284 22,-278 22,-272 22,-272 22,-210 22,-210 22,-204 28,-198 34,-198"/>
<text text-anchor="middle" x="90" y="-272.8" font-family="Helvetica,sans-Serif" font-weight="bold" font-size="9.00">modules</text>
</g>
<g id="clust6" class="cluster">
<title>cluster_src/polyfills</title>
<path fill="#ffffff" stroke="black" stroke-width="2" d="M320,-375C320,-375 390,-375 390,-375 396,-375 402,-381 402,-387 402,-387 402,-415 402,-415 402,-421 396,-427 390,-427 390,-427 320,-427 320,-427 314,-427 308,-421 308,-415 308,-415 308,-387 308,-387 308,-381 314,-375 320,-375"/>
<text text-anchor="middle" x="355" y="-415.8" font-family="Helvetica,sans-Serif" font-weight="bold" font-size="9.00">polyfills</text>
</g>
<!-- src/.eslintrc.js -->
<g id="node1" class="node">
<title>src/.eslintrc.js</title>
<g id="a_node1"><a xlink:href="src/.eslintrc.js" xlink:title=".eslintrc.js">
<path fill="#ccffcc" stroke="black" d="M294,-401C294,-401 244,-401 244,-401 241,-401 238,-398 238,-395 238,-395 238,-389 238,-389 238,-386 241,-383 244,-383 244,-383 294,-383 294,-383 297,-383 300,-386 300,-389 300,-389 300,-395 300,-395 300,-398 297,-401 294,-401"/>
<text text-anchor="middle" x="269" y="-389.8" font-family="Helvetica,sans-Serif" font-size="9.00">.eslintrc.js</text>
</a>
</g>
</g>
<!-- src/api/common -->
<g id="node2" class="node">
<title>src/api/common</title>
<g id="a_node2"><a xlink:href="src/api/common" xlink:title="common">
<polygon fill="#ffffcc" stroke="black" points="104,-133 50,-133 48,-131 48,-115 102,-115 104,-117 104,-133"/>
<polyline fill="none" stroke="black" points="102,-131 48,-131 "/>
<polyline fill="none" stroke="black" points="102,-131 102,-115 "/>
<polyline fill="none" stroke="black" points="102,-131 104,-133 "/>
<text text-anchor="middle" x="76" y="-121.8" font-family="Helvetica,sans-Serif" font-size="9.00">common</text>
</a>
</g>
</g>
<!-- src/common/http -->
<g id="node3" class="node">
<title>src/common/http</title>
<g id="a_node3"><a xlink:href="src/common/http" xlink:title="http">
<polygon fill="#ffffcc" stroke="black" points="93,-73 41,-73 39,-71 39,-55 91,-55 93,-57 93,-73"/>
<polyline fill="none" stroke="black" points="91,-71 39,-71 "/>
<polyline fill="none" stroke="black" points="91,-71 91,-55 "/>
<polyline fill="none" stroke="black" points="91,-71 93,-73 "/>
<text text-anchor="middle" x="66" y="-61.8" font-family="Helvetica,sans-Serif" font-size="9.00">http</text>
</a>
</g>
</g>
<!-- src/api/common&#45;&gt;src/common/http -->
<g id="edge1" class="edge">
<title>src/api/common&#45;&gt;src/common/http</title>
<path fill="none" stroke="#000000" stroke-width="2" stroke-opacity="0.200000" d="M74.61,-114.94C73.03,-105.78 70.42,-90.65 68.49,-79.44"/>
<polygon fill="#000000" fill-opacity="0.200000" stroke="#000000" stroke-width="2" stroke-opacity="0.200000" points="70.53,-78.93 67.44,-73.37 66.39,-79.64 70.53,-78.93"/>
</g>
<!-- src/common/utils -->
<g id="node15" class="node">
<title>src/common/utils</title>
<g id="a_node15"><a xlink:href="src/common/utils" xlink:title="utils">
<polygon fill="#ffffcc" stroke="black" points="159,-42 107,-42 105,-40 105,-24 157,-24 159,-26 159,-42"/>
<polyline fill="none" stroke="black" points="157,-40 105,-40 "/>
<polyline fill="none" stroke="black" points="157,-40 157,-24 "/>
<polyline fill="none" stroke="black" points="157,-40 159,-42 "/>
<text text-anchor="middle" x="132" y="-30.8" font-family="Helvetica,sans-Serif" font-size="9.00">utils</text>
</a>
</g>
</g>
<!-- src/common/http&#45;&gt;src/common/utils -->
<g id="edge14" class="edge">
<title>src/common/http&#45;&gt;src/common/utils</title>
<path fill="none" stroke="#000000" stroke-width="2" stroke-opacity="0.200000" d="M84.38,-54.92C91.68,-51.72 100.17,-47.99 107.94,-44.57"/>
<polygon fill="#000000" fill-opacity="0.200000" stroke="#000000" stroke-width="2" stroke-opacity="0.200000" points="109.07,-46.37 113.71,-42.03 107.38,-42.53 109.07,-46.37"/>
</g>
<!-- src/api/github -->
<g id="node4" class="node">
<title>src/api/github</title>
<g id="a_node4"><a xlink:href="src/api/github" xlink:title="github">
<polygon fill="#ffffcc" stroke="black" points="102,-164 50,-164 48,-162 48,-146 100,-146 102,-148 102,-164"/>
<polyline fill="none" stroke="black" points="100,-162 48,-162 "/>
<polyline fill="none" stroke="black" points="100,-162 100,-146 "/>
<polyline fill="none" stroke="black" points="100,-162 102,-164 "/>
<text text-anchor="middle" x="75" y="-152.8" font-family="Helvetica,sans-Serif" font-size="9.00">github</text>
</a>
</g>
</g>
<!-- src/api/github&#45;&gt;src/api/common -->
<g id="edge2" class="edge">
<title>src/api/github&#45;&gt;src/api/common</title>
<path fill="none" stroke="#000000" stroke-width="2" stroke-opacity="0.200000" d="M75.28,-145.77C75.35,-143.82 75.42,-141.7 75.5,-139.57"/>
<polygon fill="#000000" fill-opacity="0.200000" stroke="#000000" stroke-width="2" stroke-opacity="0.200000" points="77.6,-139.42 75.71,-133.35 73.41,-139.28 77.6,-139.42"/>
</g>
<!-- src/api/pizza&#45;store -->
<g id="node5" class="node">
<title>src/api/pizza&#45;store</title>
<g id="a_node5"><a xlink:href="src/api/pizza-store" xlink:title="pizza&#45;store">
<polygon fill="#ffffcc" stroke="black" points="179.5,-164 116.5,-164 114.5,-162 114.5,-146 177.5,-146 179.5,-148 179.5,-164"/>
<polyline fill="none" stroke="black" points="177.5,-162 114.5,-162 "/>
<polyline fill="none" stroke="black" points="177.5,-162 177.5,-146 "/>
<polyline fill="none" stroke="black" points="177.5,-162 179.5,-164 "/>
<text text-anchor="middle" x="147" y="-152.8" font-family="Helvetica,sans-Serif" font-size="9.00">pizza&#45;store</text>
</a>
</g>
</g>
<!-- src/api/pizza&#45;store&#45;&gt;src/api/common -->
<g id="edge3" class="edge">
<title>src/api/pizza&#45;store&#45;&gt;src/api/common</title>
<path fill="none" stroke="#000000" stroke-width="2" stroke-opacity="0.200000" d="M127.22,-145.92C119.22,-142.65 109.88,-138.84 101.39,-135.37"/>
<polygon fill="#000000" fill-opacity="0.200000" stroke="#000000" stroke-width="2" stroke-opacity="0.200000" points="102.02,-133.36 95.67,-133.03 100.43,-137.25 102.02,-133.36"/>
</g>
<!-- src/api/pizza&#45;store&#45;&gt;src/common/http -->
<g id="edge5" class="edge">
<title>src/api/pizza&#45;store&#45;&gt;src/common/http</title>
<path fill="none" stroke="#000000" stroke-width="2" stroke-opacity="0.200000" d="M141.58,-145.8C134.86,-135.95 122.72,-119.24 110,-107 105.64,-102.81 103.57,-102.96 99,-99 91.47,-92.47 83.68,-84.51 77.56,-77.93"/>
<polygon fill="#000000" fill-opacity="0.200000" stroke="#000000" stroke-width="2" stroke-opacity="0.200000" points="78.84,-76.22 73.24,-73.22 75.75,-79.06 78.84,-76.22"/>
</g>
<!-- src/common/api -->
<g id="node6" class="node">
<title>src/common/api</title>
<g id="a_node6"><a xlink:href="src/common/api" xlink:title="api">
<polygon fill="#ffffcc" stroke="black" points="159,-73 107,-73 105,-71 105,-55 157,-55 159,-57 159,-73"/>
<polyline fill="none" stroke="black" points="157,-71 105,-71 "/>
<polyline fill="none" stroke="black" points="157,-71 157,-55 "/>
<polyline fill="none" stroke="black" points="157,-71 159,-73 "/>
<text text-anchor="middle" x="132" y="-61.8" font-family="Helvetica,sans-Serif" font-size="9.00">api</text>
</a>
</g>
</g>
<!-- src/api/pizza&#45;store&#45;&gt;src/common/api -->
<g id="edge4" class="edge">
<title>src/api/pizza&#45;store&#45;&gt;src/common/api</title>
<path fill="none" stroke="#000000" stroke-width="2" stroke-opacity="0.200000" d="M145.62,-145.79C143.07,-130.69 137.62,-98.34 134.44,-79.48"/>
<polygon fill="#000000" fill-opacity="0.200000" stroke="#000000" stroke-width="2" stroke-opacity="0.200000" points="136.45,-78.76 133.38,-73.19 132.31,-79.46 136.45,-78.76"/>
</g>
<!-- src/app/app&#45;store.ts -->
<g id="node7" class="node">
<title>src/app/app&#45;store.ts</title>
<g id="a_node7"><a xlink:href="src/app/app-store.ts" xlink:title="app&#45;store.ts">
<path fill="#ddfeff" stroke="black" d="M239.5,-341C239.5,-341 180.5,-341 180.5,-341 177.5,-341 174.5,-338 174.5,-335 174.5,-335 174.5,-329 174.5,-329 174.5,-326 177.5,-323 180.5,-323 180.5,-323 239.5,-323 239.5,-323 242.5,-323 245.5,-326 245.5,-329 245.5,-329 245.5,-335 245.5,-335 245.5,-338 242.5,-341 239.5,-341"/>
<text text-anchor="middle" x="210" y="-329.8" font-family="Helvetica,sans-Serif" font-size="9.00">app&#45;store.ts</text>
</a>
</g>
</g>
<!-- src/common/redux -->
<g id="node8" class="node">
<title>src/common/redux</title>
<g id="a_node8"><a xlink:href="src/common/redux" xlink:title="redux">
<polygon fill="#ffffcc" stroke="black" points="225,-73 173,-73 171,-71 171,-55 223,-55 225,-57 225,-73"/>
<polyline fill="none" stroke="black" points="223,-71 171,-71 "/>
<polyline fill="none" stroke="black" points="223,-71 223,-55 "/>
<polyline fill="none" stroke="black" points="223,-71 225,-73 "/>
<text text-anchor="middle" x="198" y="-61.8" font-family="Helvetica,sans-Serif" font-size="9.00">redux</text>
</a>
</g>
</g>
<!-- src/app/app&#45;store.ts&#45;&gt;src/common/redux -->
<g id="edge6" class="edge">
<title>src/app/app&#45;store.ts&#45;&gt;src/common/redux</title>
<path fill="none" stroke="#000000" stroke-width="2" stroke-opacity="0.200000" d="M211.19,-322.78C215.23,-293.29 227.4,-190.16 213,-107 211.32,-97.27 207.59,-86.82 204.27,-78.77"/>
<polygon fill="#000000" fill-opacity="0.200000" stroke="#000000" stroke-width="2" stroke-opacity="0.200000" points="206.15,-77.83 201.85,-73.14 202.29,-79.48 206.15,-77.83"/>
</g>
<!-- src/modules/auth -->
<g id="node9" class="node">
<title>src/modules/auth</title>
<g id="a_node9"><a xlink:href="src/modules/auth" xlink:title="auth">
<polygon fill="#ffffcc" stroke="black" points="84,-224 32,-224 30,-222 30,-206 82,-206 84,-208 84,-224"/>
<polyline fill="none" stroke="black" points="82,-222 30,-222 "/>
<polyline fill="none" stroke="black" points="82,-222 82,-206 "/>
<polyline fill="none" stroke="black" points="82,-222 84,-224 "/>
<text text-anchor="middle" x="57" y="-212.8" font-family="Helvetica,sans-Serif" font-size="9.00">auth</text>
</a>
</g>
</g>
<!-- src/app/app&#45;store.ts&#45;&gt;src/modules/auth -->
<g id="edge7" class="edge">
<title>src/app/app&#45;store.ts&#45;&gt;src/modules/auth</title>
<path fill="none" stroke="#000000" stroke-width="2" stroke-opacity="0.200000" d="M174.36,-327.37C125.39,-321.55 41.38,-308.22 24,-284 10.52,-265.23 11.73,-251.59 24,-232 24.95,-230.48 26.09,-229.11 27.37,-227.86"/>
<polygon fill="#000000" fill-opacity="0.200000" stroke="#000000" stroke-width="2" stroke-opacity="0.200000" points="28.74,-229.45 32.16,-224.08 26.14,-226.15 28.74,-229.45"/>
</g>
<!-- src/modules/github -->
<g id="node10" class="node">
<title>src/modules/github</title>
<g id="a_node10"><a xlink:href="src/modules/github" xlink:title="github">
<polygon fill="#ffffcc" stroke="black" points="150,-258 98,-258 96,-256 96,-240 148,-240 150,-242 150,-258"/>
<polyline fill="none" stroke="black" points="148,-256 96,-256 "/>
<polyline fill="none" stroke="black" points="148,-256 148,-240 "/>
<polyline fill="none" stroke="black" points="148,-256 150,-258 "/>
<text text-anchor="middle" x="123" y="-246.8" font-family="Helvetica,sans-Serif" font-size="9.00">github</text>
</a>
</g>
</g>
<!-- src/app/app&#45;store.ts&#45;&gt;src/modules/github -->
<g id="edge8" class="edge">
<title>src/app/app&#45;store.ts&#45;&gt;src/modules/github</title>
<path fill="none" stroke="#000000" stroke-width="2" stroke-opacity="0.200000" d="M201.34,-322.94C186.1,-308.75 154.38,-279.22 136.33,-262.41"/>
<polygon fill="#000000" fill-opacity="0.200000" stroke="#000000" stroke-width="2" stroke-opacity="0.200000" points="137.45,-260.58 131.62,-258.03 134.59,-263.66 137.45,-260.58"/>
</g>
<!-- src/modules/user -->
<g id="node11" class="node">
<title>src/modules/user</title>
<g id="a_node11"><a xlink:href="src/modules/user" xlink:title="user">
<polygon fill="#ffffcc" stroke="black" points="84,-258 32,-258 30,-256 30,-240 82,-240 84,-242 84,-258"/>
<polyline fill="none" stroke="black" points="82,-256 30,-256 "/>
<polyline fill="none" stroke="black" points="82,-256 82,-240 "/>
<polyline fill="none" stroke="black" points="82,-256 84,-258 "/>
<text text-anchor="middle" x="57" y="-246.8" font-family="Helvetica,sans-Serif" font-size="9.00">user</text>
</a>
</g>
</g>
<!-- src/app/app&#45;store.ts&#45;&gt;src/modules/user -->
<g id="edge9" class="edge">
<title>src/app/app&#45;store.ts&#45;&gt;src/modules/user</title>
<path fill="none" stroke="#000000" stroke-width="2" stroke-opacity="0.200000" d="M179.44,-322.98C154.1,-315.44 117.85,-302.52 90,-284 81.48,-278.34 73.46,-270.16 67.45,-263.24"/>
<polygon fill="#000000" fill-opacity="0.200000" stroke="#000000" stroke-width="2" stroke-opacity="0.200000" points="68.74,-261.51 63.28,-258.26 65.52,-264.21 68.74,-261.51"/>
</g>
<!-- src/modules/auth&#45;&gt;src/api/pizza&#45;store -->
<g id="edge19" class="edge">
<title>src/modules/auth&#45;&gt;src/api/pizza&#45;store</title>
<path fill="none" stroke="#000000" stroke-width="2" stroke-opacity="0.200000" d="M77.55,-205.89C87.13,-201.72 98.5,-196.21 108,-190 117.53,-183.78 127.19,-175.38 134.5,-168.49"/>
<polygon fill="#000000" fill-opacity="0.200000" stroke="#000000" stroke-width="2" stroke-opacity="0.200000" points="136.3,-169.68 139.17,-164 133.39,-166.65 136.3,-169.68"/>
</g>
<!-- src/modules/auth&#45;&gt;src/common/redux -->
<g id="edge21" class="edge">
<title>src/modules/auth&#45;&gt;src/common/redux</title>
<path fill="none" stroke="#000000" stroke-width="2" stroke-opacity="0.200000" d="M47.52,-205.63C43.45,-201.4 39.14,-195.92 37,-190 24.44,-155.31 11.74,-133.89 37,-107 46.76,-96.61 152.06,-104.96 165,-99 174.84,-94.47 183.28,-85.61 189.17,-78.07"/>
<polygon fill="#000000" fill-opacity="0.200000" stroke="#000000" stroke-width="2" stroke-opacity="0.200000" points="190.94,-79.21 192.82,-73.13 187.56,-76.71 190.94,-79.21"/>
</g>
<!-- src/modules/auth&#45;&gt;src/common/utils -->
<g id="edge20" class="edge">
<title>src/modules/auth&#45;&gt;src/common/utils</title>
<path fill="none" stroke="#000000" stroke-width="2" stroke-opacity="0.200000" d="M38.41,-205.83C32.02,-202.01 25.57,-196.78 22,-190 -6.06,-136.74 -9.56,-97.58 33,-55 42.16,-45.83 73.63,-40.26 98.66,-37.18"/>
<polygon fill="#000000" fill-opacity="0.200000" stroke="#000000" stroke-width="2" stroke-opacity="0.200000" points="99.15,-39.24 104.87,-36.45 98.66,-35.07 99.15,-39.24"/>
</g>
<!-- src/modules/github&#45;&gt;src/api/github -->
<g id="edge22" class="edge">
<title>src/modules/github&#45;&gt;src/api/github</title>
<path fill="none" stroke="#000000" stroke-width="2" stroke-opacity="0.200000" d="M118.74,-239.84C110.46,-223.97 92.14,-188.85 82.03,-169.48"/>
<polygon fill="#000000" fill-opacity="0.200000" stroke="#000000" stroke-width="2" stroke-opacity="0.200000" points="83.82,-168.36 79.18,-164.01 80.1,-170.31 83.82,-168.36"/>
</g>
<!-- src/modules/github&#45;&gt;src/common/redux -->
<g id="edge23" class="edge">
<title>src/modules/github&#45;&gt;src/common/redux</title>
<path fill="none" stroke="#000000" stroke-width="2" stroke-opacity="0.200000" d="M142.21,-240C161.09,-230.96 188.8,-214.28 201,-190 219.34,-153.5 209.1,-103.12 202.38,-78.98"/>
<polygon fill="#000000" fill-opacity="0.200000" stroke="#000000" stroke-width="2" stroke-opacity="0.200000" points="204.38,-78.35 200.69,-73.17 200.35,-79.52 204.38,-78.35"/>
</g>
<!-- src/modules/github&#45;&gt;src/common/utils -->
<g id="edge24" class="edge">
<title>src/modules/github&#45;&gt;src/common/utils</title>
<path fill="none" stroke="#000000" stroke-width="2" stroke-opacity="0.200000" d="M142.87,-239.84C149.27,-237.27 156.41,-234.46 163,-232 173.14,-228.21 177.35,-230.51 186,-224 223.94,-195.43 229.99,-178.94 242,-133 250.77,-99.46 264.1,-81.71 242,-55 232.41,-43.41 194.2,-38.15 165.49,-35.81"/>
<polygon fill="#000000" fill-opacity="0.200000" stroke="#000000" stroke-width="2" stroke-opacity="0.200000" points="165.29,-33.69 159.15,-35.33 164.97,-37.88 165.29,-33.69"/>
</g>
<!-- src/modules/user&#45;&gt;src/api/pizza&#45;store -->
<g id="edge25" class="edge">
<title>src/modules/user&#45;&gt;src/api/pizza&#45;store</title>
<path fill="none" stroke="#000000" stroke-width="2" stroke-opacity="0.200000" d="M69.78,-239.79C76.15,-235.44 83.79,-229.8 90,-224 108.65,-206.59 127.03,-183.24 137.68,-168.92"/>
<polygon fill="#000000" fill-opacity="0.200000" stroke="#000000" stroke-width="2" stroke-opacity="0.200000" points="139.38,-170.16 141.24,-164.09 136,-167.67 139.38,-170.16"/>
</g>
<!-- src/modules/user&#45;&gt;src/common/redux -->
<g id="edge26" class="edge">
<title>src/modules/user&#45;&gt;src/common/redux</title>
<path fill="none" stroke="#000000" stroke-width="2" stroke-opacity="0.200000" d="M73.36,-239.84C78.64,-237.27 84.54,-234.46 90,-232 134.34,-212.05 162.9,-229.67 191,-190 203.33,-172.59 200.87,-108.41 199.05,-79.4"/>
<polygon fill="#000000" fill-opacity="0.200000" stroke="#000000" stroke-width="2" stroke-opacity="0.200000" points="201.13,-78.99 198.63,-73.14 196.94,-79.27 201.13,-78.99"/>
</g>
<!-- src/modules/user&#45;&gt;src/modules/auth -->
<g id="edge28" class="edge">
<title>src/modules/user&#45;&gt;src/modules/auth</title>
<path fill="none" stroke="#000000" stroke-width="2" stroke-opacity="0.200000" d="M57,-239.93C57,-237.04 57,-233.69 57,-230.43"/>
<polygon fill="#000000" fill-opacity="0.200000" stroke="#000000" stroke-width="2" stroke-opacity="0.200000" points="59.1,-230.41 57,-224.41 54.9,-230.41 59.1,-230.41"/>
</g>
<!-- src/modules/user&#45;&gt;src/common/utils -->
<g id="edge27" class="edge">
<title>src/modules/user&#45;&gt;src/common/utils</title>
<path fill="none" stroke="#000000" stroke-width="2" stroke-opacity="0.200000" d="M71.05,-239.94C76.76,-237 83.53,-233.92 90,-232 117.06,-223.96 126.8,-234.51 153,-224 176.6,-214.54 183.89,-210.45 199,-190 205.37,-181.38 229.2,-109.57 231,-99 234.29,-79.72 243.31,-70.19 231,-55 222.76,-44.83 190.55,-39.38 165.08,-36.61"/>
<polygon fill="#000000" fill-opacity="0.200000" stroke="#000000" stroke-width="2" stroke-opacity="0.200000" points="165.29,-34.52 159.1,-35.99 164.86,-38.69 165.29,-34.52"/>
</g>
<!-- src/app/app.tsx -->
<g id="node12" class="node">
<title>src/app/app.tsx</title>
<g id="a_node12"><a xlink:href="src/app/app.tsx" xlink:title="app.tsx">
<path fill="#bbfeff" stroke="black" d="M306,-341C306,-341 264,-341 264,-341 261,-341 258,-338 258,-335 258,-335 258,-329 258,-329 258,-326 261,-323 264,-323 264,-323 306,-323 306,-323 309,-323 312,-326 312,-329 312,-329 312,-335 312,-335 312,-338 309,-341 306,-341"/>
<text text-anchor="middle" x="285" y="-329.8" font-family="Helvetica,sans-Serif" font-size="9.00">app.tsx</text>
</a>
</g>
</g>
<!-- src/app/main&#45;layout -->
<g id="node13" class="node">
<title>src/app/main&#45;layout</title>
<g id="a_node13"><a xlink:href="src/app/main-layout" xlink:title="main&#45;layout">
<polygon fill="#ffffcc" stroke="black" points="312,-310 244,-310 242,-308 242,-292 310,-292 312,-294 312,-310"/>
<polyline fill="none" stroke="black" points="310,-308 242,-308 "/>
<polyline fill="none" stroke="black" points="310,-308 310,-292 "/>
<polyline fill="none" stroke="black" points="310,-308 312,-310 "/>
<text text-anchor="middle" x="277" y="-298.8" font-family="Helvetica,sans-Serif" font-size="9.00">main&#45;layout</text>
</a>
</g>
</g>
<!-- src/app/app.tsx&#45;&gt;src/app/main&#45;layout -->
<g id="edge10" class="edge">
<title>src/app/app.tsx&#45;&gt;src/app/main&#45;layout</title>
<path fill="none" stroke="#000000" stroke-width="2" stroke-opacity="0.200000" d="M282.73,-322.77C282.16,-320.7 281.53,-318.43 280.91,-316.17"/>
<polygon fill="#000000" fill-opacity="0.200000" stroke="#000000" stroke-width="2" stroke-opacity="0.200000" points="282.92,-315.58 279.3,-310.35 278.88,-316.7 282.92,-315.58"/>
</g>
<!-- src/app/main&#45;layout&#45;&gt;src/modules/github -->
<g id="edge12" class="edge">
<title>src/app/main&#45;layout&#45;&gt;src/modules/github</title>
<path fill="none" stroke="#000000" stroke-width="2" stroke-opacity="0.200000" d="M241.94,-300.1C218.65,-298.98 187.89,-295.17 163,-284 151.98,-279.05 141.65,-270.12 134.25,-262.65"/>
<polygon fill="#000000" fill-opacity="0.200000" stroke="#000000" stroke-width="2" stroke-opacity="0.200000" points="135.71,-261.13 130.04,-258.24 132.67,-264.03 135.71,-261.13"/>
</g>
<!-- src/app/main&#45;layout&#45;&gt;src/modules/user -->
<g id="edge13" class="edge">
<title>src/app/main&#45;layout&#45;&gt;src/modules/user</title>
<path fill="none" stroke="#000000" stroke-width="2" stroke-opacity="0.200000" d="M241.62,-299.89C195.03,-299.26 115.98,-296.32 90,-284 80.22,-279.36 71.77,-270.5 65.87,-262.99"/>
<polygon fill="#000000" fill-opacity="0.200000" stroke="#000000" stroke-width="2" stroke-opacity="0.200000" points="67.48,-261.63 62.21,-258.08 64.11,-264.14 67.48,-261.63"/>
</g>
<!-- src/app/router -->
<g id="node14" class="node">
<title>src/app/router</title>
<g id="a_node14"><a xlink:href="src/app/router" xlink:title="router">
<polygon fill="#ffffcc" stroke="black" points="308,-258 256,-258 254,-256 254,-240 306,-240 308,-242 308,-258"/>
<polyline fill="none" stroke="black" points="306,-256 254,-256 "/>
<polyline fill="none" stroke="black" points="306,-256 306,-240 "/>
<polyline fill="none" stroke="black" points="306,-256 308,-258 "/>
<text text-anchor="middle" x="281" y="-246.8" font-family="Helvetica,sans-Serif" font-size="9.00">router</text>
</a>
</g>
</g>
<!-- src/app/main&#45;layout&#45;&gt;src/app/router -->
<g id="edge11" class="edge">
<title>src/app/main&#45;layout&#45;&gt;src/app/router</title>
<path fill="none" stroke="#000000" stroke-width="2" stroke-opacity="0.200000" d="M277.66,-291.74C278.26,-284.24 279.16,-273.02 279.87,-264.1"/>
<polygon fill="#000000" fill-opacity="0.200000" stroke="#000000" stroke-width="2" stroke-opacity="0.200000" points="281.97,-264.25 280.35,-258.1 277.78,-263.92 281.97,-264.25"/>
</g>
<!-- src/index.scss -->
<g id="node16" class="node">
<title>src/index.scss</title>
<g id="a_node16"><a xlink:href="src/index.scss" xlink:title="index.scss">
<path fill="#ffffcc" stroke="black" d="M395.5,-341C395.5,-341 344.5,-341 344.5,-341 341.5,-341 338.5,-338 338.5,-335 338.5,-335 338.5,-329 338.5,-329 338.5,-326 341.5,-323 344.5,-323 344.5,-323 395.5,-323 395.5,-323 398.5,-323 401.5,-326 401.5,-329 401.5,-329 401.5,-335 401.5,-335 401.5,-338 398.5,-341 395.5,-341"/>
<text text-anchor="middle" x="370" y="-329.8" font-family="Helvetica,sans-Serif" font-size="9.00">index.scss</text>
</a>
</g>
</g>
<!-- src/index.tsx -->
<g id="node17" class="node">
<title>src/index.tsx</title>
<g id="a_node17"><a xlink:href="src/index.tsx" xlink:title="index.tsx">
<path fill="#bbfeff" stroke="black" d="M220,-401C220,-401 174,-401 174,-401 171,-401 168,-398 168,-395 168,-395 168,-389 168,-389 168,-386 171,-383 174,-383 174,-383 220,-383 220,-383 223,-383 226,-386 226,-389 226,-389 226,-395 226,-395 226,-398 223,-401 220,-401"/>
<text text-anchor="middle" x="197" y="-389.8" font-family="Helvetica,sans-Serif" font-size="9.00">index.tsx</text>
</a>
</g>
</g>
<!-- src/index.tsx&#45;&gt;src/app/app&#45;store.ts -->
<g id="edge17" class="edge">
<title>src/index.tsx&#45;&gt;src/app/app&#45;store.ts</title>
<path fill="none" stroke="#000000" stroke-width="2" stroke-opacity="0.200000" d="M198.81,-382.94C200.86,-373.78 204.25,-358.65 206.76,-347.44"/>
<polygon fill="#000000" fill-opacity="0.200000" stroke="#000000" stroke-width="2" stroke-opacity="0.200000" points="208.86,-347.69 208.12,-341.37 204.76,-346.77 208.86,-347.69"/>
</g>
<!-- src/index.tsx&#45;&gt;src/app/app.tsx -->
<g id="edge16" class="edge">
<title>src/index.tsx&#45;&gt;src/app/app.tsx</title>
<path fill="none" stroke="#000000" stroke-width="2" stroke-opacity="0.200000" d="M214.37,-382.86C219.97,-380.29 226.23,-377.47 232,-375 240.8,-371.23 244.05,-372.33 252,-367 260.49,-361.31 268.52,-353.13 274.53,-346.22"/>
<polygon fill="#000000" fill-opacity="0.200000" stroke="#000000" stroke-width="2" stroke-opacity="0.200000" points="276.46,-347.19 278.71,-341.24 273.24,-344.49 276.46,-347.19"/>
</g>
<!-- src/index.tsx&#45;&gt;src/app/router -->
<g id="edge18" class="edge">
<title>src/index.tsx&#45;&gt;src/app/router</title>
<path fill="none" stroke="#000000" stroke-width="2" stroke-opacity="0.200000" d="M211.92,-382.84C217.98,-379.88 225.16,-376.83 232,-375 250.54,-370.05 305.07,-381.19 318,-367 340.45,-342.36 329.78,-323.18 318,-292 313.62,-280.41 304.42,-269.94 296.29,-262.36"/>
<polygon fill="#000000" fill-opacity="0.200000" stroke="#000000" stroke-width="2" stroke-opacity="0.200000" points="297.3,-260.44 291.42,-258.02 294.51,-263.58 297.3,-260.44"/>
</g>
<!-- src/index.tsx&#45;&gt;src/index.scss -->
<g id="edge15" class="edge">
<title>src/index.tsx&#45;&gt;src/index.scss</title>
<path fill="none" stroke="#000000" stroke-width="2" stroke-opacity="0.200000" d="M211.57,-382.97C217.7,-379.96 225.02,-376.82 232,-375 273.85,-364.07 288.95,-383.34 329,-367 340.49,-362.31 351.19,-353.2 358.78,-345.59"/>
<polygon fill="#000000" fill-opacity="0.200000" stroke="#000000" stroke-width="2" stroke-opacity="0.200000" points="360.45,-346.88 363.09,-341.1 357.42,-343.98 360.45,-346.88"/>
</g>
<!-- src/polyfills/jest&#45;polyfills.js -->
<g id="node18" class="node">
<title>src/polyfills/jest&#45;polyfills.js</title>
<g id="a_node18"><a xlink:href="src/polyfills/jest-polyfills.js" xlink:title="jest&#45;polyfills.js">
<path fill="#ffffcc" stroke="black" d="M388.5,-401C388.5,-401 321.5,-401 321.5,-401 318.5,-401 315.5,-398 315.5,-395 315.5,-395 315.5,-389 315.5,-389 315.5,-386 318.5,-383 321.5,-383 321.5,-383 388.5,-383 388.5,-383 391.5,-383 394.5,-386 394.5,-389 394.5,-389 394.5,-395 394.5,-395 394.5,-398 391.5,-401 388.5,-401"/>
<text text-anchor="middle" x="355" y="-389.8" font-family="Helvetica,sans-Serif" font-size="9.00">jest&#45;polyfills.js</text>
</a>
</g>
</g>
</g>
</svg>
